NewsreaderText-Regular.ufo
<glyph name="exclam" format="2">
	<unicode hex="0021"/>
	<advance width="517"/>
	<outline>
		<contour>
			<point x="343" y="1319" type="line" smooth="yes"/>
			<point x="344" y="1347"/>
			<point x="302" y="1360"/>
			<point x="260" y="1360" type="curve" smooth="yes"/>
			<point x="218" y="1360"/>
			<point x="176" y="1347"/>
			<point x="177" y="1319" type="curve" smooth="yes"/>
			<point x="181" y="1154" type="line" smooth="yes"/>
			<point x="184" y="1019"/>
			<point x="216" y="748"/>
			<point x="230" y="396" type="curve"/>
			<point x="290" y="396" type="line"/>
			<point x="304" y="748"/>
			<point x="336" y="1019"/>
			<point x="339" y="1154" type="curve" smooth="yes"/>
		</contour>
		<contour>
			<point x="258" y="224" type="curve" smooth="yes"/>
			<point x="188" y="224"/>
			<point x="137" y="171"/>
			<point x="137" y="105" type="curve" smooth="yes"/>
			<point x="137" y="39"/>
			<point x="188" y="-14"/>
			<point x="258" y="-14" type="curve" smooth="yes"/>
			<point x="328" y="-14"/>
			<point x="379" y="39"/>
			<point x="379" y="105" type="curve" smooth="yes"/>
			<point x="379" y="171"/>
			<point x="328" y="224"/>
		</contour>
	</outline>
</glyph>
<glyph name="ampersand" format="2">
  <advance width="1390"/>
  <unicode hex="0026"/>
  <outline>
    <contour>
      <point x="562" y="718" type="line"/>
      <point x="810" y="863"/>
      <point x="886" y="982"/>
      <point x="886" y="1101" type="curve" smooth="yes"/>
      <point x="886" y="1242"/>
      <point x="784" y="1360"/>
      <point x="585" y="1360" type="curve" smooth="yes"/>
      <point x="384" y="1360"/>
      <point x="256" y="1247"/>
      <point x="256" y="1072" type="curve" smooth="yes"/>
      <point x="256" y="977"/>
      <point x="292" y="895"/>
      <point x="428" y="738" type="curve" smooth="yes"/>
      <point x="1065" y="0" type="line"/>
      <point x="1367" y="0" type="line"/>
      <point x="1367" y="37" type="line"/>
      <point x="1173" y="96" type="line"/>
      <point x="506" y="860" type="line" smooth="yes"/>
      <point x="414" y="965"/>
      <point x="386" y="1020"/>
      <point x="386" y="1102" type="curve" smooth="yes"/>
      <point x="386" y="1218"/>
      <point x="465" y="1280"/>
      <point x="576" y="1280" type="curve" smooth="yes"/>
      <point x="698" y="1280"/>
      <point x="757" y="1204"/>
      <point x="757" y="1090" type="curve" smooth="yes"/>
      <point x="757" y="975"/>
      <point x="696" y="881"/>
      <point x="523" y="784" type="curve"/>
      <point x="475" y="760" type="line"/>
      <point x="213" y="631"/>
      <point x="119" y="490"/>
      <point x="119" y="329" type="curve" smooth="yes"/>
      <point x="119" y="130"/>
      <point x="252" y="-20"/>
      <point x="493" y="-20" type="curve" smooth="yes"/>
      <point x="660" y="-20"/>
      <point x="806" y="42"/>
      <point x="940" y="222" type="curve"/>
      <point x="961" y="251" type="line"/>
      <point x="1039" y="364"/>
      <point x="1114" y="520"/>
      <point x="1186" y="728" type="curve"/>
      <point x="1352" y="776" type="line"/>
      <point x="1352" y="813" type="line"/>
      <point x="922" y="813" type="line"/>
      <point x="922" y="776" type="line"/>
      <point x="1075" y="728" type="line"/>
      <point x="1026" y="552"/>
      <point x="970" y="421"/>
      <point x="908" y="324" type="curve"/>
      <point x="884" y="288" type="line"/>
      <point x="781" y="146"/>
      <point x="664" y="95"/>
      <point x="542" y="95" type="curve" smooth="yes"/>
      <point x="374" y="95"/>
      <point x="270" y="184"/>
      <point x="270" y="356" type="curve" smooth="yes"/>
      <point x="270" y="500"/>
      <point x="334" y="600"/>
      <point x="510" y="693" type="curve"/>
    </contour>
  </outline>
</glyph>
<glyph name="quotesingle" format="2">
  <advance width="379"/>
  <unicode hex="0027"/>
  <outline>
    <contour>
      <point x="150.0" y="862.0" type="line"/>
      <point x="228.0" y="862.0" type="line"/>
      <point x="283.0" y="1292.0" type="line"/>
      <point x="283.0" y="1340.0" type="line"/>
      <point x="97.0" y="1340.0" type="line"/>
      <point x="97.0" y="1292.0" type="line"/>
    </contour>
  </outline>
</glyph>
<glyph name="parenleft" format="2">
	<unicode hex="0028"/>
	<advance width="542"/>
	<outline>
		<contour>
			<point x="238" y="572" type="curve" smooth="yes"/>
			<point x="238" y="823"/>
			<point x="277.6963393466" y="1062.1141429545"/>
			<point x="482" y="1389" type="curve"/>
			<point x="438" y="1419" type="line"/>
			<point x="168.1164183387" y="1075.8766359547"/>
			<point x="85" y="876"/>
			<point x="85" y="572" type="curve" smooth="yes"/>
			<point x="85" y="268"/>
			<point x="168.1164183387" y="68.1233640453"/>
			<point x="438" y="-275" type="curve"/>
			<point x="482" y="-245" type="line"/>
			<point x="277.6963393466" y="81.8858570455"/>
			<point x="238" y="321"/>
		</contour>
	</outline>
</glyph>
<glyph name="parenright" format="2">
  <advance width="542"/>
  <unicode hex="0029"/>
  <outline>
    <contour>
      <point x="304.0" y="572.0" type="curve" smooth="yes"/>
      <point x="304.0" y="321.0"/>
      <point x="264.0" y="82.0"/>
      <point x="60.0" y="-245.0" type="curve"/>
      <point x="104.0" y="-275.0" type="line"/>
      <point x="374.0" y="68.0"/>
      <point x="457.0" y="268.0"/>
      <point x="457.0" y="572.0" type="curve" smooth="yes"/>
      <point x="457.0" y="876.0"/>
      <point x="374.0" y="1076.0"/>
      <point x="104.0" y="1419.0" type="curve"/>
      <point x="60.0" y="1389.0" type="line"/>
      <point x="264.0" y="1062.0"/>
      <point x="304.0" y="823.0"/>
    </contour>
  </outline>
</glyph>
<glyph name="asterisk" format="2">
	<unicode hex="002A"/>
	<advance width="859"/>
	<outline>
		<contour>
			<point x="589" y="717" type="line"/>
			<point x="516" y="969" type="line"/>
			<point x="775" y="1017" type="line"/>
			<point x="771" y="1074" type="line"/>
			<point x="507" y="1082" type="line"/>
			<point x="542" y="1344" type="line"/>
			<point x="487" y="1357" type="line"/>
			<point x="398" y="1109" type="line"/>
			<point x="160" y="1223" type="line"/>
			<point x="129" y="1175" type="line"/>
			<point x="338" y="1013" type="line"/>
			<point x="157" y="822" type="line"/>
			<point x="193" y="778" type="line"/>
			<point x="411" y="926" type="line"/>
			<point x="536" y="694" type="line"/>
		</contour>
	</outline>
</glyph>
<glyph name="plus" format="2">
	<unicode hex="002B"/>
	<advance width="1000"/>
	<outline>
		<contour>
			<point x="458" y="793" type="line"/>
			<point x="458" y="79" type="line"/>
			<point x="542" y="79" type="line"/>
			<point x="542" y="793" type="line"/>
		</contour>
		<contour>
			<point x="857" y="478" type="line"/>
			<point x="143" y="478" type="line"/>
			<point x="143" y="394" type="line"/>
			<point x="857" y="394" type="line"/>
		</contour>
	</outline>
</glyph>
<glyph name="comma" format="2">
	<unicode hex="002C"/>
	<advance width="461"/>
	<outline>
		<contour>
			<point x="57" y="-300" type="curve"/>
			<point x="106" y="-351" type="line"/>
			<point x="292" y="-192"/>
			<point x="358" y="-72"/>
			<point x="358" y="63" type="curve" smooth="yes"/>
			<point x="358" y="166"/>
			<point x="299" y="223"/>
			<point x="225" y="223" type="curve" smooth="yes"/>
			<point x="147" y="223"/>
			<point x="101" y="169"/>
			<point x="101" y="96" type="curve" smooth="yes"/>
			<point x="101" y="40"/>
			<point x="233" y="34"/>
			<point x="233" y="-44" type="curve" smooth="yes"/>
			<point x="233" y="-113"/>
			<point x="178" y="-202"/>
		</contour>
	</outline>
</glyph>
<glyph name="hyphen" format="2">
	<unicode hex="002D"/>
	<advance width="685"/>
	<outline>
		<contour>
			<point x="122" y="501" type="line"/>
			<point x="122" y="371" type="line"/>
			<point x="563" y="371" type="line"/>
			<point x="563" y="501" type="line"/>
		</contour>
	</outline>
</glyph>
<glyph name="period" format="2">
	<unicode hex="002E"/>
	<advance width="440"/>
	<outline>
		<contour>
			<point x="220" y="224" type="curve" smooth="yes"/>
			<point x="150" y="224"/>
			<point x="99" y="171"/>
			<point x="99" y="105" type="curve" smooth="yes"/>
			<point x="99" y="39"/>
			<point x="150" y="-14"/>
			<point x="220" y="-14" type="curve" smooth="yes"/>
			<point x="290" y="-14"/>
			<point x="341" y="39"/>
			<point x="341" y="105" type="curve" smooth="yes"/>
			<point x="341" y="171"/>
			<point x="290" y="224"/>
		</contour>
	</outline>
</glyph>
<glyph name="slash" format="2">
  <advance width="784"/>
  <unicode hex="002F"/>
  <outline>
    <contour>
      <point x="55.0" y="0.0" type="line"/>
      <point x="168.0" y="0.0" type="line"/>
      <point x="728.0" y="1340.0" type="line"/>
      <point x="615.0" y="1340.0" type="line"/>
    </contour>
  </outline>
</glyph>
<glyph name="zero" format="2">
	<unicode hex="0030"/>
	<advance width="1100"/>
	<outline>
		<contour>
			<point x="553" y="63" type="curve" smooth="yes"/>
			<point x="355.2195121951" y="63"/>
			<point x="235" y="299"/>
			<point x="235" y="700" type="curve" smooth="yes"/>
			<point x="235" y="1063"/>
			<point x="352.2422360248" y="1277"/>
			<point x="547" y="1277" type="curve" smooth="yes"/>
			<point x="743.7920489297" y="1277"/>
			<point x="864" y="1041"/>
			<point x="864" y="640" type="curve" smooth="yes"/>
			<point x="864" y="277"/>
			<point x="746.769470405" y="63"/>
		</contour>
		<contour>
			<point x="550" y="1360" type="curve" smooth="yes"/>
			<point x="264" y="1360"/>
			<point x="69" y="1080"/>
			<point x="69" y="668" type="curve" smooth="yes"/>
			<point x="69" y="257"/>
			<point x="264" y="-20"/>
			<point x="550" y="-20" type="curve" smooth="yes"/>
			<point x="839" y="-20"/>
			<point x="1031" y="260"/>
			<point x="1031" y="672" type="curve" smooth="yes"/>
			<point x="1031" y="1083"/>
			<point x="839" y="1360"/>
		</contour>
	</outline>
</glyph>
<glyph name="one" format="2">
	<unicode hex="0031"/>
	<advance width="1100"/>
	<outline>
		<contour>
			<point x="549" y="94" type="line"/>
			<point x="267" y="41" type="line"/>
			<point x="267" y="0" type="line"/>
			<point x="967" y="0" type="line"/>
			<point x="967" y="41" type="line"/>
			<point x="701" y="94" type="line"/>
			<point x="701" y="1360" type="line"/>
			<point x="674" y="1360" type="line"/>
			<point x="170" y="1106" type="line"/>
			<point x="183" y="1067" type="line"/>
			<point x="594" y="1177" type="line"/>
			<point x="549" y="1249" type="line"/>
		</contour>
	</outline>
</glyph>
<glyph name="colon" format="2">
	<unicode hex="003A"/>
	<advance width="484"/>
	<outline>
		<contour>
			<point x="242" y="224" type="curve" smooth="yes"/>
			<point x="172" y="224"/>
			<point x="121" y="171"/>
			<point x="121" y="105" type="curve" smooth="yes"/>
			<point x="121" y="39"/>
			<point x="172" y="-14"/>
			<point x="242" y="-14" type="curve" smooth="yes"/>
			<point x="312" y="-14"/>
			<point x="363" y="39"/>
			<point x="363" y="105" type="curve" smooth="yes"/>
			<point x="363" y="171"/>
			<point x="312" y="224"/>
		</contour>
		<contour>
			<point x="242" y="863" type="curve" smooth="yes"/>
			<point x="172" y="863"/>
			<point x="121" y="810"/>
			<point x="121" y="744" type="curve" smooth="yes"/>
			<point x="121" y="678"/>
			<point x="172" y="625"/>
			<point x="242" y="625" type="curve" smooth="yes"/>
			<point x="312" y="625"/>
			<point x="363" y="678"/>
			<point x="363" y="744" type="curve" smooth="yes"/>
			<point x="363" y="810"/>
			<point x="312" y="863"/>
		</contour>
	</outline>
</glyph>
<glyph name="semicolon" format="2">
	<unicode hex="003B"/>
	<advance width="519"/>
	<outline>
		<contour>
			<point x="97" y="-300" type="curve"/>
			<point x="146" y="-351" type="line"/>
			<point x="332" y="-192"/>
			<point x="398" y="-72"/>
			<point x="398" y="63" type="curve" smooth="yes"/>
			<point x="398" y="166"/>
			<point x="339" y="223"/>
			<point x="265" y="223" type="curve" smooth="yes"/>
			<point x="187" y="223"/>
			<point x="141" y="169"/>
			<point x="141" y="96" type="curve" smooth="yes"/>
			<point x="141" y="40"/>
			<point x="273" y="34"/>
			<point x="273" y="-44" type="curve" smooth="yes"/>
			<point x="273" y="-113"/>
			<point x="218" y="-202"/>
		</contour>
		<contour>
			<point x="249" y="863" type="curve" smooth="yes"/>
			<point x="179" y="863"/>
			<point x="128" y="810"/>
			<point x="128" y="744" type="curve" smooth="yes"/>
			<point x="128" y="678"/>
			<point x="179" y="625"/>
			<point x="249" y="625" type="curve" smooth="yes"/>
			<point x="319" y="625"/>
			<point x="370" y="678"/>
			<point x="370" y="744" type="curve" smooth="yes"/>
			<point x="370" y="810"/>
			<point x="319" y="863"/>
		</contour>
	</outline>
</glyph>
<glyph name="less" format="2">
	<unicode hex="003C"/>
	<advance width="1000"/>
	<outline>
		<contour>
			<point x="137" y="427" type="line"/>
			<point x="944" y="796" type="line"/>
			<point x="944" y="892" type="line"/>
			<point x="44" y="473" type="line"/>
			<point x="44" y="399" type="line"/>
			<point x="944" y="-20" type="line"/>
			<point x="944" y="76" type="line"/>
			<point x="137" y="445" type="line"/>
		</contour>
	</outline>
</glyph>
<glyph name="greater" format="2">
	<unicode hex="003E"/>
	<advance width="1000"/>
	<outline>
		<contour>
			<point x="863" y="427" type="line"/>
			<point x="863" y="445" type="line"/>
			<point x="56" y="76" type="line"/>
			<point x="56" y="-20" type="line"/>
			<point x="956" y="399" type="line"/>
			<point x="956" y="473" type="line"/>
			<point x="56" y="892" type="line"/>
			<point x="56" y="796" type="line"/>
		</contour>
	</outline>
</glyph>
<glyph name="question" format="2">
	<unicode hex="003F"/>
	<advance width="820"/>
	<outline>
		<contour>
			<point x="283" y="1360" type="curve" smooth="yes"/>
			<point x="139" y="1360"/>
			<point x="59" y="1317"/>
			<point x="59" y="1248" type="curve" smooth="yes"/>
			<point x="59" y="1199"/>
			<point x="100" y="1159"/>
			<point x="156" y="1159" type="curve" smooth="yes"/>
			<point x="253" y="1159"/>
			<point x="261" y="1256"/>
			<point x="390" y="1256" type="curve" smooth="yes"/>
			<point x="538" y="1256"/>
			<point x="639" y="1158"/>
			<point x="639" y="988" type="curve" smooth="yes"/>
			<point x="639" y="826"/>
			<point x="512" y="733"/>
			<point x="240" y="754" type="curve"/>
			<point x="313" y="396" type="line"/>
			<point x="356" y="396" type="line"/>
			<point x="356" y="739" type="line"/>
			<point x="293" y="626" type="line"/>
			<point x="636" y="614"/>
			<point x="738" y="750"/>
			<point x="738" y="939" type="curve" smooth="yes"/>
			<point x="738" y="1212"/>
			<point x="524" y="1360"/>
		</contour>
		<contour>
			<point x="344" y="224" type="curve" smooth="yes"/>
			<point x="274" y="224"/>
			<point x="223" y="171"/>
			<point x="223" y="105" type="curve" smooth="yes"/>
			<point x="223" y="39"/>
			<point x="274" y="-14"/>
			<point x="344" y="-14" type="curve" smooth="yes"/>
			<point x="414" y="-14"/>
			<point x="465" y="39"/>
			<point x="465" y="105" type="curve" smooth="yes"/>
			<point x="465" y="171"/>
			<point x="414" y="224"/>
		</contour>
	</outline>
</glyph>
<glyph name="at" format="2">
	<unicode hex="0040"/>
	<advance width="1756"/>
	<outline>
		<contour>
			<point x="1218" y="198" type="curve" smooth="yes"/>
			<point x="1483" y="198"/>
			<point x="1706" y="438"/>
			<point x="1706" y="772" type="curve" smooth="yes"/>
			<point x="1706" y="1143"/>
			<point x="1440" y="1419"/>
			<point x="986" y="1419" type="curve" smooth="yes"/>
			<point x="446" y="1419"/>
			<point x="81" y="1015"/>
			<point x="81" y="497" type="curve" smooth="yes"/>
			<point x="81" y="20"/>
			<point x="408" y="-256"/>
			<point x="893" y="-256" type="curve" smooth="yes"/>
			<point x="1144" y="-256"/>
			<point x="1346" y="-185"/>
			<point x="1521" y="-64" type="curve"/>
			<point x="1479" y="0" type="line"/>
			<point x="1304" y="-125"/>
			<point x="1102" y="-171"/>
			<point x="922" y="-171" type="curve" smooth="yes"/>
			<point x="492" y="-171"/>
			<point x="232" y="87"/>
			<point x="232" y="512" type="curve" smooth="yes"/>
			<point x="232" y="997"/>
			<point x="509" y="1338"/>
			<point x="979" y="1338" type="curve" smooth="yes"/>
			<point x="1339" y="1338"/>
			<point x="1563" y="1081"/>
			<point x="1563" y="744" type="curve" smooth="yes"/>
			<point x="1563" y="432"/>
			<point x="1409" y="267"/>
			<point x="1248" y="267" type="curve" smooth="yes"/>
			<point x="1186" y="267"/>
			<point x="1138" y="301"/>
			<point x="1138" y="391" type="curve" smooth="yes"/>
			<point x="1138" y="426"/>
			<point x="1145" y="469"/>
			<point x="1172" y="554" type="curve" smooth="yes"/>
			<point x="1316" y="999" type="line"/>
			<point x="1169" y="999" type="line"/>
			<point x="1143" y="918" type="line"/>
			<point x="1061" y="663" type="line" smooth="yes"/>
			<point x="997" y="463"/>
			<point x="823" y="308"/>
			<point x="743" y="308" type="curve" smooth="yes"/>
			<point x="697" y="308"/>
			<point x="666" y="337"/>
			<point x="666" y="390" type="curve" smooth="yes"/>
			<point x="666" y="586"/>
			<point x="854" y="936"/>
			<point x="1048" y="936" type="curve" smooth="yes"/>
			<point x="1094" y="936"/>
			<point x="1121" y="907"/>
			<point x="1132" y="877" type="curve"/>
			<point x="1171" y="928" type="line"/>
			<point x="1130" y="972"/>
			<point x="1090" y="1002"/>
			<point x="1020" y="1002" type="curve" smooth="yes"/>
			<point x="722" y="1002"/>
			<point x="498" y="604"/>
			<point x="498" y="378" type="curve" smooth="yes"/>
			<point x="498" y="249"/>
			<point x="569" y="198"/>
			<point x="673" y="198" type="curve" smooth="yes"/>
			<point x="769" y="198"/>
			<point x="890" y="269"/>
			<point x="1065" y="552" type="curve"/>
			<point x="1030" y="552" type="line"/>
			<point x="1013" y="490" type="line" smooth="yes"/>
			<point x="1002" y="451"/>
			<point x="997" y="415"/>
			<point x="997" y="384" type="curve" smooth="yes"/>
			<point x="997" y="257"/>
			<point x="1085" y="198"/>
		</contour>
	</outline>
</glyph>
<glyph name="A" format="2">
	<unicode hex="0041"/>
	<advance width="1375"/>
	<outline>
		<contour>
			<point x="351" y="501" type="line"/>
			<point x="1012" y="501" type="line"/>
			<point x="1012" y="592" type="line"/>
			<point x="351" y="592" type="line"/>
		</contour>
		<contour>
			<point x="1242" y="93" type="line"/>
			<point x="705" y="1360" type="line"/>
			<point x="658" y="1360" type="line"/>
			<point x="139" y="91" type="line"/>
			<point x="-14" y="39" type="line"/>
			<point x="-14" y="0" type="line"/>
			<point x="408" y="0" type="line"/>
			<point x="408" y="39" type="line"/>
			<point x="245" y="91" type="line"/>
			<point x="678" y="1195" type="line"/>
			<point x="611" y="1195" type="line"/>
			<point x="1073" y="91" type="line"/>
			<point x="900" y="39" type="line"/>
			<point x="900" y="0" type="line"/>
			<point x="1390" y="0" type="line"/>
			<point x="1390" y="39" type="line"/>
		</contour>
	</outline>
	<anchor name="UCtop" x="681" y="1340"/>
	<anchor name="right" x="1322" y="0"/>
	<anchor name="bottom" x="690" y="0"/>
</glyph>
<glyph name="B" format="2">
	<unicode hex="0042"/>
	<advance width="1250"/>
	<outline>
		<contour>
			<point x="335" y="1246" type="line"/>
			<point x="630" y="1246" type="line" smooth="yes"/>
			<point x="828" y="1246"/>
			<point x="923" y="1150"/>
			<point x="923" y="1011" type="curve" smooth="yes"/>
			<point x="923" y="841"/>
			<point x="820" y="758"/>
			<point x="655" y="758" type="curve" smooth="yes"/>
			<point x="335" y="758" type="line"/>
			<point x="335" y="664" type="line"/>
			<point x="670" y="664" type="line" smooth="yes"/>
			<point x="893" y="664"/>
			<point x="992" y="551"/>
			<point x="992" y="389" type="curve" smooth="yes"/>
			<point x="992" y="184"/>
			<point x="867" y="94"/>
			<point x="661" y="94" type="curve" smooth="yes"/>
			<point x="336" y="94" type="line"/>
			<point x="336" y="0" type="line"/>
			<point x="671" y="0" type="line" smooth="yes"/>
			<point x="1016" y="0"/>
			<point x="1162" y="172"/>
			<point x="1162" y="404" type="curve" smooth="yes"/>
			<point x="1162" y="588"/>
			<point x="1018" y="718"/>
			<point x="785" y="732" type="curve"/>
			<point x="782" y="717" type="line"/>
			<point x="967" y="734"/>
			<point x="1083" y="858"/>
			<point x="1083" y="1024" type="curve" smooth="yes"/>
			<point x="1083" y="1203"/>
			<point x="962" y="1340"/>
			<point x="668" y="1340" type="curve" smooth="yes"/>
			<point x="335" y="1340" type="line"/>
		</contour>
		<contour>
			<point x="85" y="0" type="line"/>
			<point x="403" y="0" type="line"/>
			<point x="403" y="1340" type="line"/>
			<point x="85" y="1340" type="line"/>
			<point x="85" y="1301" type="line"/>
			<point x="243" y="1249" type="line"/>
			<point x="243" y="91" type="line"/>
			<point x="85" y="39" type="line"/>
		</contour>
	</outline>
	<anchor name="UCtop" x="623" y="1340"/>
	<anchor name="bottom" x="623" y="0"/>
</glyph>
<glyph name="C" format="2">
	<unicode hex="0043"/>
	<advance width="1381"/>
	<outline>
		<contour>
			<point x="851" y="70" type="curve" smooth="yes"/>
			<point x="515" y="70"/>
			<point x="265" y="307"/>
			<point x="265" y="725" type="curve" smooth="yes"/>
			<point x="265" y="1062"/>
			<point x="457" y="1268"/>
			<point x="833" y="1268" type="curve" smooth="yes"/>
			<point x="935" y="1268"/>
			<point x="1016" y="1250"/>
			<point x="1128" y="1190" type="curve"/>
			<point x="1088" y="1230" type="line"/>
			<point x="1250" y="931" type="line"/>
			<point x="1296" y="940" type="line"/>
			<point x="1238" y="1398" type="line"/>
			<point x="1220" y="1398" type="line"/>
			<point x="1095" y="1315" type="line"/>
			<point x="1149" y="1325" type="line"/>
			<point x="1035" y="1352"/>
			<point x="963" y="1360"/>
			<point x="880" y="1360" type="curve" smooth="yes"/>
			<point x="385" y="1360"/>
			<point x="94" y="1084"/>
			<point x="94" y="658" type="curve" smooth="yes"/>
			<point x="94" y="234"/>
			<point x="398" y="-20"/>
			<point x="843" y="-20" type="curve" smooth="yes"/>
			<point x="1011" y="-20"/>
			<point x="1171" y="14"/>
			<point x="1260" y="58" type="curve"/>
			<point x="1293" y="354" type="line"/>
			<point x="1240" y="354" type="line"/>
			<point x="1101" y="85" type="line"/>
			<point x="1147" y="122" type="line"/>
			<point x="1049" y="86"/>
			<point x="956" y="70"/>
		</contour>
	</outline>
	<anchor name="UCtop" x="783" y="1340"/>
	<anchor name="bottom" x="763" y="0"/>
	<anchor name="right" x="1384" y="0"/>
</glyph>
<glyph name="D" format="2">
	<unicode hex="0044"/>
	<advance width="1495"/>
	<outline>
		<contour>
			<point x="1226" y="688" type="curve" smooth="yes"/>
			<point x="1226" y="268"/>
			<point x="972" y="94"/>
			<point x="592" y="94" type="curve" smooth="yes"/>
			<point x="303" y="94" type="line"/>
			<point x="303" y="0" type="line"/>
			<point x="621" y="0" type="line" smooth="yes"/>
			<point x="1065" y="0"/>
			<point x="1400" y="260"/>
			<point x="1400" y="710" type="curve" smooth="yes"/>
			<point x="1400" y="1134"/>
			<point x="1143" y="1340"/>
			<point x="619" y="1340" type="curve" smooth="yes"/>
			<point x="303" y="1340" type="line"/>
			<point x="303" y="1246" type="line"/>
			<point x="570" y="1246" type="line" smooth="yes"/>
			<point x="976" y="1246"/>
			<point x="1226" y="1066"/>
		</contour>
		<contour>
			<point x="85" y="0" type="line"/>
			<point x="403" y="0" type="line"/>
			<point x="403" y="1340" type="line"/>
			<point x="85" y="1340" type="line"/>
			<point x="85" y="1301" type="line"/>
			<point x="243" y="1249" type="line"/>
			<point x="243" y="91" type="line"/>
			<point x="85" y="39" type="line"/>
		</contour>
	</outline>
	<anchor name="UCtop" x="751" y="1340"/>
	<anchor name="bottom" x="753" y="0"/>
</glyph>
<glyph name="E" format="2">
	<unicode hex="0045"/>
	<advance width="1237"/>
	<outline>
		<contour>
			<point x="884" y="965" type="line"/>
			<point x="810" y="965" type="line"/>
			<point x="788" y="750" type="line"/>
			<point x="303" y="750" type="line"/>
			<point x="303" y="656" type="line"/>
			<point x="788" y="656" type="line"/>
			<point x="810" y="441" type="line"/>
			<point x="884" y="441" type="line"/>
			<point x="884" y="703" type="line"/>
		</contour>
		<contour>
			<point x="1137" y="962" type="line"/>
			<point x="1072" y="1389" type="line"/>
			<point x="1056" y="1389" type="line"/>
			<point x="944" y="1340" type="line"/>
			<point x="303" y="1340" type="line"/>
			<point x="303" y="1246" type="line"/>
			<point x="980" y="1246" type="line"/>
			<point x="925" y="1267" type="line"/>
			<point x="1090" y="953" type="line"/>
		</contour>
		<contour>
			<point x="943" y="68" type="line"/>
			<point x="988" y="94" type="line"/>
			<point x="303" y="94" type="line"/>
			<point x="303" y="0" type="line"/>
			<point x="962" y="0" type="line"/>
			<point x="1077" y="-59" type="line"/>
			<point x="1093" y="-59" type="line"/>
			<point x="1165" y="370" type="line"/>
			<point x="1124" y="381" type="line"/>
		</contour>
		<contour>
			<point x="85" y="0" type="line"/>
			<point x="403" y="0" type="line"/>
			<point x="403" y="1340" type="line"/>
			<point x="85" y="1340" type="line"/>
			<point x="85" y="1301" type="line"/>
			<point x="243" y="1249" type="line"/>
			<point x="243" y="91" type="line"/>
			<point x="85" y="39" type="line"/>
		</contour>
	</outline>
	<anchor name="UCtop" x="636" y="1340"/>
	<anchor name="right" x="1099" y="0"/>
	<anchor name="bottom" x="666" y="0"/>
</glyph>
<glyph name="F" format="2">
	<unicode hex="0046"/>
	<advance width="1142"/>
	<outline>
		<contour>
			<point x="890" y="934" type="line"/>
			<point x="816" y="934" type="line"/>
			<point x="794" y="719" type="line"/>
			<point x="309" y="719" type="line"/>
			<point x="309" y="625" type="line"/>
			<point x="794" y="625" type="line"/>
			<point x="816" y="410" type="line"/>
			<point x="890" y="410" type="line"/>
			<point x="890" y="672" type="line"/>
		</contour>
		<contour>
			<point x="1026" y="1389" type="line"/>
			<point x="914" y="1340" type="line"/>
			<point x="273" y="1340" type="line"/>
			<point x="273" y="1246" type="line"/>
			<point x="1025" y="1246" type="line"/>
			<point x="891" y="1267" type="line"/>
			<point x="1056" y="953" type="line"/>
			<point x="1103" y="962" type="line"/>
			<point x="1038" y="1389" type="line"/>
		</contour>
		<contour>
			<point x="403" y="1340" type="line"/>
			<point x="85" y="1340" type="line"/>
			<point x="85" y="1301" type="line"/>
			<point x="243" y="1249" type="line"/>
			<point x="243" y="91" type="line"/>
			<point x="85" y="39" type="line"/>
			<point x="85" y="0" type="line"/>
			<point x="561" y="0" type="line"/>
			<point x="561" y="39" type="line"/>
			<point x="403" y="91" type="line"/>
		</contour>
	</outline>
	<anchor name="UCtop" x="594" y="1340"/>
	<anchor name="bottom" x="323" y="0"/>
</glyph>
<glyph name="G" format="2">
	<unicode hex="0047"/>
	<advance width="1464"/>
	<outline>
		<contour>
			<point x="1291" y="177" type="line"/>
			<point x="1291" y="508" type="line"/>
			<point x="1419" y="560" type="line"/>
			<point x="1419" y="599" type="line"/>
			<point x="943" y="599" type="line"/>
			<point x="943" y="560" type="line"/>
			<point x="1131" y="502" type="line"/>
			<point x="1131" y="57" type="line"/>
			<point x="1184" y="173" type="line"/>
			<point x="1121" y="110"/>
			<point x="973" y="70"/>
			<point x="836" y="70" type="curve" smooth="yes"/>
			<point x="505" y="70"/>
			<point x="265" y="307"/>
			<point x="265" y="726" type="curve" smooth="yes"/>
			<point x="265" y="1062"/>
			<point x="452" y="1268"/>
			<point x="818" y="1268" type="curve" smooth="yes"/>
			<point x="953" y="1268"/>
			<point x="1053" y="1234"/>
			<point x="1160" y="1159" type="curve"/>
			<point x="1060" y="1253" type="line"/>
			<point x="1235" y="931" type="line"/>
			<point x="1281" y="940" type="line"/>
			<point x="1223" y="1398" type="line"/>
			<point x="1205" y="1398" type="line"/>
			<point x="1076" y="1313" type="line"/>
			<point x="1142" y="1323" type="line"/>
			<point x="1036" y="1349"/>
			<point x="960" y="1360"/>
			<point x="865" y="1360" type="curve" smooth="yes"/>
			<point x="379" y="1360"/>
			<point x="94" y="1084"/>
			<point x="94" y="658" type="curve" smooth="yes"/>
			<point x="94" y="234"/>
			<point x="402" y="-20"/>
			<point x="843" y="-20" type="curve" smooth="yes"/>
			<point x="1018" y="-20"/>
			<point x="1184" y="19"/>
			<point x="1308" y="82" type="curve"/>
			<point x="1308" y="82" type="line"/>
		</contour>
	</outline>
	<anchor name="UCtop" x="791" y="1340"/>
	<anchor name="bottom" x="791" y="0"/>
</glyph>
<glyph name="H" format="2">
	<unicode hex="0048"/>
	<advance width="1559"/>
	<outline>
		<contour>
			<point x="403" y="91" type="line"/>
			<point x="403" y="1249" type="line"/>
			<point x="561" y="1301" type="line"/>
			<point x="561" y="1340" type="line"/>
			<point x="85" y="1340" type="line"/>
			<point x="85" y="1301" type="line"/>
			<point x="243" y="1249" type="line"/>
			<point x="243" y="91" type="line"/>
			<point x="85" y="39" type="line"/>
			<point x="85" y="0" type="line"/>
			<point x="561" y="0" type="line"/>
			<point x="561" y="39" type="line"/>
		</contour>
		<contour>
			<point x="1316" y="91" type="line"/>
			<point x="1316" y="1249" type="line"/>
			<point x="1474" y="1301" type="line"/>
			<point x="1474" y="1340" type="line"/>
			<point x="998" y="1340" type="line"/>
			<point x="998" y="1301" type="line"/>
			<point x="1156" y="1249" type="line"/>
			<point x="1156" y="91" type="line"/>
			<point x="998" y="39" type="line"/>
			<point x="998" y="0" type="line"/>
			<point x="1474" y="0" type="line"/>
			<point x="1474" y="39" type="line"/>
		</contour>
		<contour>
			<point x="303" y="636" type="line"/>
			<point x="1256" y="636" type="line"/>
			<point x="1256" y="730" type="line"/>
			<point x="303" y="730" type="line"/>
		</contour>
	</outline>
	<anchor name="UCtop" x="779" y="1340"/>
	<anchor name="bottom" x="779" y="0"/>
</glyph>
<glyph name="I" format="2">
  <advance width="646"/>
  <unicode hex="0049"/>
  <anchor x="323.0" y="1340.0" name="UCtop"/>
  <anchor x="503.0" y="0" name="right"/>
  <anchor x="323.0" y="0" name="bottom"/>
  <outline>
    <contour>
      <point x="561.0" y="39.0" type="line"/>
      <point x="403.0" y="91.0" type="line"/>
      <point x="403.0" y="1249.0" type="line"/>
      <point x="561.0" y="1301.0" type="line"/>
      <point x="561.0" y="1340.0" type="line"/>
      <point x="85.0" y="1340.0" type="line"/>
      <point x="85.0" y="1301.0" type="line"/>
      <point x="243.0" y="1249.0" type="line"/>
      <point x="243.0" y="91.0" type="line"/>
      <point x="85.0" y="39.0" type="line"/>
      <point x="85.0" y="0.0" type="line"/>
      <point x="561.0" y="0.0" type="line"/>
    </contour>
  </outline>
</glyph>
<glyph name="J" format="2">
	<unicode hex="004A"/>
	<advance width="844"/>
	<outline>
		<contour>
			<point x="632" y="430" type="curve" smooth="yes"/>
			<point x="629" y="1249" type="line"/>
			<point x="786" y="1301" type="line"/>
			<point x="786" y="1340" type="line"/>
			<point x="311" y="1340" type="line"/>
			<point x="311" y="1301" type="line"/>
			<point x="469" y="1249" type="line"/>
			<point x="469" y="345" type="line" smooth="yes"/>
			<point x="469" y="150"/>
			<point x="393" y="78"/>
			<point x="298" y="78" type="curve" smooth="yes"/>
			<point x="211" y="78"/>
			<point x="144" y="170"/>
			<point x="96" y="170" type="curve" smooth="yes"/>
			<point x="38" y="170"/>
			<point x="12" y="132"/>
			<point x="12" y="88" type="curve" smooth="yes"/>
			<point x="12" y="22"/>
			<point x="80" y="-20"/>
			<point x="177" y="-20" type="curve" smooth="yes"/>
			<point x="424" y="-20"/>
			<point x="632" y="144"/>
		</contour>
	</outline>
	<anchor name="UCtop" x="549" y="1340"/>
	<anchor name="bottom" x="399" y="0"/>
</glyph>
<glyph name="K" format="2">
	<unicode hex="004B"/>
	<advance width="1415"/>
	<outline>
		<contour>
			<point x="1276" y="95" type="line"/>
			<point x="643" y="752" type="line"/>
			<point x="610" y="693" type="line"/>
			<point x="1168" y="1249" type="line"/>
			<point x="1321" y="1301" type="line"/>
			<point x="1321" y="1340" type="line"/>
			<point x="887" y="1340" type="line"/>
			<point x="887" y="1301" type="line"/>
			<point x="1043" y="1254" type="line"/>
			<point x="551" y="738" type="line"/>
			<point x="347" y="738" type="line"/>
			<point x="347" y="647" type="line"/>
			<point x="540" y="647" type="line"/>
			<point x="1063" y="92" type="line"/>
			<point x="911" y="39" type="line"/>
			<point x="911" y="0" type="line"/>
			<point x="1430" y="0" type="line"/>
			<point x="1430" y="39" type="line"/>
		</contour>
		<contour>
			<point x="403" y="1249" type="line"/>
			<point x="561" y="1301" type="line"/>
			<point x="561" y="1340" type="line"/>
			<point x="85" y="1340" type="line"/>
			<point x="85" y="1301" type="line"/>
			<point x="243" y="1249" type="line"/>
			<point x="243" y="91" type="line"/>
			<point x="85" y="39" type="line"/>
			<point x="85" y="0" type="line"/>
			<point x="561" y="0" type="line"/>
			<point x="561" y="39" type="line"/>
			<point x="403" y="91" type="line"/>
		</contour>
	</outline>
	<anchor name="bottom" x="727" y="0"/>
	<anchor name="UCtop" x="727" y="1340"/>
</glyph>
<glyph name="L" format="2">
	<unicode hex="004C"/>
	<advance width="1168"/>
	<outline>
		<contour>
			<point x="1051" y="-59" type="line"/>
			<point x="1132" y="392" type="line"/>
			<point x="1090" y="402" type="line"/>
			<point x="893" y="65" type="line"/>
			<point x="1035" y="94" type="line"/>
			<point x="303" y="94" type="line"/>
			<point x="303" y="0" type="line"/>
			<point x="911" y="0" type="line"/>
			<point x="1030" y="-59" type="line"/>
		</contour>
		<contour>
			<point x="403" y="1249" type="line"/>
			<point x="561" y="1301" type="line"/>
			<point x="561" y="1340" type="line"/>
			<point x="85" y="1340" type="line"/>
			<point x="85" y="1301" type="line"/>
			<point x="243" y="1249" type="line"/>
			<point x="243" y="91" type="line"/>
			<point x="85" y="39" type="line"/>
			<point x="85" y="0" type="line"/>
			<point x="403" y="0" type="line"/>
		</contour>
	</outline>
	<anchor name="UCtop" x="323" y="1340"/>
	<anchor name="bottom" x="605" y="0"/>
	<anchor name="mid" x="905" y="702"/>
	<anchor name="right" x="637" y="1339"/>
</glyph>
<glyph name="M" format="2">
	<unicode hex="004D"/>
	<advance width="1910"/>
	<outline>
		<contour>
			<point x="1701" y="91" type="line"/>
			<point x="1613" y="1249" type="line"/>
			<point x="1771" y="1301" type="line"/>
			<point x="1771" y="1340" type="line"/>
			<point x="1455" y="1340" type="line"/>
			<point x="947" y="205" type="line"/>
			<point x="971" y="205" type="line"/>
			<point x="465" y="1340" type="line"/>
			<point x="133" y="1340" type="line"/>
			<point x="133" y="1301" type="line"/>
			<point x="296" y="1244" type="line"/>
			<point x="210" y="91" type="line"/>
			<point x="52" y="39" type="line"/>
			<point x="52" y="0" type="line"/>
			<point x="463" y="0" type="line"/>
			<point x="463" y="39" type="line"/>
			<point x="306" y="91" type="line"/>
			<point x="372" y="1185" type="line"/>
			<point x="358" y="1182" type="line"/>
			<point x="901" y="-19" type="line"/>
			<point x="943" y="-19" type="line"/>
			<point x="1479" y="1194" type="line"/>
			<point x="1465" y="1197" type="line"/>
			<point x="1542" y="91" type="line"/>
			<point x="1385" y="39" type="line"/>
			<point x="1385" y="0" type="line"/>
			<point x="1858" y="0" type="line"/>
			<point x="1858" y="39" type="line"/>
		</contour>
	</outline>
	<anchor name="UCtop" x="955" y="1340"/>
	<anchor name="bottom" x="930" y="0"/>
</glyph>
<glyph name="N" format="2">
	<unicode hex="004E"/>
	<advance width="1500"/>
	<outline>
		<contour>
			<point x="245" y="91" type="line"/>
			<point x="87" y="39" type="line"/>
			<point x="87" y="0" type="line"/>
			<point x="512" y="0" type="line"/>
			<point x="512" y="39" type="line"/>
			<point x="341" y="91" type="line"/>
			<point x="341" y="1230" type="line"/>
			<point x="308" y="1194" type="line"/>
			<point x="1228" y="-19" type="line"/>
			<point x="1271" y="-19" type="line"/>
			<point x="1271" y="1249" type="line"/>
			<point x="1429" y="1301" type="line"/>
			<point x="1429" y="1340" type="line"/>
			<point x="1004" y="1340" type="line"/>
			<point x="1004" y="1301" type="line"/>
			<point x="1175" y="1249" type="line"/>
			<point x="1175" y="157" type="line"/>
			<point x="1222" y="249" type="line"/>
			<point x="396" y="1340" type="line"/>
			<point x="82" y="1340" type="line"/>
			<point x="82" y="1301" type="line"/>
			<point x="245" y="1233" type="line"/>
		</contour>
	</outline>
	<anchor name="UCtop" x="769" y="1340"/>
	<anchor name="bottom" x="779" y="0"/>
</glyph>
<glyph name="O" format="2">
	<unicode hex="004F"/>
	<advance width="1525"/>
	<outline>
		<contour>
			<point x="761" y="1360" type="curve" smooth="yes"/>
			<point x="373" y="1360"/>
			<point x="94" y="1073"/>
			<point x="94" y="668" type="curve" smooth="yes"/>
			<point x="94" y="264"/>
			<point x="374" y="-20"/>
			<point x="764" y="-20" type="curve" smooth="yes"/>
			<point x="1152" y="-20"/>
			<point x="1431" y="267"/>
			<point x="1431" y="672" type="curve" smooth="yes"/>
			<point x="1431" y="1076"/>
			<point x="1151" y="1360"/>
		</contour>
		<contour>
			<point x="771" y="72" type="curve" smooth="yes"/>
			<point x="478" y="72"/>
			<point x="268" y="301"/>
			<point x="268" y="700" type="curve" smooth="yes"/>
			<point x="268" y="1048"/>
			<point x="454" y="1268"/>
			<point x="754" y="1268" type="curve" smooth="yes"/>
			<point x="1047" y="1268"/>
			<point x="1257" y="1039"/>
			<point x="1257" y="640" type="curve" smooth="yes"/>
			<point x="1257" y="292"/>
			<point x="1071" y="72"/>
		</contour>
	</outline>
	<anchor name="UCtop" x="762" y="1340"/>
	<anchor name="bottom" x="762" y="0"/>
	<anchor name="horn" x="1059" y="1340"/>
	<anchor name="right" x="990" y="0"/>
</glyph>
<glyph name="P" format="2">
	<unicode hex="0050"/>
	<advance width="1179"/>
	<outline>
		<contour>
			<point x="961" y="962" type="curve" smooth="yes"/>
			<point x="961" y="775"/>
			<point x="830" y="677"/>
			<point x="657" y="677" type="curve" smooth="yes"/>
			<point x="254" y="677" type="line"/>
			<point x="267" y="583" type="line"/>
			<point x="632" y="583" type="line" smooth="yes"/>
			<point x="982" y="583"/>
			<point x="1131" y="761"/>
			<point x="1131" y="974" type="curve" smooth="yes"/>
			<point x="1131" y="1180"/>
			<point x="989" y="1340"/>
			<point x="632" y="1340" type="curve" smooth="yes"/>
			<point x="267" y="1340" type="line"/>
			<point x="254" y="1246" type="line"/>
			<point x="546" y="1246" type="line" smooth="yes"/>
			<point x="855" y="1246"/>
			<point x="961" y="1144"/>
		</contour>
		<contour>
			<point x="403" y="1340" type="line"/>
			<point x="85" y="1340" type="line"/>
			<point x="85" y="1301" type="line"/>
			<point x="243" y="1249" type="line"/>
			<point x="243" y="91" type="line"/>
			<point x="85" y="39" type="line"/>
			<point x="85" y="0" type="line"/>
			<point x="561" y="0" type="line"/>
			<point x="561" y="39" type="line"/>
			<point x="403" y="91" type="line"/>
		</contour>
	</outline>
	<anchor name="UCtop" x="608" y="1340"/>
	<anchor name="bottom" x="323" y="0"/>
</glyph>
<glyph name="Q" format="2">
	<unicode hex="0051"/>
	<advance width="1525"/>
	<outline>
		<contour>
			<point x="861" y="-249" type="line" smooth="yes"/>
			<point x="1041" y="-375"/>
			<point x="1085" y="-393"/>
			<point x="1216" y="-393" type="curve" smooth="yes"/>
			<point x="1330" y="-393"/>
			<point x="1419" y="-370"/>
			<point x="1488" y="-350" type="curve"/>
			<point x="1488" y="-316" type="line"/>
			<point x="1298" y="-327"/>
			<point x="1232" y="-301"/>
			<point x="1049" y="-192" type="curve" smooth="yes"/>
			<point x="662" y="38" type="line"/>
			<point x="720" y="0" type="line"/>
			<point x="1145" y="-44"/>
			<point x="1431" y="266"/>
			<point x="1431" y="672" type="curve" smooth="yes"/>
			<point x="1431" y="1076"/>
			<point x="1151" y="1360"/>
			<point x="761" y="1360" type="curve" smooth="yes"/>
			<point x="373" y="1360"/>
			<point x="94" y="1073"/>
			<point x="94" y="668" type="curve" smooth="yes"/>
			<point x="94" y="416"/>
			<point x="177" y="231"/>
			<point x="422" y="59" type="curve" smooth="yes"/>
		</contour>
		<contour>
			<point x="771" y="72" type="curve" smooth="yes"/>
			<point x="478" y="72"/>
			<point x="268" y="301"/>
			<point x="268" y="700" type="curve" smooth="yes"/>
			<point x="268" y="1048"/>
			<point x="454" y="1268"/>
			<point x="754" y="1268" type="curve" smooth="yes"/>
			<point x="1047" y="1268"/>
			<point x="1257" y="1039"/>
			<point x="1257" y="640" type="curve" smooth="yes"/>
			<point x="1257" y="292"/>
			<point x="1071" y="72"/>
		</contour>
	</outline>
	<anchor name="UCtop" x="791" y="1340"/>
	<anchor name="bottom" x="761" y="-172"/>
</glyph>
<glyph name="R" format="2">
	<unicode hex="0052"/>
	<advance width="1240"/>
	<outline>
		<contour>
			<point x="617" y="725" type="curve" smooth="yes"/>
			<point x="264" y="725" type="line"/>
			<point x="267" y="631" type="line"/>
			<point x="622" y="631" type="line" smooth="yes"/>
			<point x="738" y="631"/>
			<point x="766" y="584"/>
			<point x="823" y="425" type="curve" smooth="yes"/>
			<point x="917" y="163" type="line" smooth="yes"/>
			<point x="975" y="1"/>
			<point x="1006" y="-18"/>
			<point x="1245" y="0" type="curve"/>
			<point x="1245" y="56" type="line"/>
			<point x="1160" y="55"/>
			<point x="1126" y="63"/>
			<point x="1077" y="197" type="curve" smooth="yes"/>
			<point x="980" y="462" type="line" smooth="yes"/>
			<point x="923" y="617"/>
			<point x="872" y="669"/>
			<point x="741" y="678" type="curve"/>
			<point x="741" y="671" type="line"/>
			<point x="958" y="705"/>
			<point x="1076" y="829"/>
			<point x="1076" y="1003" type="curve" smooth="yes"/>
			<point x="1076" y="1188"/>
			<point x="944" y="1340"/>
			<point x="612" y="1340" type="curve" smooth="yes"/>
			<point x="267" y="1340" type="line"/>
			<point x="264" y="1246" type="line"/>
			<point x="512" y="1246" type="line" smooth="yes"/>
			<point x="804" y="1246"/>
			<point x="906" y="1149"/>
			<point x="906" y="986" type="curve" smooth="yes"/>
			<point x="906" y="815"/>
			<point x="782" y="725"/>
		</contour>
		<contour>
			<point x="403" y="1340" type="line"/>
			<point x="85" y="1340" type="line"/>
			<point x="85" y="1301" type="line"/>
			<point x="243" y="1249" type="line"/>
			<point x="243" y="91" type="line"/>
			<point x="85" y="39" type="line"/>
			<point x="85" y="0" type="line"/>
			<point x="561" y="0" type="line"/>
			<point x="561" y="39" type="line"/>
			<point x="403" y="91" type="line"/>
		</contour>
	</outline>
	<anchor name="UCtop" x="615" y="1340"/>
	<anchor name="bottom" x="705" y="0"/>
</glyph>
<glyph name="S" format="2">
	<unicode hex="0053"/>
	<advance width="1067"/>
	<outline>
		<contour>
			<point x="875" y="1277" type="line"/>
			<point x="771" y="1334"/>
			<point x="674" y="1360"/>
			<point x="555" y="1360" type="curve" smooth="yes"/>
			<point x="294" y="1360"/>
			<point x="131" y="1221"/>
			<point x="131" y="1002" type="curve" smooth="yes"/>
			<point x="131" y="791"/>
			<point x="272" y="713"/>
			<point x="448" y="646" type="curve" smooth="yes"/>
			<point x="624" y="579"/>
			<point x="832" y="532"/>
			<point x="832" y="326" type="curve" smooth="yes"/>
			<point x="832" y="149"/>
			<point x="700" y="65"/>
			<point x="481" y="65" type="curve" smooth="yes"/>
			<point x="387" y="65"/>
			<point x="314" y="90"/>
			<point x="210" y="146" type="curve"/>
			<point x="376" y="41" type="line"/>
			<point x="140" y="386" type="line"/>
			<point x="82" y="386" type="line"/>
			<point x="169" y="40" type="line"/>
			<point x="277" y="-4"/>
			<point x="368" y="-20"/>
			<point x="496" y="-20" type="curve" smooth="yes"/>
			<point x="775" y="-20"/>
			<point x="970" y="122"/>
			<point x="970" y="380" type="curve" smooth="yes"/>
			<point x="970" y="626"/>
			<point x="774" y="699"/>
			<point x="596" y="762" type="curve" smooth="yes"/>
			<point x="418" y="825"/>
			<point x="256" y="879"/>
			<point x="256" y="1057" type="curve" smooth="yes"/>
			<point x="256" y="1191"/>
			<point x="355" y="1280"/>
			<point x="527" y="1280" type="curve" smooth="yes"/>
			<point x="611" y="1280"/>
			<point x="679" y="1261"/>
			<point x="749" y="1212" type="curve"/>
			<point x="714" y="1258" type="line"/>
			<point x="887" y="949" type="line"/>
			<point x="931" y="957" type="line"/>
			<point x="869" y="1398" type="line"/>
			<point x="852" y="1398" type="line"/>
			<point x="730" y="1316" type="line"/>
		</contour>
	</outline>
	<anchor name="UCtop" x="526" y="1340"/>
	<anchor name="bottom" x="536" y="0"/>
</glyph>
<glyph name="T" format="2">
	<unicode hex="0054"/>
	<advance width="1298"/>
	<outline>
		<contour>
			<point x="569" y="1279" type="line"/>
			<point x="569" y="91" type="line"/>
			<point x="411" y="39" type="line"/>
			<point x="411" y="0" type="line"/>
			<point x="887" y="0" type="line"/>
			<point x="887" y="39" type="line"/>
			<point x="729" y="91" type="line"/>
			<point x="729" y="1279" type="line"/>
		</contour>
		<contour>
			<point x="1166" y="1246" type="line"/>
			<point x="1074" y="1265" type="line"/>
			<point x="1209" y="979" type="line"/>
			<point x="1255" y="988" type="line"/>
			<point x="1215" y="1408" type="line"/>
			<point x="1197" y="1408" type="line"/>
			<point x="1056" y="1324" type="line"/>
			<point x="1143" y="1340" type="line"/>
			<point x="155" y="1340" type="line"/>
			<point x="242" y="1324" type="line"/>
			<point x="101" y="1408" type="line"/>
			<point x="83" y="1408" type="line"/>
			<point x="43" y="988" type="line"/>
			<point x="89" y="979" type="line"/>
			<point x="224" y="1265" type="line"/>
			<point x="132" y="1246" type="line"/>
		</contour>
	</outline>
	<anchor name="UCtop" x="649" y="1340"/>
	<anchor name="bottom" x="649" y="0"/>
</glyph>
<glyph name="U" format="2">
	<unicode hex="0055"/>
	<advance width="1498"/>
	<outline>
		<contour>
			<point x="1188" y="489" type="line" smooth="yes"/>
			<point x="1188" y="242"/>
			<point x="1044" y="102"/>
			<point x="781" y="102" type="curve" smooth="yes"/>
			<point x="508" y="102"/>
			<point x="372" y="243"/>
			<point x="372" y="534" type="curve" smooth="yes"/>
			<point x="372" y="1249" type="line"/>
			<point x="530" y="1301" type="line"/>
			<point x="530" y="1340" type="line"/>
			<point x="54" y="1340" type="line"/>
			<point x="54" y="1301" type="line"/>
			<point x="212" y="1249" type="line"/>
			<point x="212" y="543" type="line" smooth="yes"/>
			<point x="212" y="173"/>
			<point x="407" y="-20"/>
			<point x="758" y="-20" type="curve" smooth="yes"/>
			<point x="1094" y="-20"/>
			<point x="1284" y="172"/>
			<point x="1284" y="509" type="curve" smooth="yes"/>
			<point x="1284" y="1249" type="line"/>
			<point x="1442" y="1301" type="line"/>
			<point x="1442" y="1340" type="line"/>
			<point x="1030" y="1340" type="line"/>
			<point x="1030" y="1301" type="line"/>
			<point x="1188" y="1249" type="line"/>
		</contour>
	</outline>
	<anchor name="UCtop" x="776" y="1340"/>
	<anchor name="right" x="1000" y="0"/>
	<anchor name="bottom" x="776" y="0"/>
	<anchor name="horn" x="1279" y="1340"/>
</glyph>
<glyph name="V" format="2">
	<unicode hex="0056"/>
	<advance width="1335"/>
	<outline>
		<contour>
			<point x="129" y="1247" type="line"/>
			<point x="661" y="-20" type="line"/>
			<point x="708" y="-20" type="line"/>
			<point x="1192" y="1249" type="line"/>
			<point x="1345" y="1301" type="line"/>
			<point x="1345" y="1340" type="line"/>
			<point x="931" y="1340" type="line"/>
			<point x="931" y="1301" type="line"/>
			<point x="1094" y="1249" type="line"/>
			<point x="688" y="145" type="line"/>
			<point x="755" y="145" type="line"/>
			<point x="298" y="1249" type="line"/>
			<point x="471" y="1301" type="line"/>
			<point x="471" y="1340" type="line"/>
			<point x="-19" y="1340" type="line"/>
			<point x="-19" y="1301" type="line"/>
		</contour>
	</outline>
	<anchor name="UCtop" x="687" y="1340"/>
	<anchor name="bottom" x="687" y="0"/>
</glyph>
<glyph name="W" format="2">
	<unicode hex="0057"/>
	<advance width="1871"/>
	<outline>
		<contour>
			<point x="972" y="1182" type="line"/>
			<point x="908" y="1148" type="line"/>
			<point x="1378" y="-20" type="line"/>
			<point x="1425" y="-20" type="line"/>
			<point x="1729" y="1249" type="line"/>
			<point x="1874" y="1301" type="line"/>
			<point x="1874" y="1340" type="line"/>
			<point x="1463" y="1340" type="line"/>
			<point x="1463" y="1301" type="line"/>
			<point x="1634" y="1249" type="line"/>
			<point x="1386" y="148" type="line"/>
			<point x="1466" y="185" type="line"/>
			<point x="996" y="1360" type="line"/>
			<point x="947" y="1360" type="line"/>
			<point x="518" y="225" type="line"/>
			<point x="557" y="225" type="line"/>
			<point x="304" y="1249" type="line"/>
			<point x="477" y="1301" type="line"/>
			<point x="477" y="1340" type="line"/>
			<point x="-8" y="1340" type="line"/>
			<point x="-8" y="1301" type="line"/>
			<point x="140" y="1247" type="line"/>
			<point x="458" y="-20" type="line"/>
			<point x="505" y="-20" type="line"/>
		</contour>
	</outline>
	<anchor name="UCtop" x="964" y="1340"/>
	<anchor name="bottom" x="964" y="0"/>
</glyph>
<glyph name="X" format="2">
	<unicode hex="0058"/>
	<advance width="1387"/>
	<outline>
		<contour>
			<point x="694" y="650" type="line"/>
			<point x="730" y="680" type="line"/>
			<point x="1167" y="1249" type="line"/>
			<point x="1320" y="1301" type="line"/>
			<point x="1320" y="1340" type="line"/>
			<point x="898" y="1340" type="line"/>
			<point x="898" y="1301" type="line"/>
			<point x="1061" y="1249" type="line"/>
			<point x="684" y="739" type="line"/>
			<point x="645" y="705" type="line"/>
			<point x="162" y="91" type="line"/>
			<point x="9" y="39" type="line"/>
			<point x="9" y="0" type="line"/>
			<point x="431" y="0" type="line"/>
			<point x="431" y="39" type="line"/>
			<point x="268" y="91" type="line"/>
		</contour>
		<contour>
			<point x="1057" y="91" type="line"/>
			<point x="884" y="39" type="line"/>
			<point x="884" y="0" type="line"/>
			<point x="1391" y="0" type="line"/>
			<point x="1391" y="39" type="line"/>
			<point x="1243" y="93" type="line"/>
			<point x="758" y="741" type="line"/>
			<point x="732" y="767" type="line"/>
			<point x="378" y="1249" type="line"/>
			<point x="551" y="1301" type="line"/>
			<point x="551" y="1340" type="line"/>
			<point x="44" y="1340" type="line"/>
			<point x="44" y="1301" type="line"/>
			<point x="192" y="1247" type="line"/>
			<point x="631" y="652" type="line"/>
			<point x="656" y="627" type="line"/>
		</contour>
	</outline>
	<anchor name="UCtop" x="700" y="1340"/>
	<anchor name="bottom" x="700" y="0"/>
</glyph>
<glyph name="Y" format="2">
	<unicode hex="0059"/>
	<advance width="1327"/>
	<outline>
		<contour>
			<point x="137" y="1247" type="line"/>
			<point x="606" y="581" type="line"/>
			<point x="606" y="91" type="line"/>
			<point x="448" y="39" type="line"/>
			<point x="448" y="0" type="line"/>
			<point x="924" y="0" type="line"/>
			<point x="924" y="39" type="line"/>
			<point x="766" y="91" type="line"/>
			<point x="766" y="588" type="line"/>
			<point x="1164" y="1249" type="line"/>
			<point x="1317" y="1301" type="line"/>
			<point x="1317" y="1340" type="line"/>
			<point x="889" y="1340" type="line"/>
			<point x="889" y="1301" type="line"/>
			<point x="1052" y="1249" type="line"/>
			<point x="706" y="626" type="line"/>
			<point x="769" y="624" type="line"/>
			<point x="336" y="1249" type="line"/>
			<point x="502" y="1301" type="line"/>
			<point x="502" y="1340" type="line"/>
			<point x="-11" y="1340" type="line"/>
			<point x="-11" y="1301" type="line"/>
		</contour>
	</outline>
	<anchor name="UCtop" x="683" y="1340"/>
	<anchor name="bottom" x="683" y="0"/>
</glyph>
<glyph name="Z" format="2">
	<unicode hex="005A"/>
	<advance width="1243"/>
	<outline>
		<contour>
			<point x="1143" y="1340" type="line"/>
			<point x="282" y="1340" type="line"/>
			<point x="163" y="1399" type="line"/>
			<point x="142" y="1399" type="line"/>
			<point x="68" y="968" type="line"/>
			<point x="110" y="957" type="line"/>
			<point x="283" y="1246" type="line"/>
			<point x="951" y="1246" type="line"/>
			<point x="938" y="1271" type="line"/>
			<point x="103" y="20" type="line"/>
			<point x="103" y="0" type="line"/>
			<point x="996" y="0" type="line"/>
			<point x="1108" y="-49" type="line"/>
			<point x="1124" y="-49" type="line"/>
			<point x="1185" y="345" type="line"/>
			<point x="1141" y="353" type="line"/>
			<point x="1002" y="94" type="line"/>
			<point x="289" y="94" type="line"/>
			<point x="302" y="69" type="line"/>
			<point x="1143" y="1320" type="line"/>
		</contour>
	</outline>
	<anchor name="UCtop" x="648" y="1340"/>
	<anchor name="bottom" x="644" y="0"/>
</glyph>
<glyph name="bracketleft" format="2">
	<unicode hex="005B"/>
	<advance width="634"/>
	<outline>
		<contour>
			<point x="187" y="-258" type="line"/>
			<point x="605" y="-258" type="line"/>
			<point x="605" y="-188" type="line"/>
			<point x="324" y="-188" type="line"/>
			<point x="324" y="1329" type="line"/>
			<point x="605" y="1329" type="line"/>
			<point x="605" y="1399" type="line"/>
			<point x="187" y="1399" type="line"/>
		</contour>
	</outline>
</glyph>
<glyph name="backslash" format="2">
	<unicode hex="005C"/>
	<advance width="784"/>
	<outline>
		<contour>
			<point x="729" y="0" type="line"/>
			<point x="169" y="1340" type="line"/>
			<point x="56" y="1340" type="line"/>
			<point x="616" y="0" type="line"/>
		</contour>
	</outline>
</glyph>
<glyph name="bracketright" format="2">
	<unicode hex="005D"/>
	<advance width="636"/>
	<outline>
		<contour>
			<point x="449" y="1400" type="line"/>
			<point x="31" y="1400" type="line"/>
			<point x="31" y="1330" type="line"/>
			<point x="312" y="1330" type="line"/>
			<point x="312" y="-187" type="line"/>
			<point x="31" y="-187" type="line"/>
			<point x="31" y="-257" type="line"/>
			<point x="449" y="-257" type="line"/>
		</contour>
	</outline>
</glyph>
<glyph name="asciicircum" format="2">
	<unicode hex="005E"/>
	<advance width="1000"/>
	<outline>
		<contour>
			<point x="495" y="1246" type="line"/>
			<point x="766" y="592" type="line"/>
			<point x="856" y="592" type="line"/>
			<point x="541" y="1340" type="line"/>
			<point x="457" y="1340" type="line"/>
			<point x="144" y="592" type="line"/>
			<point x="234" y="592" type="line"/>
			<point x="503" y="1246" type="line"/>
		</contour>
	</outline>
</glyph>
<glyph name="a" format="2">
	<unicode hex="0061"/>
	<advance width="864"/>
	<outline>
		<contour>
			<point x="602" y="543" type="line"/>
			<point x="182" y="437"/>
			<point x="83" y="345"/>
			<point x="83" y="197" type="curve" smooth="yes"/>
			<point x="83" y="57"/>
			<point x="179" y="-20"/>
			<point x="313" y="-20" type="curve" smooth="yes"/>
			<point x="424" y="-20"/>
			<point x="525" y="59"/>
			<point x="552" y="171" type="curve"/>
			<point x="546" y="161" type="line"/>
			<point x="546" y="50"/>
			<point x="602" y="-18"/>
			<point x="699" y="-18" type="curve" smooth="yes"/>
			<point x="751" y="-18"/>
			<point x="815" y="9"/>
			<point x="870" y="69" type="curve"/>
			<point x="870" y="115" type="line"/>
			<point x="837" y="95"/>
			<point x="800" y="82"/>
			<point x="769" y="82" type="curve" smooth="yes"/>
			<point x="717" y="82"/>
			<point x="690" y="113"/>
			<point x="690" y="175" type="curve" smooth="yes"/>
			<point x="690" y="632" type="line" smooth="yes"/>
			<point x="690" y="781"/>
			<point x="620" y="863"/>
			<point x="446" y="863" type="curve" smooth="yes"/>
			<point x="276" y="863"/>
			<point x="96" y="746"/>
			<point x="96" y="664" type="curve" smooth="yes"/>
			<point x="96" y="634"/>
			<point x="121" y="613"/>
			<point x="163" y="613" type="curve" smooth="yes"/>
			<point x="195" y="613"/>
			<point x="229" y="623"/>
			<point x="251" y="646" type="curve" smooth="yes"/>
			<point x="273" y="669"/>
			<point x="284" y="730"/>
			<point x="291" y="786" type="curve"/>
			<point x="240" y="740" type="line"/>
			<point x="289" y="765"/>
			<point x="345" y="778"/>
			<point x="385" y="778" type="curve" smooth="yes"/>
			<point x="498" y="778"/>
			<point x="544" y="716"/>
			<point x="544" y="620" type="curve" smooth="yes"/>
			<point x="544" y="260" type="line" smooth="yes"/>
			<point x="544" y="169"/>
			<point x="466" y="89"/>
			<point x="372" y="89" type="curve" smooth="yes"/>
			<point x="295" y="89"/>
			<point x="233" y="138"/>
			<point x="233" y="229" type="curve" smooth="yes"/>
			<point x="233" y="332"/>
			<point x="304" y="400"/>
			<point x="618" y="473" type="curve"/>
		</contour>
	</outline>
	<anchor name="top" x="404" y="852"/>
	<anchor name="right" x="870" y="0"/>
	<anchor name="bottom" x="463" y="0"/>
</glyph>
<glyph name="b" format="2">
	<unicode hex="0062"/>
	<advance width="1046"/>
	<outline>
		<contour>
			<point x="207" y="57" type="line"/>
			<point x="319" y="2"/>
			<point x="405" y="-20"/>
			<point x="490" y="-20" type="curve" smooth="yes"/>
			<point x="767" y="-20"/>
			<point x="970" y="176"/>
			<point x="970" y="470" type="curve" smooth="yes"/>
			<point x="970" y="707"/>
			<point x="836" y="872"/>
			<point x="585" y="872" type="curve" smooth="yes"/>
			<point x="485" y="872"/>
			<point x="370" y="831"/>
			<point x="226" y="744" type="curve"/>
			<point x="226" y="673" type="line"/>
			<point x="304" y="734"/>
			<point x="402" y="764"/>
			<point x="521" y="764" type="curve" smooth="yes"/>
			<point x="687" y="764"/>
			<point x="801" y="642"/>
			<point x="801" y="422" type="curve" smooth="yes"/>
			<point x="801" y="203"/>
			<point x="702" y="63"/>
			<point x="533" y="63" type="curve" smooth="yes"/>
			<point x="383" y="63"/>
			<point x="291" y="147"/>
			<point x="291" y="256" type="curve" smooth="yes"/>
			<point x="291" y="1259" type="line"/>
			<point x="301" y="1419" type="line"/>
			<point x="281" y="1419" type="line"/>
			<point x="-9" y="1335" type="line"/>
			<point x="-9" y="1315" type="line"/>
			<point x="69" y="1282"/>
			<point x="119" y="1249"/>
			<point x="145" y="1218" type="curve"/>
			<point x="145" y="205" type="line"/>
			<point x="123" y="-4" type="line"/>
			<point x="155" y="-16" type="line"/>
			<point x="312" y="57" type="line"/>
		</contour>
	</outline>
	<anchor name="UCtop" x="481" y="1470"/>
	<anchor name="bottom" x="481" y="0"/>
</glyph>
<glyph name="c" format="2">
	<unicode hex="0063"/>
	<advance width="829"/>
	<outline>
		<contour>
			<point x="546" y="872" type="curve" smooth="yes"/>
			<point x="242" y="872"/>
			<point x="75" y="655"/>
			<point x="75" y="402" type="curve" smooth="yes"/>
			<point x="75" y="161"/>
			<point x="231" y="-20"/>
			<point x="456" y="-20" type="curve" smooth="yes"/>
			<point x="586" y="-20"/>
			<point x="685" y="38"/>
			<point x="781" y="162" type="curve"/>
			<point x="757" y="189" type="line"/>
			<point x="691" y="131"/>
			<point x="621" y="100"/>
			<point x="548" y="100" type="curve" smooth="yes"/>
			<point x="349" y="100"/>
			<point x="223" y="248"/>
			<point x="223" y="485" type="curve" smooth="yes"/>
			<point x="223" y="689"/>
			<point x="338" y="786"/>
			<point x="448" y="786" type="curve" smooth="yes"/>
			<point x="546" y="786"/>
			<point x="578" y="662"/>
			<point x="676" y="662" type="curve" smooth="yes"/>
			<point x="730" y="662"/>
			<point x="768" y="698"/>
			<point x="768" y="755" type="curve" smooth="yes"/>
			<point x="768" y="807"/>
			<point x="710" y="872"/>
		</contour>
	</outline>
	<anchor name="top" x="469" y="852"/>
	<anchor name="right" x="781" y="0"/>
	<anchor name="bottom" x="455" y="0"/>
</glyph>
<glyph name="d" format="2">
	<unicode hex="0064"/>
	<advance width="1062"/>
	<outline>
		<contour>
			<point x="755" y="596" type="curve" smooth="yes"/>
			<point x="755" y="136" type="line"/>
			<point x="769" y="-16" type="line"/>
			<point x="789" y="-16" type="line"/>
			<point x="1028" y="49" type="line"/>
			<point x="1028" y="79" type="line"/>
			<point x="986" y="85"/>
			<point x="925" y="114"/>
			<point x="901" y="140" type="curve"/>
			<point x="901" y="1257" type="line"/>
			<point x="910" y="1419" type="line"/>
			<point x="891" y="1419" type="line"/>
			<point x="627" y="1342" type="line"/>
			<point x="627" y="1324" type="line"/>
			<point x="684" y="1299"/>
			<point x="731" y="1275"/>
			<point x="755" y="1246" type="curve"/>
			<point x="755" y="738" type="line"/>
			<point x="839" y="795" type="line"/>
			<point x="727" y="850"/>
			<point x="641" y="872"/>
			<point x="545" y="872" type="curve" smooth="yes"/>
			<point x="295" y="872"/>
			<point x="76" y="688"/>
			<point x="76" y="382" type="curve" smooth="yes"/>
			<point x="76" y="145"/>
			<point x="210" y="-20"/>
			<point x="461" y="-20" type="curve" smooth="yes"/>
			<point x="557" y="-20"/>
			<point x="619" y="2"/>
			<point x="810" y="118" type="curve"/>
			<point x="810" y="189" type="line"/>
			<point x="720" y="120"/>
			<point x="627" y="88"/>
			<point x="525" y="88" type="curve" smooth="yes"/>
			<point x="359" y="88"/>
			<point x="245" y="210"/>
			<point x="245" y="430" type="curve" smooth="yes"/>
			<point x="245" y="649"/>
			<point x="344" y="789"/>
			<point x="523" y="789" type="curve" smooth="yes"/>
			<point x="675" y="789"/>
			<point x="755" y="707"/>
		</contour>
	</outline>
	<anchor name="right" x="901" y="1399"/>
	<anchor name="UCtop" x="552" y="1470"/>
	<anchor name="bottom" x="552" y="0"/>
	<anchor name="center" x="795" y="1072"/>
</glyph>
<glyph name="e" format="2">
	<unicode hex="0065"/>
	<advance width="879"/>
	<outline>
		<contour>
			<point x="474" y="872" type="curve" smooth="yes"/>
			<point x="225" y="872"/>
			<point x="75" y="665"/>
			<point x="75" y="414" type="curve" smooth="yes"/>
			<point x="75" y="164"/>
			<point x="244" y="-20"/>
			<point x="476" y="-20" type="curve" smooth="yes"/>
			<point x="610" y="-20"/>
			<point x="713" y="38"/>
			<point x="813" y="162" type="curve"/>
			<point x="788" y="189" type="line"/>
			<point x="719" y="131"/>
			<point x="646" y="100"/>
			<point x="571" y="100" type="curve" smooth="yes"/>
			<point x="363" y="100"/>
			<point x="224" y="239"/>
			<point x="224" y="461" type="curve" smooth="yes"/>
			<point x="224" y="674"/>
			<point x="318" y="793"/>
			<point x="459" y="793" type="curve" smooth="yes"/>
			<point x="576" y="793"/>
			<point x="630" y="694"/>
			<point x="644" y="551" type="curve"/>
			<point x="712" y="593" type="line"/>
			<point x="198" y="569" type="line"/>
			<point x="196" y="502" type="line"/>
			<point x="808" y="502" type="line"/>
			<point x="787" y="739"/>
			<point x="668" y="872"/>
		</contour>
	</outline>
	<anchor name="top" x="468" y="852"/>
	<anchor name="right" x="813" y="0"/>
	<anchor name="bottom" x="480" y="0"/>
</glyph>
<glyph name="f" format="2">
	<unicode hex="0066"/>
	<advance width="648"/>
	<outline>
		<contour>
			<point x="248" y="760" type="line"/>
			<point x="609" y="760" type="line"/>
			<point x="627" y="852" type="line"/>
			<point x="270" y="852" type="line"/>
			<point x="223" y="852" type="line"/>
			<point x="39" y="791" type="line"/>
			<point x="39" y="760" type="line"/>
			<point x="209" y="736" type="line"/>
		</contour>
		<contour>
			<point x="355" y="85" type="line"/>
			<point x="355" y="993" type="line" smooth="yes"/>
			<point x="355" y="1241"/>
			<point x="477" y="1322"/>
			<point x="604" y="1322" type="curve" smooth="yes"/>
			<point x="711" y="1322"/>
			<point x="725" y="1230"/>
			<point x="817" y="1230" type="curve" smooth="yes"/>
			<point x="869" y="1230"/>
			<point x="911" y="1267"/>
			<point x="911" y="1321" type="curve" smooth="yes"/>
			<point x="911" y="1373"/>
			<point x="860" y="1419"/>
			<point x="727" y="1419" type="curve" smooth="yes"/>
			<point x="478" y="1419"/>
			<point x="209" y="1270"/>
			<point x="209" y="889" type="curve" smooth="yes"/>
			<point x="209" y="85" type="line"/>
			<point x="57" y="37" type="line"/>
			<point x="57" y="0" type="line"/>
			<point x="526" y="0" type="line"/>
			<point x="526" y="37" type="line"/>
		</contour>
	</outline>
	<anchor name="UCtop" x="525" y="1399"/>
	<anchor name="bottom" x="293" y="0"/>
</glyph>
<glyph name="g" format="2">
	<unicode hex="0067"/>
	<advance width="950"/>
	<outline>
		<contour>
			<point x="423" y="-530" type="curve" smooth="yes"/>
			<point x="717" y="-530"/>
			<point x="898" y="-375"/>
			<point x="898" y="-206" type="curve" smooth="yes"/>
			<point x="898" y="-38"/>
			<point x="745" y="24"/>
			<point x="513" y="40" type="curve" smooth="yes"/>
			<point x="281" y="56"/>
			<point x="254" y="97"/>
			<point x="254" y="160" type="curve" smooth="yes"/>
			<point x="254" y="218"/>
			<point x="294" y="255"/>
			<point x="366" y="264" type="curve"/>
			<point x="341" y="282" type="line"/>
			<point x="198" y="253"/>
			<point x="108" y="188"/>
			<point x="108" y="98" type="curve" smooth="yes"/>
			<point x="108" y="2"/>
			<point x="168" y="-83"/>
			<point x="418" y="-98" type="curve" smooth="yes"/>
			<point x="668" y="-113"/>
			<point x="756" y="-152"/>
			<point x="756" y="-255" type="curve" smooth="yes"/>
			<point x="756" y="-366"/>
			<point x="629" y="-460"/>
			<point x="443" y="-460" type="curve" smooth="yes"/>
			<point x="251" y="-460"/>
			<point x="165" y="-394"/>
			<point x="165" y="-283" type="curve" smooth="yes"/>
			<point x="165" y="-185"/>
			<point x="228" y="-109"/>
			<point x="435" y="-74" type="curve"/>
			<point x="435" y="-50" type="line"/>
			<point x="384" y="-50" type="line"/>
			<point x="129" y="-103"/>
			<point x="20" y="-188"/>
			<point x="20" y="-295" type="curve" smooth="yes"/>
			<point x="20" y="-446"/>
			<point x="169" y="-530"/>
		</contour>
		<contour>
			<point x="429" y="244" type="curve" smooth="yes"/>
			<point x="626" y="244"/>
			<point x="780" y="374"/>
			<point x="780" y="559" type="curve" smooth="yes"/>
			<point x="780" y="740"/>
			<point x="626" y="872"/>
			<point x="429" y="872" type="curve" smooth="yes"/>
			<point x="232" y="872"/>
			<point x="78" y="742"/>
			<point x="78" y="557" type="curve" smooth="yes"/>
			<point x="78" y="376"/>
			<point x="232" y="244"/>
		</contour>
		<contour>
			<point x="437" y="311" type="curve" smooth="yes"/>
			<point x="317" y="311"/>
			<point x="238" y="409"/>
			<point x="238" y="567" type="curve" smooth="yes"/>
			<point x="238" y="717"/>
			<point x="307" y="805"/>
			<point x="421" y="805" type="curve" smooth="yes"/>
			<point x="541" y="805"/>
			<point x="620" y="707"/>
			<point x="620" y="549" type="curve" smooth="yes"/>
			<point x="620" y="399"/>
			<point x="551" y="311"/>
		</contour>
		<contour>
			<point x="552" y="801" type="line"/>
			<point x="758" y="803"/>
			<point x="801" y="707"/>
			<point x="875" y="707" type="curve" smooth="yes"/>
			<point x="922" y="707"/>
			<point x="960" y="745"/>
			<point x="960" y="795" type="curve" smooth="yes"/>
			<point x="960" y="847"/>
			<point x="934" y="872"/>
			<point x="888" y="872" type="curve" smooth="yes"/>
			<point x="796" y="872"/>
			<point x="693" y="830"/>
			<point x="520" y="858" type="curve"/>
		</contour>
	</outline>
	<anchor name="top" x="435" y="852"/>
	<anchor name="bottom" x="435" y="-530"/>
</glyph>
<glyph name="h" format="2">
	<unicode hex="0068"/>
	<advance width="1073"/>
	<outline>
		<contour>
			<point x="602" y="37" type="line"/>
			<point x="602" y="0" type="line"/>
			<point x="1057" y="0" type="line"/>
			<point x="1057" y="37" type="line"/>
			<point x="903" y="85" type="line"/>
			<point x="903" y="549" type="line" smooth="yes"/>
			<point x="903" y="773"/>
			<point x="826" y="872"/>
			<point x="665" y="872" type="curve" smooth="yes"/>
			<point x="523" y="872"/>
			<point x="418" y="818"/>
			<point x="277" y="666" type="curve"/>
			<point x="316" y="634" type="line"/>
			<point x="350" y="688"/>
			<point x="450" y="734"/>
			<point x="556" y="734" type="curve" smooth="yes"/>
			<point x="686" y="734"/>
			<point x="757" y="665"/>
			<point x="757" y="558" type="curve" smooth="yes"/>
			<point x="757" y="85" type="line"/>
		</contour>
		<contour>
			<point x="481" y="0" type="line"/>
			<point x="481" y="37" type="line"/>
			<point x="326" y="85" type="line"/>
			<point x="326" y="1259" type="line"/>
			<point x="336" y="1419" type="line"/>
			<point x="316" y="1419" type="line"/>
			<point x="26" y="1335" type="line"/>
			<point x="26" y="1315" type="line"/>
			<point x="104" y="1282"/>
			<point x="154" y="1249"/>
			<point x="180" y="1218" type="curve"/>
			<point x="180" y="85" type="line"/>
			<point x="28" y="37" type="line"/>
			<point x="28" y="0" type="line"/>
		</contour>
	</outline>
	<anchor name="UCtop" x="547" y="1399"/>
	<anchor name="bottom" x="541" y="0"/>
	<anchor name="center" x="286" y="1072"/>
</glyph>
<glyph name="i" format="2">
	<unicode hex="0069"/>
	<advance width="534"/>
	<outline>
		<contour>
			<point x="267" y="1181" type="curve" smooth="yes"/>
			<point x="338" y="1181"/>
			<point x="387" y="1233"/>
			<point x="387" y="1300" type="curve" smooth="yes"/>
			<point x="387" y="1367"/>
			<point x="338" y="1419"/>
			<point x="267" y="1419" type="curve" smooth="yes"/>
			<point x="196" y="1419"/>
			<point x="147" y="1367"/>
			<point x="147" y="1300" type="curve" smooth="yes"/>
			<point x="147" y="1233"/>
			<point x="196" y="1181"/>
		</contour>
		<contour>
			<point x="356" y="872" type="line"/>
			<point x="338" y="872" type="line"/>
			<point x="56" y="795" type="line"/>
			<point x="56" y="764" type="line"/>
			<point x="117" y="745"/>
			<point x="182" y="710"/>
			<point x="204" y="686" type="curve"/>
			<point x="204" y="85" type="line"/>
			<point x="52" y="37" type="line"/>
			<point x="52" y="0" type="line"/>
			<point x="505" y="0" type="line"/>
			<point x="505" y="37" type="line"/>
			<point x="350" y="85" type="line"/>
			<point x="350" y="710" type="line"/>
		</contour>
	</outline>
	<anchor name="top" x="265" y="1399"/>
	<anchor name="bottom" x="278" y="0"/>
	<anchor name="right" x="455" y="0"/>
</glyph>
<glyph name="j" format="2">
	<unicode hex="006A"/>
	<advance width="469"/>
	<outline>
		<contour>
			<point x="244" y="1181" type="curve" smooth="yes"/>
			<point x="315" y="1181"/>
			<point x="364" y="1233"/>
			<point x="364" y="1300" type="curve" smooth="yes"/>
			<point x="364" y="1367"/>
			<point x="315" y="1419"/>
			<point x="244" y="1419" type="curve" smooth="yes"/>
			<point x="173" y="1419"/>
			<point x="124" y="1367"/>
			<point x="124" y="1300" type="curve" smooth="yes"/>
			<point x="124" y="1233"/>
			<point x="173" y="1181"/>
		</contour>
		<contour>
			<point x="181" y="686" type="curve"/>
			<point x="181" y="-154" type="line" smooth="yes"/>
			<point x="181" y="-271"/>
			<point x="160" y="-323"/>
			<point x="8" y="-478" type="curve"/>
			<point x="55" y="-530" type="line"/>
			<point x="306" y="-323"/>
			<point x="327" y="-294"/>
			<point x="327" y="-106" type="curve" smooth="yes"/>
			<point x="327" y="710" type="line"/>
			<point x="333" y="872" type="line"/>
			<point x="315" y="872" type="line"/>
			<point x="33" y="795" type="line"/>
			<point x="33" y="764" type="line"/>
			<point x="94" y="745"/>
			<point x="159" y="710"/>
		</contour>
	</outline>
	<anchor name="top" x="244" y="1399"/>
	<anchor name="bottom" x="244" y="-510"/>
</glyph>
<glyph name="k" format="2">
	<unicode hex="006B"/>
	<advance width="1032"/>
	<outline>
		<contour>
			<point x="530" y="469" type="line"/>
			<point x="833" y="772" type="line"/>
			<point x="961" y="809" type="line"/>
			<point x="961" y="852" type="line"/>
			<point x="594" y="852" type="line"/>
			<point x="594" y="809" type="line"/>
			<point x="724" y="772" type="line"/>
			<point x="469" y="509" type="line"/>
			<point x="299" y="509" type="line"/>
			<point x="299" y="429" type="line"/>
			<point x="431" y="429" type="line"/>
			<point x="740" y="79" type="line"/>
			<point x="623" y="37" type="line"/>
			<point x="623" y="0" type="line"/>
			<point x="1044" y="0" type="line"/>
			<point x="1044" y="37" type="line"/>
			<point x="920" y="84" type="line"/>
			<point x="545" y="510" type="line"/>
		</contour>
		<contour>
			<point x="326" y="85" type="line"/>
			<point x="326" y="1259" type="line"/>
			<point x="336" y="1419" type="line"/>
			<point x="316" y="1419" type="line"/>
			<point x="26" y="1335" type="line"/>
			<point x="26" y="1315" type="line"/>
			<point x="104" y="1282"/>
			<point x="154" y="1249"/>
			<point x="180" y="1218" type="curve"/>
			<point x="180" y="85" type="line"/>
			<point x="28" y="37" type="line"/>
			<point x="28" y="0" type="line"/>
			<point x="481" y="0" type="line"/>
			<point x="481" y="37" type="line"/>
		</contour>
	</outline>
	<anchor name="bottom" x="535" y="0"/>
	<anchor name="UCtop" x="535" y="1399"/>
</glyph>
<glyph name="l" format="2">
	<unicode hex="006C"/>
	<advance width="513"/>
	<outline>
		<contour>
			<point x="329" y="85" type="line"/>
			<point x="329" y="1259" type="line"/>
			<point x="339" y="1419" type="line"/>
			<point x="319" y="1419" type="line"/>
			<point x="29" y="1335" type="line"/>
			<point x="29" y="1315" type="line"/>
			<point x="107" y="1282"/>
			<point x="157" y="1249"/>
			<point x="183" y="1218" type="curve"/>
			<point x="183" y="85" type="line"/>
			<point x="31" y="37" type="line"/>
			<point x="31" y="0" type="line"/>
			<point x="484" y="0" type="line"/>
			<point x="484" y="37" type="line"/>
		</contour>
	</outline>
	<anchor name="UCtop" x="243" y="1399"/>
	<anchor name="right" x="329" y="1399"/>
	<anchor name="bottom" x="256" y="0"/>
	<anchor name="mid" x="514" y="546"/>
</glyph>
<glyph name="m" format="2">
	<unicode hex="006D"/>
	<advance width="1591"/>
	<outline>
		<contour>
			<point x="348" y="689" type="line"/>
			<point x="318" y="872" type="line"/>
			<point x="297" y="872" type="line"/>
			<point x="54" y="770" type="line"/>
			<point x="54" y="745" type="line"/>
			<point x="145" y="715"/>
			<point x="180" y="696"/>
			<point x="202" y="674" type="curve"/>
			<point x="202" y="85" type="line"/>
			<point x="50" y="37" type="line"/>
			<point x="50" y="0" type="line"/>
			<point x="493" y="0" type="line"/>
			<point x="493" y="37" type="line"/>
			<point x="348" y="85" type="line"/>
		</contour>
		<contour>
			<point x="884" y="634" type="line" smooth="yes"/>
			<point x="884" y="751"/>
			<point x="822" y="872"/>
			<point x="661" y="872" type="curve" smooth="yes"/>
			<point x="528" y="872"/>
			<point x="430" y="821"/>
			<point x="298" y="679" type="curve"/>
			<point x="335" y="642" type="line"/>
			<point x="367" y="695"/>
			<point x="463" y="734"/>
			<point x="554" y="734" type="curve" smooth="yes"/>
			<point x="662" y="734"/>
			<point x="738" y="680"/>
			<point x="738" y="572" type="curve" smooth="yes"/>
			<point x="738" y="85" type="line"/>
			<point x="593" y="37" type="line"/>
			<point x="593" y="0" type="line"/>
			<point x="1028" y="0" type="line"/>
			<point x="1028" y="37" type="line"/>
			<point x="884" y="85" type="line"/>
		</contour>
		<contour>
			<point x="1420" y="575" type="line" smooth="yes"/>
			<point x="1420" y="764"/>
			<point x="1356" y="872"/>
			<point x="1197" y="872" type="curve" smooth="yes"/>
			<point x="1064" y="872"/>
			<point x="966" y="821"/>
			<point x="834" y="679" type="curve"/>
			<point x="871" y="642" type="line"/>
			<point x="903" y="695"/>
			<point x="999" y="734"/>
			<point x="1090" y="734" type="curve" smooth="yes"/>
			<point x="1197" y="734"/>
			<point x="1274" y="681"/>
			<point x="1274" y="572" type="curve" smooth="yes"/>
			<point x="1274" y="85" type="line"/>
			<point x="1129" y="37" type="line"/>
			<point x="1129" y="0" type="line"/>
			<point x="1574" y="0" type="line"/>
			<point x="1574" y="37" type="line"/>
			<point x="1420" y="85" type="line"/>
		</contour>
	</outline>
	<anchor name="top" x="811" y="852"/>
	<anchor name="bottom" x="811" y="0"/>
</glyph>
<glyph name="o" format="2">
	<unicode hex="006F"/>
	<advance width="1009"/>
	<outline>
		<contour>
			<point x="508" y="57" type="curve" smooth="yes"/>
			<point x="347" y="57"/>
			<point x="240" y="195"/>
			<point x="240" y="450" type="curve" smooth="yes"/>
			<point x="240" y="688"/>
			<point x="351" y="795"/>
			<point x="501" y="795" type="curve" smooth="yes"/>
			<point x="662" y="795"/>
			<point x="769" y="657"/>
			<point x="769" y="402" type="curve" smooth="yes"/>
			<point x="769" y="164"/>
			<point x="658" y="57"/>
		</contour>
		<contour>
			<point x="502" y="-20" type="curve" smooth="yes"/>
			<point x="750" y="-20"/>
			<point x="934" y="172"/>
			<point x="934" y="436" type="curve" smooth="yes"/>
			<point x="934" y="693"/>
			<point x="760" y="872"/>
			<point x="507" y="872" type="curve" smooth="yes"/>
			<point x="259" y="872"/>
			<point x="75" y="680"/>
			<point x="75" y="416" type="curve" smooth="yes"/>
			<point x="75" y="159"/>
			<point x="249" y="-20"/>
		</contour>
	</outline>
	<anchor name="top" x="505" y="852"/>
	<anchor name="bottom" x="505" y="0"/>
	<anchor name="horn" x="646" y="852"/>
	<anchor name="right" x="714" y="0"/>
</glyph>
<glyph name="p" format="2">
	<unicode hex="0070"/>
	<advance width="1081"/>
	<outline>
		<contour>
			<point x="836" y="422" type="curve" smooth="yes"/>
			<point x="836" y="203"/>
			<point x="737" y="63"/>
			<point x="568" y="63" type="curve" smooth="yes"/>
			<point x="420" y="63"/>
			<point x="326" y="145"/>
			<point x="326" y="256" type="curve" smooth="yes"/>
			<point x="326" y="749" type="line"/>
			<point x="296" y="872" type="line"/>
			<point x="275" y="872" type="line"/>
			<point x="32" y="770" type="line"/>
			<point x="32" y="745" type="line"/>
			<point x="106" y="720"/>
			<point x="154" y="701"/>
			<point x="180" y="674" type="curve"/>
			<point x="180" y="-425" type="line"/>
			<point x="28" y="-473" type="line"/>
			<point x="28" y="-510" type="line"/>
			<point x="496" y="-510" type="line"/>
			<point x="496" y="-473" type="line"/>
			<point x="326" y="-425" type="line"/>
			<point x="326" y="57" type="line"/>
			<point x="242" y="57" type="line"/>
			<point x="354" y="2"/>
			<point x="440" y="-20"/>
			<point x="536" y="-20" type="curve" smooth="yes"/>
			<point x="789" y="-20"/>
			<point x="1005" y="167"/>
			<point x="1005" y="470" type="curve" smooth="yes"/>
			<point x="1005" y="707"/>
			<point x="871" y="872"/>
			<point x="620" y="872" type="curve" smooth="yes"/>
			<point x="531" y="872"/>
			<point x="410" y="836"/>
			<point x="261" y="744" type="curve"/>
			<point x="261" y="673" type="line"/>
			<point x="340" y="734"/>
			<point x="440" y="764"/>
			<point x="556" y="764" type="curve" smooth="yes"/>
			<point x="722" y="764"/>
			<point x="836" y="642"/>
		</contour>
	</outline>
	<anchor name="top" x="537" y="852"/>
	<anchor name="bottom" x="267" y="-510"/>
</glyph>
<glyph name="q" format="2">
	<unicode hex="0071"/>
	<advance width="1044"/>
	<outline>
		<contour>
			<point x="245" y="430" type="curve" smooth="yes"/>
			<point x="245" y="649"/>
			<point x="344" y="789"/>
			<point x="513" y="789" type="curve" smooth="yes"/>
			<point x="663" y="789"/>
			<point x="755" y="705"/>
			<point x="755" y="596" type="curve" smooth="yes"/>
			<point x="755" y="-425" type="line"/>
			<point x="585" y="-473" type="line"/>
			<point x="585" y="-510" type="line"/>
			<point x="1053" y="-510" type="line"/>
			<point x="1053" y="-473" type="line"/>
			<point x="901" y="-425" type="line"/>
			<point x="901" y="647" type="line"/>
			<point x="923" y="856" type="line"/>
			<point x="891" y="868" type="line"/>
			<point x="734" y="795" type="line"/>
			<point x="839" y="795" type="line"/>
			<point x="727" y="850"/>
			<point x="641" y="872"/>
			<point x="556" y="872" type="curve" smooth="yes"/>
			<point x="279" y="872"/>
			<point x="76" y="676"/>
			<point x="76" y="382" type="curve" smooth="yes"/>
			<point x="76" y="145"/>
			<point x="210" y="-20"/>
			<point x="461" y="-20" type="curve" smooth="yes"/>
			<point x="561" y="-20"/>
			<point x="676" y="21"/>
			<point x="820" y="108" type="curve"/>
			<point x="820" y="179" type="line"/>
			<point x="742" y="118"/>
			<point x="644" y="88"/>
			<point x="525" y="88" type="curve" smooth="yes"/>
			<point x="359" y="88"/>
			<point x="245" y="210"/>
		</contour>
	</outline>
	<anchor name="top" x="532" y="852"/>
	<anchor name="bottom" x="824" y="-510"/>
</glyph>
<glyph name="r" format="2">
	<unicode hex="0072"/>
	<advance width="755"/>
	<outline>
		<contour>
			<point x="638" y="865" type="curve" smooth="yes"/>
			<point x="571" y="865"/>
			<point x="464" y="809"/>
			<point x="307" y="693" type="curve"/>
			<point x="329" y="658" type="line"/>
			<point x="368" y="690"/>
			<point x="436" y="711"/>
			<point x="482" y="711" type="curve" smooth="yes"/>
			<point x="540" y="711"/>
			<point x="582" y="678"/>
			<point x="626" y="678" type="curve" smooth="yes"/>
			<point x="694" y="678"/>
			<point x="735" y="718"/>
			<point x="735" y="778" type="curve" smooth="yes"/>
			<point x="735" y="830"/>
			<point x="706" y="865"/>
		</contour>
		<contour>
			<point x="348" y="689" type="line"/>
			<point x="338" y="872" type="line"/>
			<point x="317" y="872" type="line"/>
			<point x="54" y="770" type="line"/>
			<point x="54" y="745" type="line"/>
			<point x="128" y="720"/>
			<point x="176" y="701"/>
			<point x="202" y="674" type="curve"/>
			<point x="202" y="85" type="line"/>
			<point x="50" y="37" type="line"/>
			<point x="50" y="0" type="line"/>
			<point x="503" y="0" type="line"/>
			<point x="503" y="37" type="line"/>
			<point x="348" y="85" type="line"/>
		</contour>
	</outline>
	<anchor name="top" x="402" y="852"/>
	<anchor name="bottom" x="275" y="0"/>
</glyph>
<glyph name="s" format="2">
	<unicode hex="0073"/>
	<advance width="707"/>
	<outline>
		<contour>
			<point x="381" y="872" type="curve" smooth="yes"/>
			<point x="221" y="872"/>
			<point x="101" y="785"/>
			<point x="101" y="638" type="curve" smooth="yes"/>
			<point x="101" y="497"/>
			<point x="180" y="436"/>
			<point x="277" y="387" type="curve" smooth="yes"/>
			<point x="374" y="338"/>
			<point x="493" y="307"/>
			<point x="493" y="196" type="curve" smooth="yes"/>
			<point x="493" y="96"/>
			<point x="413" y="45"/>
			<point x="287" y="45" type="curve" smooth="yes"/>
			<point x="242" y="45"/>
			<point x="209" y="49"/>
			<point x="134" y="86" type="curve"/>
			<point x="256" y="8" type="line"/>
			<point x="122" y="257" type="line"/>
			<point x="75" y="257" type="line"/>
			<point x="120" y="16" type="line"/>
			<point x="180" y="-10"/>
			<point x="237" y="-20"/>
			<point x="314" y="-20" type="curve" smooth="yes"/>
			<point x="491" y="-20"/>
			<point x="623" y="70"/>
			<point x="623" y="235" type="curve" smooth="yes"/>
			<point x="623" y="392"/>
			<point x="514" y="452"/>
			<point x="414" y="498" type="curve" smooth="yes"/>
			<point x="314" y="544"/>
			<point x="222" y="579"/>
			<point x="222" y="677" type="curve" smooth="yes"/>
			<point x="222" y="755"/>
			<point x="284" y="802"/>
			<point x="384" y="802" type="curve" smooth="yes"/>
			<point x="438" y="802"/>
			<point x="479" y="783"/>
			<point x="529" y="744" type="curve"/>
			<point x="461" y="828" type="line"/>
			<point x="559" y="585" type="line"/>
			<point x="602" y="585" type="line"/>
			<point x="587" y="821" type="line"/>
			<point x="509" y="859"/>
			<point x="455" y="872"/>
		</contour>
	</outline>
	<anchor name="top" x="360" y="852"/>
	<anchor name="bottom" x="364" y="0"/>
</glyph>
<glyph name="t" format="2">
	<unicode hex="0074"/>
	<advance width="643"/>
	<outline>
		<contour>
			<point x="306" y="240" type="curve" smooth="yes"/>
			<point x="306" y="822" type="line"/>
			<point x="306" y="983" type="line"/>
			<point x="275" y="983" type="line"/>
			<point x="195" y="919"/>
			<point x="125" y="865"/>
			<point x="52" y="810" type="curve"/>
			<point x="52" y="792" type="line"/>
			<point x="160" y="717" type="line"/>
			<point x="160" y="201" type="line" smooth="yes"/>
			<point x="160" y="59"/>
			<point x="245" y="-16"/>
			<point x="378" y="-16" type="curve" smooth="yes"/>
			<point x="445" y="-16"/>
			<point x="511" y="5"/>
			<point x="627" y="87" type="curve"/>
			<point x="627" y="134" type="line"/>
			<point x="563" y="115"/>
			<point x="508" y="106"/>
			<point x="462" y="106" type="curve" smooth="yes"/>
			<point x="362" y="106"/>
			<point x="306" y="150"/>
		</contour>
		<contour>
			<point x="249" y="760" type="line"/>
			<point x="582" y="760" type="line"/>
			<point x="598" y="852" type="line"/>
			<point x="249" y="852" type="line"/>
		</contour>
	</outline>
	<anchor name="bottom" x="367" y="0"/>
	<anchor name="right" x="269" y="1318"/>
</glyph>
<glyph name="u" format="2">
	<unicode hex="0075"/>
	<advance width="1023"/>
	<outline>
		<contour>
			<point x="315" y="282" type="curve" smooth="yes"/>
			<point x="315" y="756" type="line"/>
			<point x="324" y="867" type="line"/>
			<point x="27" y="853" type="line"/>
			<point x="27" y="814" type="line"/>
			<point x="169" y="754" type="line"/>
			<point x="169" y="286" type="line" smooth="yes"/>
			<point x="169" y="82"/>
			<point x="243" y="-20"/>
			<point x="403" y="-20" type="curve" smooth="yes"/>
			<point x="535" y="-20"/>
			<point x="624" y="30"/>
			<point x="758" y="173" type="curve"/>
			<point x="720" y="211" type="line"/>
			<point x="686" y="158"/>
			<point x="590" y="119"/>
			<point x="500" y="119" type="curve" smooth="yes"/>
			<point x="357" y="119"/>
			<point x="315" y="160"/>
		</contour>
		<contour>
			<point x="722" y="-16" type="line"/>
			<point x="742" y="-16" type="line"/>
			<point x="981" y="49" type="line"/>
			<point x="981" y="79" type="line"/>
			<point x="939" y="85"/>
			<point x="878" y="114"/>
			<point x="854" y="140" type="curve"/>
			<point x="854" y="756" type="line"/>
			<point x="864" y="867" type="line"/>
			<point x="565" y="853" type="line"/>
			<point x="565" y="814" type="line"/>
			<point x="707" y="754" type="line"/>
			<point x="707" y="166" type="line"/>
		</contour>
	</outline>
	<anchor name="top" x="498" y="852"/>
	<anchor name="right" x="981" y="0"/>
	<anchor name="bottom" x="518" y="0"/>
	<anchor name="horn" x="754" y="849"/>
</glyph>
<glyph name="v" format="2">
	<unicode hex="0076"/>
	<advance width="995"/>
	<outline>
		<contour>
			<point x="858" y="772" type="line"/>
			<point x="965" y="809" type="line"/>
			<point x="965" y="852" type="line"/>
			<point x="646" y="852" type="line"/>
			<point x="646" y="809" type="line"/>
			<point x="776" y="772" type="line"/>
			<point x="544" y="170" type="line"/>
			<point x="559" y="170" type="line"/>
			<point x="276" y="767" type="line"/>
			<point x="406" y="809" type="line"/>
			<point x="406" y="852" type="line"/>
			<point x="-5" y="852" type="line"/>
			<point x="-5" y="809" type="line"/>
			<point x="119" y="762" type="line"/>
			<point x="489" y="-20" type="line"/>
			<point x="537" y="-20" type="line"/>
		</contour>
	</outline>
	<anchor name="top" x="508" y="852"/>
	<anchor name="bottom" x="502" y="0"/>
</glyph>
<glyph name="w" format="2">
	<unicode hex="0077"/>
	<advance width="1428"/>
	<outline>
		<contour>
			<point x="1216" y="772" type="line"/>
			<point x="1033" y="170" type="line"/>
			<point x="1070" y="170" type="line"/>
			<point x="770" y="872" type="line"/>
			<point x="736" y="872" type="line"/>
			<point x="444" y="170" type="line"/>
			<point x="481" y="170" type="line"/>
			<point x="281" y="767" type="line"/>
			<point x="411" y="809" type="line"/>
			<point x="411" y="852" type="line"/>
			<point x="5" y="852" type="line"/>
			<point x="5" y="809" type="line"/>
			<point x="129" y="762" type="line"/>
			<point x="394" y="-20" type="line"/>
			<point x="442" y="-20" type="line"/>
			<point x="734" y="678" type="line"/>
			<point x="697" y="678" type="line"/>
			<point x="994" y="-20" type="line"/>
			<point x="1042" y="-20" type="line"/>
			<point x="1298" y="772" type="line"/>
			<point x="1405" y="809" type="line"/>
			<point x="1405" y="852" type="line"/>
			<point x="1086" y="852" type="line"/>
			<point x="1086" y="809" type="line"/>
		</contour>
	</outline>
	<anchor name="top" x="741" y="852"/>
	<anchor name="bottom" x="741" y="0"/>
</glyph>
<glyph name="x" format="2">
  <advance width="965"/>
  <unicode hex="0078"/>
  <guideline x="2.0" y="43" angle="175.6012946450045" identifier="MkXev2Htsf"/>
  <guideline x="902.0" y="43" angle="175.6012946450045" identifier="symUqZEF9f"/>
  <guideline x="805.0" y="772" angle="176.4767719179037" identifier="TjlRd9AlK0"/>
  <anchor x="491.0" y="852.0" name="top"/>
  <anchor x="491.0" y="0" name="bottom"/>
  <outline>
    <contour>
      <point x="826.0" y="90.0" type="line"/>
      <point x="536.0" y="476.0" type="line"/>
      <point x="511.0" y="503.0" type="line"/>
      <point x="315.0" y="767.0" type="line"/>
      <point x="438.0" y="809.0" type="line"/>
      <point x="438.0" y="852.0" type="line"/>
      <point x="34.0" y="852.0" type="line"/>
      <point x="34.0" y="809.0" type="line"/>
      <point x="158.0" y="762.0" type="line"/>
      <point x="429.0" y="399.0" type="line"/>
      <point x="452.0" y="374.0" type="line"/>
      <point x="669.0" y="85.0" type="line"/>
      <point x="546.0" y="43.0" type="line"/>
      <point x="546.0" y="0.0" type="line"/>
      <point x="950.0" y="0.0" type="line"/>
      <point x="950.0" y="43.0" type="line"/>
    </contour>
    <contour>
      <point x="486.0" y="396.0" type="line"/>
      <point x="522.0" y="428.0" type="line"/>
      <point x="815.0" y="772.0" type="line"/>
      <point x="922.0" y="809.0" type="line"/>
      <point x="922.0" y="852.0" type="line"/>
      <point x="603.0" y="852.0" type="line"/>
      <point x="603.0" y="809.0" type="line"/>
      <point x="719.0" y="772.0" type="line"/>
      <point x="481.0" y="483.0" type="line"/>
      <point x="444.0" y="451.0" type="line"/>
      <point x="128.0" y="80.0" type="line"/>
      <point x="22.0" y="43.0" type="line"/>
      <point x="22.0" y="0.0" type="line"/>
      <point x="345.0" y="0.0" type="line"/>
      <point x="345.0" y="43.0" type="line"/>
      <point x="225.0" y="80.0" type="line"/>
    </contour>
  </outline>
</glyph>
<glyph name="y" format="2">
	<unicode hex="0079"/>
	<advance width="998"/>
	<outline>
		<contour>
			<point x="574" y="147" type="line"/>
			<point x="290" y="767" type="line"/>
			<point x="420" y="809" type="line"/>
			<point x="420" y="852" type="line"/>
			<point x="9" y="852" type="line"/>
			<point x="9" y="809" type="line"/>
			<point x="133" y="762" type="line"/>
			<point x="498" y="-37" type="line"/>
		</contour>
		<contour>
			<point x="220" y="-530" type="curve" smooth="yes"/>
			<point x="328" y="-530"/>
			<point x="402" y="-461"/>
			<point x="494" y="-220" type="curve" smooth="yes"/>
			<point x="874" y="772" type="line"/>
			<point x="979" y="809" type="line"/>
			<point x="979" y="852" type="line"/>
			<point x="656" y="852" type="line"/>
			<point x="656" y="809" type="line"/>
			<point x="787" y="772" type="line"/>
			<point x="563" y="163" type="line"/>
			<point x="515" y="34" type="line"/>
			<point x="398" y="-264" type="line" smooth="yes"/>
			<point x="364" y="-351"/>
			<point x="332" y="-372"/>
			<point x="290" y="-372" type="curve" smooth="yes"/>
			<point x="245" y="-372"/>
			<point x="219" y="-336"/>
			<point x="178" y="-336" type="curve" smooth="yes"/>
			<point x="137" y="-336"/>
			<point x="101" y="-373"/>
			<point x="101" y="-424" type="curve" smooth="yes"/>
			<point x="101" y="-490"/>
			<point x="152" y="-530"/>
		</contour>
	</outline>
	<anchor name="top" x="528" y="852"/>
	<anchor name="bottom" x="666" y="-156"/>
</glyph>
<glyph name="z" format="2">
	<unicode hex="007A"/>
	<advance width="817"/>
	<outline>
		<contour>
			<point x="64" y="0" type="line"/>
			<point x="709" y="0" type="line"/>
			<point x="773" y="269" type="line"/>
			<point x="727" y="269" type="line"/>
			<point x="578" y="32" type="line"/>
			<point x="631" y="80" type="line"/>
			<point x="201" y="80" type="line"/>
			<point x="233" y="40" type="line"/>
			<point x="753" y="828" type="line"/>
			<point x="753" y="852" type="line"/>
			<point x="216" y="852" type="line"/>
			<point x="146" y="872" type="line"/>
			<point x="114" y="872" type="line"/>
			<point x="74" y="585" type="line"/>
			<point x="116" y="585" type="line"/>
			<point x="252" y="826" type="line"/>
			<point x="151" y="772" type="line"/>
			<point x="626" y="772" type="line"/>
			<point x="580" y="810" type="line"/>
			<point x="64" y="24" type="line"/>
		</contour>
	</outline>
	<anchor name="top" x="445" y="852"/>
	<anchor name="bottom" x="428" y="0"/>
</glyph>
<glyph name="braceleft" format="2">
	<unicode hex="007B"/>
	<advance width="618"/>
	<outline>
		<contour>
			<point x="25" y="534" type="line"/>
			<point x="116" y="531" type="line" smooth="yes"/>
			<point x="209" y="528"/>
			<point x="256" y="489"/>
			<point x="256" y="405" type="curve" smooth="yes"/>
			<point x="256" y="241"/>
			<point x="206" y="142"/>
			<point x="206" y="24" type="curve" smooth="yes"/>
			<point x="206" y="-111"/>
			<point x="310.8653761272" y="-245.4865376127"/>
			<point x="496" y="-264" type="curve" smooth="yes"/>
			<point x="576" y="-272" type="line"/>
			<point x="583" y="-211" type="line"/>
			<point x="520" y="-203" type="line" smooth="yes"/>
			<point x="391" y="-187"/>
			<point x="353" y="-106"/>
			<point x="353" y="-8" type="curve" smooth="yes"/>
			<point x="353" y="100"/>
			<point x="387" y="216"/>
			<point x="387" y="354" type="curve" smooth="yes"/>
			<point x="387" y="442"/>
			<point x="328" y="542"/>
			<point x="193" y="579" type="curve"/>
			<point x="193" y="559" type="line"/>
			<point x="328" y="596"/>
			<point x="387" y="696"/>
			<point x="387" y="784" type="curve" smooth="yes"/>
			<point x="387" y="922"/>
			<point x="353" y="1038"/>
			<point x="353" y="1146" type="curve" smooth="yes"/>
			<point x="353" y="1244"/>
			<point x="391" y="1325"/>
			<point x="520" y="1341" type="curve" smooth="yes"/>
			<point x="583" y="1349" type="line"/>
			<point x="576" y="1410" type="line"/>
			<point x="496" y="1402" type="line" smooth="yes"/>
			<point x="310.865986166" y="1383.4865986166"/>
			<point x="206" y="1249"/>
			<point x="206" y="1114" type="curve" smooth="yes"/>
			<point x="206" y="996"/>
			<point x="256" y="897"/>
			<point x="256" y="733" type="curve" smooth="yes"/>
			<point x="256" y="649"/>
			<point x="209" y="610"/>
			<point x="116" y="607" type="curve" smooth="yes"/>
			<point x="25" y="604" type="line"/>
		</contour>
	</outline>
</glyph>
<glyph name="bar" format="2">
	<unicode hex="007C"/>
	<advance width="484"/>
	<outline>
		<contour>
			<point x="188" y="-530" type="line"/>
			<point x="296" y="-530" type="line"/>
			<point x="296" y="1470" type="line"/>
			<point x="188" y="1470" type="line"/>
		</contour>
	</outline>
</glyph>
<glyph name="braceright" format="2">
  <advance width="618"/>
  <unicode hex="007D"/>
  <outline>
    <contour>
      <point x="593.0" y="604.0" type="line"/>
      <point x="502.0" y="607.0" type="line" smooth="yes"/>
      <point x="409.0" y="610.0"/>
      <point x="362.0" y="649.0"/>
      <point x="362.0" y="733.0" type="curve" smooth="yes"/>
      <point x="362.0" y="897.0"/>
      <point x="412.0" y="996.0"/>
      <point x="412.0" y="1114.0" type="curve" smooth="yes"/>
      <point x="412.0" y="1249.0"/>
      <point x="307.0" y="1383.0"/>
      <point x="122.0" y="1402.0" type="curve" smooth="yes"/>
      <point x="42.0" y="1410.0" type="line"/>
      <point x="35.0" y="1349.0" type="line"/>
      <point x="98.0" y="1341.0" type="line" smooth="yes"/>
      <point x="227.0" y="1325.0"/>
      <point x="265.0" y="1244.0"/>
      <point x="265.0" y="1146.0" type="curve" smooth="yes"/>
      <point x="265.0" y="1038.0"/>
      <point x="231.0" y="922.0"/>
      <point x="231.0" y="784.0" type="curve" smooth="yes"/>
      <point x="231.0" y="696.0"/>
      <point x="290.0" y="596.0"/>
      <point x="425.0" y="559.0" type="curve"/>
      <point x="425.0" y="579.0" type="line"/>
      <point x="290.0" y="542.0"/>
      <point x="231.0" y="442.0"/>
      <point x="231.0" y="354.0" type="curve" smooth="yes"/>
      <point x="231.0" y="216.0"/>
      <point x="265.0" y="100.0"/>
      <point x="265.0" y="-8.0" type="curve" smooth="yes"/>
      <point x="265.0" y="-106.0"/>
      <point x="227.0" y="-187.0"/>
      <point x="98.0" y="-203.0" type="curve" smooth="yes"/>
      <point x="35.0" y="-211.0" type="line"/>
      <point x="42.0" y="-272.0" type="line"/>
      <point x="122.0" y="-264.0" type="line" smooth="yes"/>
      <point x="307.0" y="-245.0"/>
      <point x="412.0" y="-111.0"/>
      <point x="412.0" y="24.0" type="curve" smooth="yes"/>
      <point x="412.0" y="142.0"/>
      <point x="362.0" y="241.0"/>
      <point x="362.0" y="405.0" type="curve" smooth="yes"/>
      <point x="362.0" y="489.0"/>
      <point x="409.0" y="528.0"/>
      <point x="502.0" y="531.0" type="curve" smooth="yes"/>
      <point x="593.0" y="534.0" type="line"/>
    </contour>
  </outline>
</glyph>
<glyph name="asciitilde" format="2">
	<unicode hex="007E"/>
	<advance width="1000"/>
	<outline>
		<contour>
			<point x="142" y="335" type="curve"/>
			<point x="230" y="335" type="line"/>
			<point x="235" y="420"/>
			<point x="264" y="461"/>
			<point x="344" y="461" type="curve" smooth="yes"/>
			<point x="455" y="461"/>
			<point x="509" y="328"/>
			<point x="663" y="328" type="curve" smooth="yes"/>
			<point x="766" y="328"/>
			<point x="858" y="373"/>
			<point x="860" y="537" type="curve"/>
			<point x="772" y="537" type="line"/>
			<point x="767" y="452"/>
			<point x="738" y="411"/>
			<point x="658" y="411" type="curve" smooth="yes"/>
			<point x="547" y="411"/>
			<point x="493" y="544"/>
			<point x="339" y="544" type="curve" smooth="yes"/>
			<point x="236" y="544"/>
			<point x="144" y="499"/>
		</contour>
	</outline>
</glyph>
<glyph name="exclamdown" format="2">
	<unicode hex="00A1"/>
	<advance width="470"/>
	<outline>
		<contour>
			<point x="151" y="-471" type="line" smooth="yes"/>
			<point x="150" y="-499"/>
			<point x="192" y="-512"/>
			<point x="234" y="-512" type="curve" smooth="yes"/>
			<point x="276" y="-512"/>
			<point x="318" y="-499"/>
			<point x="317" y="-471" type="curve" smooth="yes"/>
			<point x="313" y="-306" type="line" smooth="yes"/>
			<point x="310" y="-171"/>
			<point x="278" y="100"/>
			<point x="264" y="452" type="curve"/>
			<point x="204" y="452" type="line"/>
			<point x="190" y="100"/>
			<point x="158" y="-171"/>
			<point x="155" y="-306" type="curve" smooth="yes"/>
		</contour>
		<contour>
			<point x="236" y="624" type="curve" smooth="yes"/>
			<point x="306" y="624"/>
			<point x="357" y="677"/>
			<point x="357" y="743" type="curve" smooth="yes"/>
			<point x="357" y="809"/>
			<point x="306" y="862"/>
			<point x="236" y="862" type="curve" smooth="yes"/>
			<point x="166" y="862"/>
			<point x="115" y="809"/>
			<point x="115" y="743" type="curve" smooth="yes"/>
			<point x="115" y="677"/>
			<point x="166" y="624"/>
		</contour>
	</outline>
</glyph>
<glyph name="currency" format="2">
	<unicode hex="00A4"/>
	<advance width="878"/>
	<outline>
		<contour>
			<point x="186" y="748" type="line"/>
			<point x="127" y="689" type="line"/>
			<point x="225" y="591" type="line"/>
			<point x="284" y="650" type="line"/>
		</contour>
		<contour>
			<point x="127" y="183" type="line"/>
			<point x="186" y="124" type="line"/>
			<point x="281" y="219" type="line"/>
			<point x="222" y="278" type="line"/>
		</contour>
		<contour>
			<point x="439" y="703" type="curve" smooth="yes"/>
			<point x="283" y="703"/>
			<point x="171" y="592"/>
			<point x="171" y="436" type="curve" smooth="yes"/>
			<point x="171" y="280"/>
			<point x="283" y="169"/>
			<point x="439" y="169" type="curve" smooth="yes"/>
			<point x="595" y="169"/>
			<point x="707" y="280"/>
			<point x="707" y="436" type="curve" smooth="yes"/>
			<point x="707" y="592"/>
			<point x="595" y="703"/>
		</contour>
		<contour>
			<point x="439" y="247" type="curve" smooth="yes"/>
			<point x="331" y="247"/>
			<point x="254" y="323"/>
			<point x="254" y="436" type="curve" smooth="yes"/>
			<point x="254" y="549"/>
			<point x="331" y="625"/>
			<point x="439" y="625" type="curve" smooth="yes"/>
			<point x="547" y="625"/>
			<point x="624" y="549"/>
			<point x="624" y="436" type="curve" smooth="yes"/>
			<point x="624" y="323"/>
			<point x="547" y="247"/>
		</contour>
		<contour>
			<point x="751" y="689" type="line"/>
			<point x="692" y="748" type="line"/>
			<point x="594" y="650" type="line"/>
			<point x="653" y="591" type="line"/>
		</contour>
		<contour>
			<point x="751" y="183" type="line"/>
			<point x="656" y="278" type="line"/>
			<point x="597" y="219" type="line"/>
			<point x="692" y="124" type="line"/>
		</contour>
	</outline>
</glyph>
<glyph name="brokenbar" format="2">
	<unicode hex="00A6"/>
	<advance width="484"/>
	<outline>
		<contour>
			<point x="296" y="660" type="line"/>
			<point x="296" y="1470" type="line"/>
			<point x="188" y="1470" type="line"/>
			<point x="188" y="660" type="line"/>
		</contour>
		<contour>
			<point x="188" y="-530" type="line"/>
			<point x="296" y="-530" type="line"/>
			<point x="296" y="280" type="line"/>
			<point x="188" y="280" type="line"/>
		</contour>
	</outline>
</glyph>
<glyph name="section" format="2">
	<unicode hex="00A7"/>
	<advance width="1001"/>
	<outline>
		<contour>
			<point x="468" y="-275" type="curve" smooth="yes"/>
			<point x="672" y="-275"/>
			<point x="814" y="-158"/>
			<point x="814" y="19" type="curve" smooth="yes"/>
			<point x="814" y="400"/>
			<point x="206" y="276"/>
			<point x="206" y="568" type="curve" smooth="yes"/>
			<point x="206" y="675"/>
			<point x="275" y="760"/>
			<point x="440" y="795" type="curve"/>
			<point x="405" y="855" type="line"/>
			<point x="181" y="801"/>
			<point x="79" y="684"/>
			<point x="79" y="533" type="curve" smooth="yes"/>
			<point x="79" y="155"/>
			<point x="691" y="264"/>
			<point x="691" y="-26" type="curve" smooth="yes"/>
			<point x="691" y="-132.6022727273"/>
			<point x="612" y="-202"/>
			<point x="489" y="-202" type="curve" smooth="yes"/>
			<point x="332" y="-202"/>
			<point x="332" y="-44"/>
			<point x="229" y="-44" type="curve" smooth="yes"/>
			<point x="180" y="-44"/>
			<point x="142" y="-78"/>
			<point x="142" y="-130" type="curve" smooth="yes"/>
			<point x="142" y="-194"/>
			<point x="223" y="-275"/>
		</contour>
		<contour>
			<point x="793" y="537" type="curve" smooth="yes"/>
			<point x="793" y="422"/>
			<point x="714" y="341"/>
			<point x="544" y="306" type="curve"/>
			<point x="594" y="248" type="line"/>
			<point x="788" y="297"/>
			<point x="920" y="395"/>
			<point x="920" y="572" type="curve" smooth="yes"/>
			<point x="920" y="950"/>
			<point x="308" y="841"/>
			<point x="308" y="1111" type="curve" smooth="yes"/>
			<point x="308" y="1217"/>
			<point x="392" y="1287"/>
			<point x="528" y="1287" type="curve" smooth="yes"/>
			<point x="685" y="1287"/>
			<point x="685" y="1129"/>
			<point x="788" y="1129" type="curve" smooth="yes"/>
			<point x="837" y="1129"/>
			<point x="875" y="1163"/>
			<point x="875" y="1215" type="curve" smooth="yes"/>
			<point x="875" y="1279"/>
			<point x="794" y="1360"/>
			<point x="549" y="1360" type="curve" smooth="yes"/>
			<point x="335" y="1360"/>
			<point x="185" y="1253"/>
			<point x="185" y="1076" type="curve" smooth="yes"/>
			<point x="185" y="693"/>
			<point x="793" y="829"/>
		</contour>
	</outline>
</glyph>
<glyph name="copyright" format="2">
	<unicode hex="00A9"/>
	<advance width="1620"/>
	<outline>
		<contour>
			<point x="810" y="1360" type="curve" smooth="yes"/>
			<point x="404" y="1360"/>
			<point x="113" y="1074"/>
			<point x="113" y="670" type="curve" smooth="yes"/>
			<point x="113" y="266"/>
			<point x="404" y="-20"/>
			<point x="810" y="-20" type="curve" smooth="yes"/>
			<point x="1216" y="-20"/>
			<point x="1507" y="266"/>
			<point x="1507" y="670" type="curve" smooth="yes"/>
			<point x="1507" y="1074"/>
			<point x="1216" y="1360"/>
		</contour>
		<contour>
			<point x="810" y="1273" type="curve" smooth="yes"/>
			<point x="1155" y="1273"/>
			<point x="1406" y="1024"/>
			<point x="1406" y="670" type="curve" smooth="yes"/>
			<point x="1406" y="316"/>
			<point x="1155" y="67"/>
			<point x="810" y="67" type="curve" smooth="yes"/>
			<point x="465" y="67"/>
			<point x="214" y="316"/>
			<point x="214" y="670" type="curve" smooth="yes"/>
			<point x="214" y="1024"/>
			<point x="465" y="1273"/>
		</contour>
		<contour>
			<point x="874" y="370" type="curve"/>
			<point x="703" y="370"/>
			<point x="575" y="497"/>
			<point x="575" y="702" type="curve" smooth="yes"/>
			<point x="575" y="869"/>
			<point x="671" y="981"/>
			<point x="865" y="981" type="curve" smooth="yes"/>
			<point x="917" y="981"/>
			<point x="958" y="972"/>
			<point x="1018" y="944" type="curve"/>
			<point x="957" y="994" type="line"/>
			<point x="1071" y="797" type="line"/>
			<point x="1109" y="806" type="line"/>
			<point x="1069" y="1093" type="line"/>
			<point x="1059" y="1093" type="line"/>
			<point x="973" y="1041" type="line"/>
			<point x="1019" y="1046" type="line"/>
			<point x="955" y="1060"/>
			<point x="916" y="1065"/>
			<point x="870" y="1065" type="curve" smooth="yes"/>
			<point x="591" y="1065"/>
			<point x="429" y="904"/>
			<point x="429" y="669" type="curve" smooth="yes"/>
			<point x="429" y="436"/>
			<point x="598" y="286"/>
			<point x="850" y="286" type="curve" smooth="yes"/>
			<point x="926" y="286"/>
			<point x="1012" y="298"/>
			<point x="1080" y="322" type="curve"/>
			<point x="1113" y="544" type="line"/>
			<point x="1073" y="544" type="line"/>
			<point x="967" y="343" type="line"/>
			<point x="1036" y="400" type="line"/>
			<point x="976" y="374"/>
			<point x="929" y="370"/>
		</contour>
	</outline>
</glyph>
<glyph name="ordfeminine" format="2">
	<unicode hex="00AA"/>
	<advance width="877"/>
	<outline>
		<contour>
			<point x="116" y="464" type="line"/>
			<point x="768" y="464" type="line"/>
			<point x="768" y="553" type="line"/>
			<point x="116" y="553" type="line"/>
		</contour>
		<contour>
			<point x="590" y="1048" type="curve"/>
			<point x="576" y="1115" type="line"/>
			<point x="230" y="1033"/>
			<point x="151" y="962"/>
			<point x="151" y="848" type="curve" smooth="yes"/>
			<point x="151" y="739"/>
			<point x="231" y="679"/>
			<point x="342" y="679" type="curve" smooth="yes"/>
			<point x="430" y="679"/>
			<point x="503" y="733"/>
			<point x="531" y="819" type="curve"/>
			<point x="528" y="819" type="line"/>
			<point x="528" y="733"/>
			<point x="580" y="681"/>
			<point x="656" y="681" type="curve" smooth="yes"/>
			<point x="696" y="681"/>
			<point x="721" y="692"/>
			<point x="773" y="733" type="curve"/>
			<point x="773" y="778" type="line"/>
			<point x="751" y="767"/>
			<point x="725" y="762"/>
			<point x="703" y="762" type="curve" smooth="yes"/>
			<point x="668" y="762"/>
			<point x="651" y="782"/>
			<point x="651" y="830" type="curve" smooth="yes"/>
			<point x="651" y="1182" type="line" smooth="yes"/>
			<point x="651" y="1297"/>
			<point x="591" y="1360"/>
			<point x="448" y="1360" type="curve" smooth="yes"/>
			<point x="303" y="1360"/>
			<point x="150" y="1267"/>
			<point x="150" y="1197" type="curve" smooth="yes"/>
			<point x="150" y="1170"/>
			<point x="172" y="1152"/>
			<point x="207" y="1152" type="curve" smooth="yes"/>
			<point x="235" y="1152"/>
			<point x="262" y="1161"/>
			<point x="282" y="1181" type="curve" smooth="yes"/>
			<point x="302" y="1201"/>
			<point x="308" y="1232"/>
			<point x="316" y="1301" type="curve"/>
			<point x="272" y="1258" type="line"/>
			<point x="314" y="1277"/>
			<point x="362" y="1287"/>
			<point x="396" y="1287" type="curve" smooth="yes"/>
			<point x="482" y="1287"/>
			<point x="519" y="1240"/>
			<point x="519" y="1166" type="curve" smooth="yes"/>
			<point x="519" y="895" type="line" smooth="yes"/>
			<point x="519" y="825"/>
			<point x="469" y="763"/>
			<point x="398" y="763" type="curve" smooth="yes"/>
			<point x="339" y="763"/>
			<point x="291" y="799"/>
			<point x="291" y="866" type="curve" smooth="yes"/>
			<point x="291" y="942"/>
			<point x="342" y="995"/>
		</contour>
	</outline>
</glyph>
<glyph name="guillemotleft" format="2">
	<unicode hex="00AB"/>
	<advance width="965"/>
	<outline>
		<contour>
			<point x="214" y="520" type="line"/>
			<point x="214" y="342" type="line"/>
			<point x="504" y="805" type="line"/>
			<point x="463" y="837" type="line"/>
			<point x="61" y="449" type="line"/>
			<point x="61" y="413" type="line"/>
			<point x="463" y="25" type="line"/>
			<point x="504" y="57" type="line"/>
		</contour>
		<contour>
			<point x="594" y="520" type="line"/>
			<point x="594" y="342" type="line"/>
			<point x="884" y="805" type="line"/>
			<point x="843" y="837" type="line"/>
			<point x="441" y="449" type="line"/>
			<point x="441" y="413" type="line"/>
			<point x="843" y="25" type="line"/>
			<point x="884" y="57" type="line"/>
		</contour>
	</outline>
</glyph>
<glyph name="logicalnot" format="2">
	<unicode hex="00AC"/>
	<advance width="1000"/>
	<outline>
		<contour>
			<point x="140" y="648" type="line"/>
			<point x="140" y="564" type="line"/>
			<point x="854" y="564" type="line"/>
			<point x="854" y="648" type="line"/>
		</contour>
		<contour>
			<point x="854" y="603" type="line"/>
			<point x="770" y="603" type="line"/>
			<point x="770" y="224" type="line"/>
			<point x="854" y="224" type="line"/>
		</contour>
	</outline>
</glyph>
<glyph name="registered" format="2">
	<unicode hex="00AE"/>
	<advance width="1085"/>
	<outline>
		<contour>
			<point x="540" y="1360" type="curve" smooth="yes"/>
			<point x="290" y="1360"/>
			<point x="111" y="1183"/>
			<point x="111" y="934" type="curve" smooth="yes"/>
			<point x="111" y="686"/>
			<point x="290" y="506"/>
			<point x="540" y="506" type="curve" smooth="yes"/>
			<point x="792" y="506"/>
			<point x="974" y="686"/>
			<point x="974" y="934" type="curve" smooth="yes"/>
			<point x="974" y="1183"/>
			<point x="792" y="1360"/>
		</contour>
		<contour>
			<point x="540" y="1290" type="curve" smooth="yes"/>
			<point x="747" y="1290"/>
			<point x="897" y="1145"/>
			<point x="897" y="934" type="curve" smooth="yes"/>
			<point x="897" y="725"/>
			<point x="747" y="577"/>
			<point x="540" y="577" type="curve" smooth="yes"/>
			<point x="335" y="577"/>
			<point x="188" y="725"/>
			<point x="188" y="934" type="curve" smooth="yes"/>
			<point x="188" y="1145"/>
			<point x="335" y="1290"/>
		</contour>
		<contour>
			<point x="422" y="966" type="line"/>
			<point x="417" y="913" type="line"/>
			<point x="543" y="913" type="line" smooth="yes"/>
			<point x="577" y="913"/>
			<point x="591" y="905"/>
			<point x="609" y="854" type="curve" smooth="yes"/>
			<point x="635" y="778" type="line" smooth="yes"/>
			<point x="655" y="718"/>
			<point x="676" y="712"/>
			<point x="776" y="717" type="curve"/>
			<point x="776" y="753" type="line"/>
			<point x="751" y="753"/>
			<point x="740" y="759"/>
			<point x="724" y="803" type="curve" smooth="yes"/>
			<point x="687" y="892" type="line" smooth="yes"/>
			<point x="671" y="934"/>
			<point x="651" y="946"/>
			<point x="587" y="946" type="curve"/>
			<point x="587" y="938" type="line"/>
			<point x="685" y="947"/>
			<point x="724" y="1000"/>
			<point x="724" y="1051" type="curve" smooth="yes"/>
			<point x="724" y="1119"/>
			<point x="680" y="1166"/>
			<point x="562" y="1166" type="curve" smooth="yes"/>
			<point x="409" y="1166" type="line"/>
			<point x="414" y="1115" type="line"/>
			<point x="521" y="1115" type="line" smooth="yes"/>
			<point x="604" y="1115"/>
			<point x="629" y="1086"/>
			<point x="629" y="1040" type="curve" smooth="yes"/>
			<point x="629" y="988"/>
			<point x="597" y="966"/>
			<point x="552" y="966" type="curve" smooth="yes"/>
		</contour>
		<contour>
			<point x="400" y="1118" type="line"/>
			<point x="400" y="767" type="line"/>
			<point x="346" y="749" type="line"/>
			<point x="346" y="717" type="line"/>
			<point x="540" y="717" type="line"/>
			<point x="540" y="749" type="line"/>
			<point x="488" y="767" type="line"/>
			<point x="488" y="1166" type="line"/>
			<point x="346" y="1166" type="line"/>
			<point x="346" y="1136" type="line"/>
		</contour>
	</outline>
</glyph>
<glyph name="degree" format="2">
	<unicode hex="00B0"/>
	<advance width="764"/>
	<outline>
		<contour>
			<point x="382" y="1350" type="curve" smooth="yes"/>
			<point x="206" y="1350"/>
			<point x="80" y="1226"/>
			<point x="80" y="1050" type="curve" smooth="yes"/>
			<point x="80" y="874"/>
			<point x="206" y="750"/>
			<point x="382" y="750" type="curve" smooth="yes"/>
			<point x="558" y="750"/>
			<point x="684" y="874"/>
			<point x="684" y="1050" type="curve" smooth="yes"/>
			<point x="684" y="1226"/>
			<point x="558" y="1350"/>
		</contour>
		<contour>
			<point x="382" y="826" type="curve" smooth="yes"/>
			<point x="254" y="826"/>
			<point x="162" y="916"/>
			<point x="162" y="1050" type="curve" smooth="yes"/>
			<point x="162" y="1184"/>
			<point x="254" y="1274"/>
			<point x="382" y="1274" type="curve" smooth="yes"/>
			<point x="510" y="1274"/>
			<point x="602" y="1184"/>
			<point x="602" y="1050" type="curve" smooth="yes"/>
			<point x="602" y="916"/>
			<point x="510" y="826"/>
		</contour>
	</outline>
</glyph>
<glyph name="plusminus" format="2">
	<unicode hex="00B1"/>
	<advance width="1000"/>
	<outline>
		<contour>
			<point x="458" y="852" type="line"/>
			<point x="458" y="138" type="line"/>
			<point x="542" y="138" type="line"/>
			<point x="542" y="852" type="line"/>
		</contour>
		<contour>
			<point x="143" y="537" type="line"/>
			<point x="143" y="453" type="line"/>
			<point x="857" y="453" type="line"/>
			<point x="857" y="537" type="line"/>
		</contour>
		<contour>
			<point x="143" y="84" type="line"/>
			<point x="143" y="0" type="line"/>
			<point x="857" y="0" type="line"/>
			<point x="857" y="84" type="line"/>
		</contour>
	</outline>
</glyph>
<glyph name="uni00B2" format="2">
	<unicode hex="00B2"/>
	<advance width="676"/>
	<outline>
		<contour>
			<point x="464" y="674" type="line"/>
			<point x="549" y="727" type="line"/>
			<point x="187" y="727" type="line"/>
			<point x="191" y="677" type="line"/>
			<point x="340" y="822" type="line" smooth="yes"/>
			<point x="507" y="985"/>
			<point x="565" y="1057"/>
			<point x="565" y="1155" type="curve" smooth="yes"/>
			<point x="565" y="1278"/>
			<point x="471" y="1354"/>
			<point x="340" y="1354" type="curve" smooth="yes"/>
			<point x="201" y="1354"/>
			<point x="100" y="1269"/>
			<point x="65" y="1100" type="curve"/>
			<point x="105" y="1091" type="line"/>
			<point x="136" y="1196"/>
			<point x="203" y="1234"/>
			<point x="286" y="1234" type="curve" smooth="yes"/>
			<point x="369" y="1234"/>
			<point x="422" y="1183"/>
			<point x="422" y="1116" type="curve" smooth="yes"/>
			<point x="422" y="1032"/>
			<point x="383" y="961"/>
			<point x="279" y="842" type="curve" smooth="yes"/>
			<point x="75" y="609" type="line"/>
			<point x="75" y="592" type="line"/>
			<point x="486" y="592" type="line"/>
			<point x="556" y="570" type="line"/>
			<point x="570" y="570" type="line"/>
			<point x="613" y="842" type="line"/>
			<point x="587" y="842" type="line"/>
		</contour>
	</outline>
</glyph>
<glyph name="uni00B3" format="2">
	<unicode hex="00B3"/>
	<advance width="636"/>
	<outline>
		<contour>
			<point x="212" y="578" type="curve" smooth="yes"/>
			<point x="431" y="578"/>
			<point x="577" y="700"/>
			<point x="577" y="856" type="curve" smooth="yes"/>
			<point x="577" y="976"/>
			<point x="484" y="1040"/>
			<point x="327" y="1021" type="curve"/>
			<point x="322" y="1015" type="line"/>
			<point x="432" y="1039"/>
			<point x="509" y="1106"/>
			<point x="509" y="1200" type="curve" smooth="yes"/>
			<point x="509" y="1291"/>
			<point x="442" y="1354"/>
			<point x="322" y="1354" type="curve" smooth="yes"/>
			<point x="194" y="1354"/>
			<point x="111" y="1274"/>
			<point x="83" y="1142" type="curve"/>
			<point x="125" y="1128" type="line"/>
			<point x="149" y="1218"/>
			<point x="203" y="1256"/>
			<point x="281" y="1256" type="curve" smooth="yes"/>
			<point x="350" y="1256"/>
			<point x="389" y="1214"/>
			<point x="389" y="1156" type="curve" smooth="yes"/>
			<point x="389" y="1089"/>
			<point x="345" y="1037"/>
			<point x="186" y="990" type="curve"/>
			<point x="201" y="940" type="line"/>
			<point x="241" y="950" type="line" smooth="yes"/>
			<point x="362" y="982"/>
			<point x="442" y="930"/>
			<point x="442" y="816" type="curve" smooth="yes"/>
			<point x="442" y="698"/>
			<point x="364" y="648"/>
			<point x="292" y="648" type="curve" smooth="yes"/>
			<point x="200" y="648"/>
			<point x="183" y="722"/>
			<point x="118" y="722" type="curve" smooth="yes"/>
			<point x="86" y="722"/>
			<point x="61" y="700"/>
			<point x="61" y="666" type="curve" smooth="yes"/>
			<point x="61" y="622"/>
			<point x="103" y="578"/>
		</contour>
	</outline>
</glyph>
<glyph name="uni00B5" format="2">
	<unicode hex="00B5"/>
	<advance width="1081"/>
	<outline>
		<contour>
			<point x="181" y="852" type="line"/>
			<point x="181" y="-520" type="line"/>
			<point x="191" y="-520" type="line"/>
			<point x="348" y="-503" type="line"/>
			<point x="256" y="163" type="line"/>
			<point x="243" y="163" type="line"/>
			<point x="259" y="23"/>
			<point x="331" y="-20"/>
			<point x="438" y="-20" type="curve" smooth="yes"/>
			<point x="547" y="-20"/>
			<point x="636" y="30"/>
			<point x="770" y="173" type="curve"/>
			<point x="732" y="211" type="line"/>
			<point x="698" y="158"/>
			<point x="602" y="119"/>
			<point x="512" y="119" type="curve" smooth="yes"/>
			<point x="369" y="119"/>
			<point x="327" y="160"/>
			<point x="327" y="282" type="curve" smooth="yes"/>
			<point x="327" y="852" type="line"/>
		</contour>
		<contour>
			<point x="866" y="175" type="curve" smooth="yes"/>
			<point x="866" y="852" type="line"/>
			<point x="719" y="852" type="line"/>
			<point x="719" y="166" type="line" smooth="yes"/>
			<point x="719" y="53"/>
			<point x="776" y="-18"/>
			<point x="875" y="-18" type="curve" smooth="yes"/>
			<point x="927" y="-18"/>
			<point x="991" y="9"/>
			<point x="1046" y="69" type="curve"/>
			<point x="1046" y="115" type="line"/>
			<point x="1013" y="101"/>
			<point x="976" y="89"/>
			<point x="945" y="89" type="curve" smooth="yes"/>
			<point x="893" y="89"/>
			<point x="866" y="118"/>
		</contour>
	</outline>
</glyph>
<glyph name="paragraph" format="2">
	<unicode hex="00B6"/>
	<advance width="1171"/>
	<outline>
		<contour>
			<point x="661" y="1340" type="line"/>
			<point x="433" y="1340" type="line" smooth="yes"/>
			<point x="163" y="1340"/>
			<point x="55" y="1182"/>
			<point x="55" y="1002" type="curve" smooth="yes"/>
			<point x="55" y="815"/>
			<point x="168" y="677"/>
			<point x="433" y="677" type="curve" smooth="yes"/>
			<point x="661" y="677" type="line"/>
		</contour>
		<contour>
			<point x="685" y="-255" type="line"/>
			<point x="685" y="1246" type="line"/>
			<point x="856" y="1246" type="line"/>
			<point x="856" y="1340" type="line"/>
			<point x="589" y="1340" type="line"/>
			<point x="589" y="-255" type="line"/>
		</contour>
		<contour>
			<point x="928" y="-255" type="line"/>
			<point x="928" y="1255" type="line"/>
			<point x="1086" y="1304" type="line"/>
			<point x="1086" y="1340" type="line"/>
			<point x="832" y="1340" type="line"/>
			<point x="832" y="-255" type="line"/>
		</contour>
	</outline>
</glyph>
<glyph name="uni00B9" format="2">
	<unicode hex="00B9"/>
	<advance width="507"/>
	<outline>
		<contour>
			<point x="219" y="653" type="line"/>
			<point x="107" y="623" type="line"/>
			<point x="107" y="592" type="line"/>
			<point x="459" y="592" type="line"/>
			<point x="459" y="623" type="line"/>
			<point x="354" y="653" type="line"/>
			<point x="354" y="1345" type="line"/>
			<point x="299" y="1345" type="line"/>
			<point x="41" y="1206" type="line"/>
			<point x="53" y="1168" type="line"/>
			<point x="255" y="1222" type="line"/>
			<point x="219" y="1284" type="line"/>
		</contour>
	</outline>
</glyph>
<glyph name="ordmasculine" format="2">
	<unicode hex="00BA"/>
	<advance width="886"/>
	<outline>
		<contour>
			<point x="148" y="460" type="line"/>
			<point x="738" y="460" type="line"/>
			<point x="738" y="558" type="line"/>
			<point x="148" y="558" type="line"/>
		</contour>
		<contour>
			<point x="448" y="761" type="curve" smooth="yes"/>
			<point x="335" y="761"/>
			<point x="261" y="859"/>
			<point x="261" y="1034" type="curve" smooth="yes"/>
			<point x="261" y="1199"/>
			<point x="337" y="1276"/>
			<point x="441" y="1276" type="curve" smooth="yes"/>
			<point x="553" y="1276"/>
			<point x="628" y="1179"/>
			<point x="628" y="1002" type="curve" smooth="yes"/>
			<point x="628" y="836"/>
			<point x="550" y="761"/>
		</contour>
		<contour>
			<point x="442" y="679" type="curve" smooth="yes"/>
			<point x="631" y="679"/>
			<point x="771" y="825"/>
			<point x="771" y="1024" type="curve" smooth="yes"/>
			<point x="771" y="1222"/>
			<point x="639" y="1360"/>
			<point x="447" y="1360" type="curve" smooth="yes"/>
			<point x="257" y="1360"/>
			<point x="115" y="1212"/>
			<point x="115" y="1010" type="curve" smooth="yes"/>
			<point x="115" y="817"/>
			<point x="249" y="679"/>
		</contour>
	</outline>
</glyph>
<glyph name="guillemotright" format="2">
	<unicode hex="00BB"/>
	<advance width="1001"/>
	<outline>
		<contour>
			<point x="383" y="343" type="line"/>
			<point x="383" y="521" type="line"/>
			<point x="93" y="58" type="line"/>
			<point x="134" y="26" type="line"/>
			<point x="536" y="414" type="line"/>
			<point x="536" y="450" type="line"/>
			<point x="134" y="838" type="line"/>
			<point x="93" y="806" type="line"/>
		</contour>
		<contour>
			<point x="763" y="343" type="line"/>
			<point x="763" y="521" type="line"/>
			<point x="473" y="58" type="line"/>
			<point x="514" y="26" type="line"/>
			<point x="916" y="414" type="line"/>
			<point x="916" y="450" type="line"/>
			<point x="514" y="838" type="line"/>
			<point x="473" y="806" type="line"/>
		</contour>
	</outline>
</glyph>
<glyph name="questiondown" format="2">
	<unicode hex="00BF"/>
	<advance width="805"/>
	<outline>
		<contour>
			<point x="545" y="-512" type="curve" smooth="yes"/>
			<point x="689" y="-512"/>
			<point x="769" y="-469"/>
			<point x="769" y="-400" type="curve" smooth="yes"/>
			<point x="769" y="-351"/>
			<point x="728" y="-311"/>
			<point x="672" y="-311" type="curve" smooth="yes"/>
			<point x="575" y="-311"/>
			<point x="567" y="-408"/>
			<point x="438" y="-408" type="curve" smooth="yes"/>
			<point x="290" y="-408"/>
			<point x="189" y="-310"/>
			<point x="189" y="-140" type="curve" smooth="yes"/>
			<point x="189" y="22"/>
			<point x="316" y="115"/>
			<point x="588" y="94" type="curve"/>
			<point x="515" y="452" type="line"/>
			<point x="472" y="452" type="line"/>
			<point x="472" y="109" type="line"/>
			<point x="535" y="222" type="line"/>
			<point x="192" y="234"/>
			<point x="90" y="98"/>
			<point x="90" y="-91" type="curve" smooth="yes"/>
			<point x="90" y="-364"/>
			<point x="304" y="-512"/>
		</contour>
		<contour>
			<point x="484" y="624" type="curve" smooth="yes"/>
			<point x="554" y="624"/>
			<point x="605" y="677"/>
			<point x="605" y="743" type="curve" smooth="yes"/>
			<point x="605" y="809"/>
			<point x="554" y="862"/>
			<point x="484" y="862" type="curve" smooth="yes"/>
			<point x="414" y="862"/>
			<point x="363" y="809"/>
			<point x="363" y="743" type="curve" smooth="yes"/>
			<point x="363" y="677"/>
			<point x="414" y="624"/>
		</contour>
	</outline>
</glyph>
<glyph name="AE" format="2">
	<unicode hex="00C6"/>
	<advance width="1916"/>
	<outline>
		<contour>
			<point x="446" y="501" type="line"/>
			<point x="1007" y="501" type="line"/>
			<point x="1007" y="592" type="line"/>
			<point x="446" y="592" type="line"/>
		</contour>
		<contour>
			<point x="867" y="1340" type="line"/>
			<point x="129" y="91" type="line"/>
			<point x="-24" y="39" type="line"/>
			<point x="-24" y="0" type="line"/>
			<point x="403" y="0" type="line"/>
			<point x="403" y="39" type="line"/>
			<point x="240" y="91" type="line"/>
			<point x="953" y="1300" type="line"/>
			<point x="953" y="1340" type="line"/>
		</contour>
		<contour>
			<point x="673" y="1301" type="line"/>
			<point x="845" y="1244" type="line"/>
			<point x="885" y="1340" type="line"/>
			<point x="673" y="1340" type="line"/>
		</contour>
		<contour>
			<point x="1563" y="965" type="line"/>
			<point x="1489" y="965" type="line"/>
			<point x="1467" y="750" type="line"/>
			<point x="982" y="750" type="line"/>
			<point x="982" y="656" type="line"/>
			<point x="1467" y="656" type="line"/>
			<point x="1489" y="441" type="line"/>
			<point x="1563" y="441" type="line"/>
			<point x="1563" y="703" type="line"/>
		</contour>
		<contour>
			<point x="1816" y="962" type="line"/>
			<point x="1751" y="1389" type="line"/>
			<point x="1735" y="1389" type="line"/>
			<point x="1623" y="1340" type="line"/>
			<point x="982" y="1340" type="line"/>
			<point x="982" y="1246" type="line"/>
			<point x="1659" y="1246" type="line"/>
			<point x="1604" y="1267" type="line"/>
			<point x="1769" y="953" type="line"/>
		</contour>
		<contour>
			<point x="1622" y="68" type="line"/>
			<point x="1667" y="94" type="line"/>
			<point x="982" y="94" type="line"/>
			<point x="982" y="0" type="line"/>
			<point x="1641" y="0" type="line"/>
			<point x="1756" y="-59" type="line"/>
			<point x="1772" y="-59" type="line"/>
			<point x="1844" y="370" type="line"/>
			<point x="1803" y="381" type="line"/>
		</contour>
		<contour>
			<point x="764" y="0" type="line"/>
			<point x="1082" y="0" type="line"/>
			<point x="1082" y="1340" type="line"/>
			<point x="922" y="1340" type="line"/>
			<point x="922" y="91" type="line"/>
			<point x="764" y="39" type="line"/>
		</contour>
	</outline>
	<anchor name="UCtop" x="1002" y="1340"/>
	<anchor name="bottom" x="1002" y="0"/>
</glyph>
<glyph name="Ccedilla" format="2">
	<unicode hex="00C7"/>
	<advance width="1381"/>
	<outline>
		<contour>
			<point x="851" y="70" type="curve" smooth="yes"/>
			<point x="515" y="70"/>
			<point x="265" y="307"/>
			<point x="265" y="725" type="curve" smooth="yes"/>
			<point x="265" y="1062"/>
			<point x="457" y="1268"/>
			<point x="833" y="1268" type="curve" smooth="yes"/>
			<point x="935" y="1268"/>
			<point x="1016" y="1250"/>
			<point x="1128" y="1190" type="curve"/>
			<point x="1088" y="1230" type="line"/>
			<point x="1250" y="931" type="line"/>
			<point x="1296" y="940" type="line"/>
			<point x="1238" y="1398" type="line"/>
			<point x="1220" y="1398" type="line"/>
			<point x="1095" y="1315" type="line"/>
			<point x="1149" y="1325" type="line"/>
			<point x="1035" y="1352"/>
			<point x="963" y="1360"/>
			<point x="880" y="1360" type="curve" smooth="yes"/>
			<point x="385" y="1360"/>
			<point x="94" y="1084"/>
			<point x="94" y="658" type="curve" smooth="yes"/>
			<point x="94" y="234"/>
			<point x="398" y="-20"/>
			<point x="843" y="-20" type="curve" smooth="yes"/>
			<point x="1011" y="-20"/>
			<point x="1171" y="14"/>
			<point x="1260" y="58" type="curve"/>
			<point x="1293" y="354" type="line"/>
			<point x="1240" y="354" type="line"/>
			<point x="1101" y="85" type="line"/>
			<point x="1147" y="122" type="line"/>
			<point x="1049" y="86"/>
			<point x="956" y="70"/>
		</contour>
		<contour>
			<point x="665" y="-530" type="curve" smooth="yes"/>
			<point x="792" y="-530"/>
			<point x="917" y="-441"/>
			<point x="917" y="-311" type="curve" smooth="yes"/>
			<point x="917" y="-226"/>
			<point x="858" y="-157"/>
			<point x="670" y="-126" type="curve"/>
			<point x="673" y="-221" type="line"/>
			<point x="870" y="50" type="line"/>
			<point x="793" y="50" type="line"/>
			<point x="590" y="-211" type="line"/>
			<point x="590" y="-229" type="line"/>
			<point x="763" y="-250"/>
			<point x="824" y="-286"/>
			<point x="824" y="-360" type="curve" smooth="yes"/>
			<point x="824" y="-420"/>
			<point x="780" y="-459"/>
			<point x="718" y="-459" type="curve" smooth="yes"/>
			<point x="650" y="-459"/>
			<point x="640" y="-396"/>
			<point x="582" y="-396" type="curve" smooth="yes"/>
			<point x="551" y="-396"/>
			<point x="529" y="-415"/>
			<point x="529" y="-446" type="curve" smooth="yes"/>
			<point x="529" y="-489"/>
			<point x="568" y="-530"/>
		</contour>
	</outline>
</glyph>
<glyph name="multiply" format="2">
	<unicode hex="00D7"/>
	<advance width="1000"/>
	<outline>
		<contour>
			<point x="188" y="183" type="line"/>
			<point x="247" y="124" type="line"/>
			<point x="812" y="689" type="line"/>
			<point x="753" y="748" type="line"/>
		</contour>
		<contour>
			<point x="188" y="689" type="line"/>
			<point x="753" y="124" type="line"/>
			<point x="812" y="183" type="line"/>
			<point x="247" y="748" type="line"/>
		</contour>
	</outline>
</glyph>
<glyph name="Oslash" format="2">
	<unicode hex="00D8"/>
	<advance width="1553"/>
	<outline>
		<contour>
			<point x="365" y="269" type="line"/>
			<point x="318" y="224" type="line"/>
			<point x="117" y="0" type="line"/>
			<point x="249" y="0" type="line"/>
			<point x="384" y="150" type="line"/>
			<point x="413" y="186" type="line"/>
			<point x="1197" y="1071" type="line"/>
			<point x="1244" y="1116" type="line"/>
			<point x="1445" y="1340" type="line"/>
			<point x="1313" y="1340" type="line"/>
			<point x="1178" y="1190" type="line"/>
			<point x="1149" y="1154" type="line"/>
		</contour>
		<contour>
			<point x="775" y="1360" type="curve" smooth="yes"/>
			<point x="387" y="1360"/>
			<point x="108" y="1073"/>
			<point x="108" y="668" type="curve" smooth="yes"/>
			<point x="108" y="264"/>
			<point x="388" y="-20"/>
			<point x="778" y="-20" type="curve" smooth="yes"/>
			<point x="1166" y="-20"/>
			<point x="1445" y="267"/>
			<point x="1445" y="672" type="curve" smooth="yes"/>
			<point x="1445" y="1076"/>
			<point x="1165" y="1360"/>
		</contour>
		<contour>
			<point x="785" y="72" type="curve" smooth="yes"/>
			<point x="492" y="72"/>
			<point x="282" y="301"/>
			<point x="282" y="700" type="curve" smooth="yes"/>
			<point x="282" y="1048"/>
			<point x="468" y="1268"/>
			<point x="768" y="1268" type="curve" smooth="yes"/>
			<point x="1061" y="1268"/>
			<point x="1271" y="1039"/>
			<point x="1271" y="640" type="curve" smooth="yes"/>
			<point x="1271" y="292"/>
			<point x="1085" y="72"/>
		</contour>
	</outline>
	<anchor name="UCtop" x="776" y="1340"/>
	<anchor name="bottom" x="776" y="0"/>
</glyph>
<glyph name="Thorn" format="2">
	<unicode hex="00DE"/>
	<advance width="1208"/>
	<outline>
		<contour>
			<point x="961" y="692" type="curve" smooth="yes"/>
			<point x="961" y="505"/>
			<point x="830" y="407"/>
			<point x="657" y="407" type="curve" smooth="yes"/>
			<point x="254" y="407" type="line"/>
			<point x="267" y="313" type="line"/>
			<point x="632" y="313" type="line" smooth="yes"/>
			<point x="982" y="313"/>
			<point x="1131" y="491"/>
			<point x="1131" y="704" type="curve" smooth="yes"/>
			<point x="1131" y="910"/>
			<point x="989" y="1070"/>
			<point x="632" y="1070" type="curve" smooth="yes"/>
			<point x="267" y="1070" type="line"/>
			<point x="254" y="976" type="line"/>
			<point x="546" y="976" type="line" smooth="yes"/>
			<point x="855" y="976"/>
			<point x="961" y="874"/>
		</contour>
		<contour>
			<point x="561" y="39" type="line"/>
			<point x="403" y="91" type="line"/>
			<point x="403" y="1249" type="line"/>
			<point x="561" y="1301" type="line"/>
			<point x="561" y="1340" type="line"/>
			<point x="85" y="1340" type="line"/>
			<point x="85" y="1301" type="line"/>
			<point x="243" y="1249" type="line"/>
			<point x="243" y="91" type="line"/>
			<point x="85" y="39" type="line"/>
			<point x="85" y="0" type="line"/>
			<point x="561" y="0" type="line"/>
		</contour>
	</outline>
</glyph>
<glyph name="germandbls" format="2">
	<unicode hex="00DF"/>
	<advance width="1190"/>
	<outline>
		<contour>
			<point x="209" y="889" type="curve" smooth="yes"/>
			<point x="209" y="85" type="line"/>
			<point x="57" y="37" type="line"/>
			<point x="57" y="0" type="line"/>
			<point x="467" y="0" type="line"/>
			<point x="467" y="37" type="line"/>
			<point x="355" y="85" type="line"/>
			<point x="355" y="961" type="line" smooth="yes"/>
			<point x="355" y="1204"/>
			<point x="463" y="1338"/>
			<point x="649" y="1338" type="curve" smooth="yes"/>
			<point x="797" y="1338"/>
			<point x="868" y="1257"/>
			<point x="868" y="1161" type="curve" smooth="yes"/>
			<point x="868" y="950"/>
			<point x="580" y="906"/>
			<point x="580" y="701" type="curve" smooth="yes"/>
			<point x="580" y="416"/>
			<point x="997" y="478"/>
			<point x="997" y="225" type="curve" smooth="yes"/>
			<point x="997" y="105"/>
			<point x="910" y="45"/>
			<point x="779" y="45" type="curve" smooth="yes"/>
			<point x="728" y="45"/>
			<point x="689" y="45"/>
			<point x="606" y="86" type="curve"/>
			<point x="728" y="8" type="line"/>
			<point x="594" y="257" type="line"/>
			<point x="547" y="257" type="line"/>
			<point x="592" y="16" type="line"/>
			<point x="656" y="-9"/>
			<point x="721" y="-20"/>
			<point x="806" y="-20" type="curve" smooth="yes"/>
			<point x="987" y="-20"/>
			<point x="1122" y="90"/>
			<point x="1122" y="268" type="curve" smooth="yes"/>
			<point x="1122" y="599"/>
			<point x="716" y="558"/>
			<point x="716" y="745" type="curve" smooth="yes"/>
			<point x="716" y="927"/>
			<point x="1015" y="976"/>
			<point x="1015" y="1184" type="curve" smooth="yes"/>
			<point x="1015" y="1314"/>
			<point x="886" y="1419"/>
			<point x="694" y="1419" type="curve" smooth="yes"/>
			<point x="446" y="1419"/>
			<point x="209" y="1260"/>
		</contour>
		<contour>
			<point x="223" y="852" type="line"/>
			<point x="39" y="791" type="line"/>
			<point x="39" y="760" type="line"/>
			<point x="209" y="736" type="line"/>
		</contour>
	</outline>
</glyph>
<glyph name="ae" format="2">
	<unicode hex="00E6"/>
	<advance width="1343"/>
	<outline>
		<contour>
			<point x="413" y="778" type="curve" smooth="yes"/>
			<point x="526" y="778"/>
			<point x="572" y="716"/>
			<point x="572" y="620" type="curve" smooth="yes"/>
			<point x="572" y="287" type="line" smooth="yes"/>
			<point x="572" y="161"/>
			<point x="485" y="89"/>
			<point x="370" y="89" type="curve" smooth="yes"/>
			<point x="293" y="89"/>
			<point x="231" y="138"/>
			<point x="231" y="229" type="curve" smooth="yes"/>
			<point x="231" y="315"/>
			<point x="272" y="389"/>
			<point x="646" y="473" type="curve"/>
			<point x="630" y="537" type="line"/>
			<point x="156" y="420"/>
			<point x="81" y="331"/>
			<point x="81" y="197" type="curve" smooth="yes"/>
			<point x="81" y="59"/>
			<point x="182" y="-20"/>
			<point x="320" y="-20" type="curve" smooth="yes"/>
			<point x="473" y="-20"/>
			<point x="574" y="71"/>
			<point x="601" y="262" type="curve"/>
			<point x="575" y="265" type="line"/>
			<point x="631" y="94"/>
			<point x="759" y="-20"/>
			<point x="926" y="-20" type="curve" smooth="yes"/>
			<point x="1066" y="-20"/>
			<point x="1172" y="31"/>
			<point x="1277" y="162" type="curve"/>
			<point x="1252" y="189" type="line"/>
			<point x="1183" y="131"/>
			<point x="1110" y="100"/>
			<point x="1035" y="100" type="curve" smooth="yes"/>
			<point x="845" y="100"/>
			<point x="718" y="239"/>
			<point x="718" y="461" type="curve" smooth="yes"/>
			<point x="718" y="674"/>
			<point x="800" y="793"/>
			<point x="923" y="793" type="curve" smooth="yes"/>
			<point x="1040" y="793"/>
			<point x="1094" y="694"/>
			<point x="1108" y="551" type="curve"/>
			<point x="1176" y="565" type="line"/>
			<point x="692" y="541" type="line"/>
			<point x="690" y="474" type="line"/>
			<point x="1272" y="474" type="line"/>
			<point x="1254" y="729"/>
			<point x="1141" y="872"/>
			<point x="938" y="872" type="curve" smooth="yes"/>
			<point x="810" y="872"/>
			<point x="690" y="801"/>
			<point x="637" y="695" type="curve"/>
			<point x="697" y="695" type="line"/>
			<point x="678" y="804"/>
			<point x="622" y="863"/>
			<point x="474" y="863" type="curve" smooth="yes"/>
			<point x="289" y="863"/>
			<point x="94" y="746"/>
			<point x="94" y="664" type="curve" smooth="yes"/>
			<point x="94" y="634"/>
			<point x="119" y="613"/>
			<point x="161" y="613" type="curve" smooth="yes"/>
			<point x="193" y="613"/>
			<point x="227" y="623"/>
			<point x="249" y="646" type="curve" smooth="yes"/>
			<point x="271" y="669"/>
			<point x="282" y="730"/>
			<point x="289" y="786" type="curve"/>
			<point x="238" y="740" type="line"/>
			<point x="295" y="769"/>
			<point x="365" y="778"/>
		</contour>
	</outline>
	<anchor name="top" x="683" y="852"/>
	<anchor name="bottom" x="645" y="0"/>
</glyph>
<glyph name="ccedilla" format="2">
	<unicode hex="00E7"/>
	<advance width="829"/>
	<outline>
		<contour>
			<point x="546" y="872" type="curve" smooth="yes"/>
			<point x="242" y="872"/>
			<point x="75" y="655"/>
			<point x="75" y="402" type="curve" smooth="yes"/>
			<point x="75" y="161"/>
			<point x="231" y="-20"/>
			<point x="456" y="-20" type="curve" smooth="yes"/>
			<point x="586" y="-20"/>
			<point x="685" y="38"/>
			<point x="781" y="162" type="curve"/>
			<point x="757" y="189" type="line"/>
			<point x="691" y="131"/>
			<point x="621" y="100"/>
			<point x="548" y="100" type="curve" smooth="yes"/>
			<point x="349" y="100"/>
			<point x="223" y="248"/>
			<point x="223" y="485" type="curve" smooth="yes"/>
			<point x="223" y="689"/>
			<point x="338" y="786"/>
			<point x="448" y="786" type="curve" smooth="yes"/>
			<point x="546" y="786"/>
			<point x="578" y="662"/>
			<point x="676" y="662" type="curve" smooth="yes"/>
			<point x="730" y="662"/>
			<point x="768" y="698"/>
			<point x="768" y="755" type="curve" smooth="yes"/>
			<point x="768" y="807"/>
			<point x="710" y="872"/>
		</contour>
		<contour>
			<point x="357" y="-530" type="curve" smooth="yes"/>
			<point x="484" y="-530"/>
			<point x="609" y="-441"/>
			<point x="609" y="-311" type="curve" smooth="yes"/>
			<point x="609" y="-226"/>
			<point x="550" y="-157"/>
			<point x="362" y="-126" type="curve"/>
			<point x="365" y="-221" type="line"/>
			<point x="562" y="50" type="line"/>
			<point x="485" y="50" type="line"/>
			<point x="282" y="-211" type="line"/>
			<point x="282" y="-229" type="line"/>
			<point x="455" y="-250"/>
			<point x="516" y="-286"/>
			<point x="516" y="-360" type="curve" smooth="yes"/>
			<point x="516" y="-420"/>
			<point x="472" y="-459"/>
			<point x="410" y="-459" type="curve" smooth="yes"/>
			<point x="342" y="-459"/>
			<point x="332" y="-396"/>
			<point x="274" y="-396" type="curve" smooth="yes"/>
			<point x="243" y="-396"/>
			<point x="221" y="-415"/>
			<point x="221" y="-446" type="curve" smooth="yes"/>
			<point x="221" y="-489"/>
			<point x="260" y="-530"/>
		</contour>
	</outline>
</glyph>
<glyph name="eth" format="2">
	<unicode hex="00F0"/>
	<advance width="1031"/>
	<outline>
		<contour>
			<point x="502" y="-20" type="curve" smooth="yes"/>
			<point x="754" y="-20"/>
			<point x="934" y="166"/>
			<point x="934" y="524" type="curve" smooth="yes"/>
			<point x="934" y="1017"/>
			<point x="770" y="1318"/>
			<point x="177" y="1417" type="curve"/>
			<point x="161" y="1353" type="line"/>
			<point x="597" y="1248"/>
			<point x="757" y="1089"/>
			<point x="774" y="653" type="curve"/>
			<point x="795" y="689" type="line"/>
			<point x="738" y="805"/>
			<point x="621" y="872"/>
			<point x="494" y="872" type="curve" smooth="yes"/>
			<point x="259" y="872"/>
			<point x="75" y="680"/>
			<point x="75" y="416" type="curve" smooth="yes"/>
			<point x="75" y="159"/>
			<point x="249" y="-20"/>
		</contour>
		<contour>
			<point x="508" y="57" type="curve" smooth="yes"/>
			<point x="347" y="57"/>
			<point x="240" y="195"/>
			<point x="240" y="450" type="curve" smooth="yes"/>
			<point x="240" y="688"/>
			<point x="351" y="795"/>
			<point x="501" y="795" type="curve" smooth="yes"/>
			<point x="662" y="795"/>
			<point x="769" y="657"/>
			<point x="769" y="402" type="curve" smooth="yes"/>
			<point x="769" y="164"/>
			<point x="658" y="57"/>
		</contour>
		<contour>
			<point x="381" y="974" type="line"/>
			<point x="889" y="1352" type="line"/>
			<point x="840" y="1419" type="line"/>
			<point x="332" y="1041" type="line"/>
		</contour>
	</outline>
</glyph>
<glyph name="divide" format="2">
	<unicode hex="00F7"/>
	<advance width="1000"/>
	<outline>
		<contour>
			<point x="500" y="234" type="curve" smooth="yes"/>
			<point x="436" y="234"/>
			<point x="390" y="185"/>
			<point x="390" y="125" type="curve" smooth="yes"/>
			<point x="390" y="65"/>
			<point x="436" y="16"/>
			<point x="500" y="16" type="curve" smooth="yes"/>
			<point x="564" y="16"/>
			<point x="610" y="65"/>
			<point x="610" y="125" type="curve" smooth="yes"/>
			<point x="610" y="185"/>
			<point x="564" y="234"/>
		</contour>
		<contour>
			<point x="500" y="856" type="curve" smooth="yes"/>
			<point x="436" y="856"/>
			<point x="390" y="807"/>
			<point x="390" y="747" type="curve" smooth="yes"/>
			<point x="390" y="687"/>
			<point x="436" y="638"/>
			<point x="500" y="638" type="curve" smooth="yes"/>
			<point x="564" y="638"/>
			<point x="610" y="687"/>
			<point x="610" y="747" type="curve" smooth="yes"/>
			<point x="610" y="807"/>
			<point x="564" y="856"/>
		</contour>
		<contour>
			<point x="143" y="478" type="line"/>
			<point x="143" y="394" type="line"/>
			<point x="857" y="394" type="line"/>
			<point x="857" y="478" type="line"/>
		</contour>
	</outline>
</glyph>
<glyph name="oslash" format="2">
	<unicode hex="00F8"/>
	<advance width="1049"/>
	<outline>
		<contour>
			<point x="66" y="0" type="line"/>
			<point x="186" y="0" type="line"/>
			<point x="283" y="104" type="line"/>
			<point x="317" y="139" type="line"/>
			<point x="798" y="663" type="line"/>
			<point x="833" y="690" type="line"/>
			<point x="985" y="852" type="line"/>
			<point x="865" y="852" type="line"/>
			<point x="771" y="751" type="line"/>
			<point x="737" y="716" type="line"/>
			<point x="259" y="195" type="line"/>
			<point x="224" y="168" type="line"/>
		</contour>
		<contour>
			<point x="529" y="57" type="curve" smooth="yes"/>
			<point x="368" y="57"/>
			<point x="261" y="195"/>
			<point x="261" y="450" type="curve" smooth="yes"/>
			<point x="261" y="688"/>
			<point x="372" y="795"/>
			<point x="522" y="795" type="curve" smooth="yes"/>
			<point x="683" y="795"/>
			<point x="790" y="657"/>
			<point x="790" y="402" type="curve" smooth="yes"/>
			<point x="790" y="164"/>
			<point x="679" y="57"/>
		</contour>
		<contour>
			<point x="523" y="-20" type="curve" smooth="yes"/>
			<point x="771" y="-20"/>
			<point x="955" y="172"/>
			<point x="955" y="436" type="curve" smooth="yes"/>
			<point x="955" y="693"/>
			<point x="781" y="872"/>
			<point x="528" y="872" type="curve" smooth="yes"/>
			<point x="280" y="872"/>
			<point x="96" y="680"/>
			<point x="96" y="416" type="curve" smooth="yes"/>
			<point x="96" y="159"/>
			<point x="270" y="-20"/>
		</contour>
	</outline>
	<anchor name="top" x="526" y="852"/>
	<anchor name="bottom" x="526" y="0"/>
</glyph>
<glyph name="thorn" format="2">
  <advance width="1042"/>
  <unicode hex="00FE"/>
  <outline>
    <contour>
      <point x="141.0" y="1218.0" type="curve"/>
      <point x="141.0" y="-425.0" type="line"/>
      <point x="-11.0" y="-473.0" type="line"/>
      <point x="-11.0" y="-510.0" type="line"/>
      <point x="457.0" y="-510.0" type="line"/>
      <point x="457.0" y="-473.0" type="line"/>
      <point x="287.0" y="-425.0" type="line"/>
      <point x="287.0" y="57.0" type="line"/>
      <point x="203.0" y="57.0" type="line"/>
      <point x="315.0" y="2.0"/>
      <point x="401.0" y="-20.0"/>
      <point x="497.0" y="-20.0" type="curve" smooth="yes"/>
      <point x="750.0" y="-20.0"/>
      <point x="966.0" y="167.0"/>
      <point x="966.0" y="470.0" type="curve" smooth="yes"/>
      <point x="966.0" y="707.0"/>
      <point x="832.0" y="872.0"/>
      <point x="581.0" y="872.0" type="curve" smooth="yes"/>
      <point x="492.0" y="872.0"/>
      <point x="371.0" y="836.0"/>
      <point x="222.0" y="744.0" type="curve"/>
      <point x="222.0" y="673.0" type="line"/>
      <point x="301.0" y="734.0"/>
      <point x="401.0" y="764.0"/>
      <point x="517.0" y="764.0" type="curve" smooth="yes"/>
      <point x="683.0" y="764.0"/>
      <point x="797.0" y="642.0"/>
      <point x="797.0" y="422.0" type="curve" smooth="yes"/>
      <point x="797.0" y="203.0"/>
      <point x="698.0" y="63.0"/>
      <point x="529.0" y="63.0" type="curve" smooth="yes"/>
      <point x="381.0" y="63.0"/>
      <point x="287.0" y="145.0"/>
      <point x="287.0" y="256.0" type="curve" smooth="yes"/>
      <point x="287.0" y="1259.0" type="line"/>
      <point x="297.0" y="1419.0" type="line"/>
      <point x="277.0" y="1419.0" type="line"/>
      <point x="-13.0" y="1335.0" type="line"/>
      <point x="-13.0" y="1315.0" type="line"/>
      <point x="65.0" y="1282.0"/>
      <point x="115.0" y="1249.0"/>
    </contour>
  </outline>
</glyph>
<glyph name="Aogonek" format="2">
  <advance width="1375"/>
  <unicode hex="0104"/>
  <outline>
    <contour>
      <point x="351.0" y="501.0" type="line"/>
      <point x="1012.0" y="501.0" type="line"/>
      <point x="1012.0" y="592.0" type="line"/>
      <point x="351.0" y="592.0" type="line"/>
    </contour>
    <contour>
      <point x="1242.0" y="93.0" type="line"/>
      <point x="705.0" y="1360.0" type="line"/>
      <point x="658.0" y="1360.0" type="line"/>
      <point x="139.0" y="91.0" type="line"/>
      <point x="-14.0" y="39.0" type="line"/>
      <point x="-14.0" y="0.0" type="line"/>
      <point x="408.0" y="0.0" type="line"/>
      <point x="408.0" y="39.0" type="line"/>
      <point x="245.0" y="91.0" type="line"/>
      <point x="678.0" y="1195.0" type="line"/>
      <point x="611.0" y="1195.0" type="line"/>
      <point x="1073.0" y="91.0" type="line"/>
      <point x="900.0" y="39.0" type="line"/>
      <point x="900.0" y="0.0" type="line"/>
      <point x="1390.0" y="0.0" type="line"/>
      <point x="1390.0" y="39.0" type="line"/>
    </contour>
    <contour>
      <point x="1114.0" y="-133.0" type="curve" smooth="yes"/>
      <point x="1203.0" y="46.0" type="line"/>
      <point x="1150.0" y="46.0" type="line"/>
      <point x="1035.0" y="-124.0" type="line" smooth="yes"/>
      <point x="960.0" y="-234.0"/>
      <point x="943.0" y="-297.0"/>
      <point x="943.0" y="-361.0" type="curve" smooth="yes"/>
      <point x="943.0" y="-467.0"/>
      <point x="1016.0" y="-530.0"/>
      <point x="1113.0" y="-530.0" type="curve" smooth="yes"/>
      <point x="1202.0" y="-530.0"/>
      <point x="1275.0" y="-484.0"/>
      <point x="1351.0" y="-370.0" type="curve"/>
      <point x="1322.0" y="-342.0" type="line"/>
      <point x="1254.0" y="-413.0"/>
      <point x="1211.0" y="-430.0"/>
      <point x="1168.0" y="-430.0" type="curve" smooth="yes"/>
      <point x="1105.0" y="-430.0"/>
      <point x="1060.0" y="-392.0"/>
      <point x="1060.0" y="-324.0" type="curve" smooth="yes"/>
      <point x="1060.0" y="-274.0"/>
      <point x="1073.0" y="-216.0"/>
    </contour>
  </outline>
</glyph>
<glyph name="aogonek" format="2">
	<unicode hex="0105"/>
	<advance width="864"/>
	<outline>
		<contour>
			<point x="870" y="69" type="line"/>
			<point x="870" y="115" type="line"/>
			<point x="837" y="95"/>
			<point x="800" y="82"/>
			<point x="769" y="82" type="curve" smooth="yes"/>
			<point x="717" y="82"/>
			<point x="690" y="113"/>
			<point x="690" y="175" type="curve" smooth="yes"/>
			<point x="690" y="632" type="line" smooth="yes"/>
			<point x="690" y="781"/>
			<point x="620" y="863"/>
			<point x="446" y="863" type="curve" smooth="yes"/>
			<point x="276" y="863"/>
			<point x="96" y="746"/>
			<point x="96" y="664" type="curve" smooth="yes"/>
			<point x="96" y="634"/>
			<point x="121" y="613"/>
			<point x="163" y="613" type="curve" smooth="yes"/>
			<point x="195" y="613"/>
			<point x="229" y="623"/>
			<point x="251" y="646" type="curve" smooth="yes"/>
			<point x="273" y="669"/>
			<point x="284" y="730"/>
			<point x="291" y="786" type="curve"/>
			<point x="240" y="740" type="line"/>
			<point x="289" y="765"/>
			<point x="345" y="778"/>
			<point x="385" y="778" type="curve" smooth="yes"/>
			<point x="498" y="778"/>
			<point x="544" y="716"/>
			<point x="544" y="620" type="curve" smooth="yes"/>
			<point x="544" y="260" type="line" smooth="yes"/>
			<point x="544" y="169"/>
			<point x="466" y="89"/>
			<point x="372" y="89" type="curve" smooth="yes"/>
			<point x="295" y="89"/>
			<point x="233" y="138"/>
			<point x="233" y="229" type="curve" smooth="yes"/>
			<point x="233" y="332"/>
			<point x="304" y="400"/>
			<point x="618" y="473" type="curve"/>
			<point x="602" y="543" type="line"/>
			<point x="182" y="437"/>
			<point x="83" y="345"/>
			<point x="83" y="197" type="curve" smooth="yes"/>
			<point x="83" y="57"/>
			<point x="179" y="-20"/>
			<point x="313" y="-20" type="curve" smooth="yes"/>
			<point x="424" y="-20"/>
			<point x="525" y="59"/>
			<point x="552" y="171" type="curve"/>
			<point x="546" y="161" type="line"/>
			<point x="546" y="50"/>
			<point x="602" y="-18"/>
			<point x="699" y="-18" type="curve" smooth="yes"/>
			<point x="722" y="-18"/>
			<point x="747" y="-13"/>
			<point x="772" y="-2" type="curve"/>
			<point x="761" y="14" type="line"/>
			<point x="635" y="-112" type="line" smooth="yes"/>
			<point x="529" y="-218"/>
			<point x="496" y="-290"/>
			<point x="496" y="-361" type="curve" smooth="yes"/>
			<point x="496" y="-467"/>
			<point x="569" y="-530"/>
			<point x="661" y="-530" type="curve" smooth="yes"/>
			<point x="750" y="-530"/>
			<point x="823" y="-484"/>
			<point x="899" y="-370" type="curve"/>
			<point x="870" y="-342" type="line"/>
			<point x="802" y="-413"/>
			<point x="759" y="-430"/>
			<point x="716" y="-430" type="curve" smooth="yes"/>
			<point x="658" y="-430"/>
			<point x="613" y="-392"/>
			<point x="613" y="-324" type="curve" smooth="yes"/>
			<point x="613" y="-274"/>
			<point x="635" y="-214"/>
			<point x="712" y="-121" type="curve" smooth="yes"/>
		</contour>
	</outline>
</glyph>
<glyph name="Dcroat" format="2">
	<unicode hex="0110"/>
	<advance width="1497"/>
	<outline>
		<contour>
			<point x="87" y="634" type="line"/>
			<point x="730" y="634" type="line"/>
			<point x="730" y="728" type="line"/>
			<point x="87" y="728" type="line"/>
		</contour>
		<contour>
			<point x="1228" y="688" type="curve" smooth="yes"/>
			<point x="1228" y="268"/>
			<point x="974" y="94"/>
			<point x="594" y="94" type="curve" smooth="yes"/>
			<point x="305" y="94" type="line"/>
			<point x="305" y="0" type="line"/>
			<point x="623" y="0" type="line" smooth="yes"/>
			<point x="1067" y="0"/>
			<point x="1402" y="260"/>
			<point x="1402" y="710" type="curve" smooth="yes"/>
			<point x="1402" y="1134"/>
			<point x="1145" y="1340"/>
			<point x="621" y="1340" type="curve" smooth="yes"/>
			<point x="305" y="1340" type="line"/>
			<point x="305" y="1246" type="line"/>
			<point x="572" y="1246" type="line" smooth="yes"/>
			<point x="978" y="1246"/>
			<point x="1228" y="1066"/>
		</contour>
		<contour>
			<point x="87" y="0" type="line"/>
			<point x="405" y="0" type="line"/>
			<point x="405" y="1340" type="line"/>
			<point x="87" y="1340" type="line"/>
			<point x="87" y="1301" type="line"/>
			<point x="245" y="1249" type="line"/>
			<point x="245" y="91" type="line"/>
			<point x="87" y="39" type="line"/>
		</contour>
	</outline>
</glyph>
<glyph name="Eogonek" format="2">
	<unicode hex="0118"/>
	<advance width="1237"/>
	<outline>
		<contour>
			<point x="884" y="965" type="line"/>
			<point x="810" y="965" type="line"/>
			<point x="788" y="750" type="line"/>
			<point x="303" y="750" type="line"/>
			<point x="303" y="656" type="line"/>
			<point x="788" y="656" type="line"/>
			<point x="810" y="441" type="line"/>
			<point x="884" y="441" type="line"/>
			<point x="884" y="703" type="line"/>
		</contour>
		<contour>
			<point x="1137" y="962" type="line"/>
			<point x="1072" y="1389" type="line"/>
			<point x="1056" y="1389" type="line"/>
			<point x="944" y="1340" type="line"/>
			<point x="303" y="1340" type="line"/>
			<point x="303" y="1246" type="line"/>
			<point x="980" y="1246" type="line"/>
			<point x="925" y="1267" type="line"/>
			<point x="1090" y="953" type="line"/>
		</contour>
		<contour>
			<point x="943" y="68" type="line"/>
			<point x="988" y="94" type="line"/>
			<point x="303" y="94" type="line"/>
			<point x="303" y="0" type="line"/>
			<point x="962" y="0" type="line"/>
			<point x="1077" y="-59" type="line"/>
			<point x="1093" y="-59" type="line"/>
			<point x="1165" y="370" type="line"/>
			<point x="1124" y="381" type="line"/>
		</contour>
		<contour>
			<point x="85" y="0" type="line"/>
			<point x="403" y="0" type="line"/>
			<point x="403" y="1340" type="line"/>
			<point x="85" y="1340" type="line"/>
			<point x="85" y="1301" type="line"/>
			<point x="243" y="1249" type="line"/>
			<point x="243" y="91" type="line"/>
			<point x="85" y="39" type="line"/>
		</contour>
		<contour>
			<point x="891" y="-133" type="curve" smooth="yes"/>
			<point x="980" y="46" type="line"/>
			<point x="927" y="46" type="line"/>
			<point x="812" y="-124" type="line" smooth="yes"/>
			<point x="737" y="-234"/>
			<point x="720" y="-297"/>
			<point x="720" y="-361" type="curve" smooth="yes"/>
			<point x="720" y="-467"/>
			<point x="793" y="-530"/>
			<point x="890" y="-530" type="curve" smooth="yes"/>
			<point x="979" y="-530"/>
			<point x="1052" y="-484"/>
			<point x="1128" y="-370" type="curve"/>
			<point x="1099" y="-342" type="line"/>
			<point x="1031" y="-413"/>
			<point x="988" y="-430"/>
			<point x="945" y="-430" type="curve" smooth="yes"/>
			<point x="882" y="-430"/>
			<point x="837" y="-392"/>
			<point x="837" y="-324" type="curve" smooth="yes"/>
			<point x="837" y="-274"/>
			<point x="850" y="-216"/>
		</contour>
	</outline>
</glyph>
<glyph name="eogonek" format="2">
	<unicode hex="0119"/>
	<advance width="879"/>
	<outline>
		<contour>
			<point x="813" y="162" type="line"/>
			<point x="788" y="189" type="line"/>
			<point x="719" y="131"/>
			<point x="646" y="100"/>
			<point x="571" y="100" type="curve" smooth="yes"/>
			<point x="363" y="100"/>
			<point x="224" y="239"/>
			<point x="224" y="461" type="curve" smooth="yes"/>
			<point x="224" y="674"/>
			<point x="318" y="793"/>
			<point x="459" y="793" type="curve" smooth="yes"/>
			<point x="576" y="793"/>
			<point x="630" y="694"/>
			<point x="644" y="551" type="curve"/>
			<point x="712" y="593" type="line"/>
			<point x="198" y="569" type="line"/>
			<point x="196" y="502" type="line"/>
			<point x="808" y="502" type="line"/>
			<point x="787" y="739"/>
			<point x="668" y="872"/>
			<point x="474" y="872" type="curve" smooth="yes"/>
			<point x="225" y="872"/>
			<point x="75" y="665"/>
			<point x="75" y="414" type="curve" smooth="yes"/>
			<point x="75" y="164"/>
			<point x="244" y="-20"/>
			<point x="476" y="-20" type="curve" smooth="yes"/>
			<point x="557" y="-20"/>
			<point x="626" y="1"/>
			<point x="690" y="45" type="curve"/>
			<point x="678" y="58" type="line"/>
			<point x="542" y="-114" type="line" smooth="yes"/>
			<point x="460" y="-217"/>
			<point x="434" y="-287"/>
			<point x="434" y="-361" type="curve" smooth="yes"/>
			<point x="434" y="-467"/>
			<point x="507" y="-530"/>
			<point x="604" y="-530" type="curve" smooth="yes"/>
			<point x="693" y="-530"/>
			<point x="766" y="-484"/>
			<point x="842" y="-370" type="curve"/>
			<point x="813" y="-342" type="line"/>
			<point x="745" y="-413"/>
			<point x="702" y="-430"/>
			<point x="659" y="-430" type="curve" smooth="yes"/>
			<point x="596" y="-430"/>
			<point x="551" y="-392"/>
			<point x="551" y="-324" type="curve" smooth="yes"/>
			<point x="551" y="-265"/>
			<point x="571" y="-198"/>
			<point x="645" y="-88" type="curve" smooth="yes"/>
		</contour>
	</outline>
</glyph>
<glyph name="Hbar" format="2">
	<unicode hex="0126"/>
	<advance width="1561"/>
	<outline>
		<contour>
			<point x="404" y="91" type="line"/>
			<point x="404" y="1249" type="line"/>
			<point x="562" y="1301" type="line"/>
			<point x="562" y="1340" type="line"/>
			<point x="86" y="1340" type="line"/>
			<point x="86" y="1301" type="line"/>
			<point x="244" y="1249" type="line"/>
			<point x="244" y="91" type="line"/>
			<point x="86" y="39" type="line"/>
			<point x="86" y="0" type="line"/>
			<point x="562" y="0" type="line"/>
			<point x="562" y="39" type="line"/>
		</contour>
		<contour>
			<point x="1317" y="91" type="line"/>
			<point x="1317" y="1249" type="line"/>
			<point x="1475" y="1301" type="line"/>
			<point x="1475" y="1340" type="line"/>
			<point x="999" y="1340" type="line"/>
			<point x="999" y="1301" type="line"/>
			<point x="1157" y="1249" type="line"/>
			<point x="1157" y="91" type="line"/>
			<point x="999" y="39" type="line"/>
			<point x="999" y="0" type="line"/>
			<point x="1475" y="0" type="line"/>
			<point x="1475" y="39" type="line"/>
		</contour>
		<contour>
			<point x="86" y="954" type="line"/>
			<point x="1475" y="954" type="line"/>
			<point x="1475" y="1048" type="line"/>
			<point x="86" y="1048" type="line"/>
		</contour>
		<contour>
			<point x="304" y="636" type="line"/>
			<point x="1257" y="636" type="line"/>
			<point x="1257" y="730" type="line"/>
			<point x="304" y="730" type="line"/>
		</contour>
	</outline>
</glyph>
<glyph name="Iogonek" format="2">
	<unicode hex="012E"/>
	<advance width="646"/>
	<outline>
		<contour>
			<point x="561" y="39" type="line"/>
			<point x="403" y="91" type="line"/>
			<point x="403" y="1249" type="line"/>
			<point x="561" y="1301" type="line"/>
			<point x="561" y="1340" type="line"/>
			<point x="85" y="1340" type="line"/>
			<point x="85" y="1301" type="line"/>
			<point x="243" y="1249" type="line"/>
			<point x="243" y="91" type="line"/>
			<point x="85" y="39" type="line"/>
			<point x="85" y="0" type="line"/>
			<point x="561" y="0" type="line"/>
		</contour>
		<contour>
			<point x="295" y="-133" type="curve" smooth="yes"/>
			<point x="384" y="46" type="line"/>
			<point x="331" y="46" type="line"/>
			<point x="216" y="-124" type="line" smooth="yes"/>
			<point x="141" y="-234"/>
			<point x="124" y="-297"/>
			<point x="124" y="-361" type="curve" smooth="yes"/>
			<point x="124" y="-467"/>
			<point x="197" y="-530"/>
			<point x="294" y="-530" type="curve" smooth="yes"/>
			<point x="383" y="-530"/>
			<point x="456" y="-484"/>
			<point x="532" y="-370" type="curve"/>
			<point x="503" y="-342" type="line"/>
			<point x="435" y="-413"/>
			<point x="392" y="-430"/>
			<point x="349" y="-430" type="curve" smooth="yes"/>
			<point x="286" y="-430"/>
			<point x="241" y="-392"/>
			<point x="241" y="-324" type="curve" smooth="yes"/>
			<point x="241" y="-274"/>
			<point x="254" y="-216"/>
		</contour>
	</outline>
</glyph>
<glyph name="iogonek" format="2">
  <advance width="534"/>
  <unicode hex="012F"/>
  <outline>
    <contour>
      <point x="267.0" y="1181.0" type="curve" smooth="yes"/>
      <point x="338.0" y="1181.0"/>
      <point x="387.0" y="1233.0"/>
      <point x="387.0" y="1300.0" type="curve" smooth="yes"/>
      <point x="387.0" y="1367.0"/>
      <point x="338.0" y="1419.0"/>
      <point x="267.0" y="1419.0" type="curve" smooth="yes"/>
      <point x="196.0" y="1419.0"/>
      <point x="147.0" y="1367.0"/>
      <point x="147.0" y="1300.0" type="curve" smooth="yes"/>
      <point x="147.0" y="1233.0"/>
      <point x="196.0" y="1181.0"/>
    </contour>
    <contour>
      <point x="356.0" y="872.0" type="line"/>
      <point x="338.0" y="872.0" type="line"/>
      <point x="56.0" y="795.0" type="line"/>
      <point x="56.0" y="764.0" type="line"/>
      <point x="117.0" y="745.0"/>
      <point x="182.0" y="710.0"/>
      <point x="204.0" y="686.0" type="curve"/>
      <point x="204.0" y="85.0" type="line"/>
      <point x="52.0" y="37.0" type="line"/>
      <point x="52.0" y="0.0" type="line"/>
      <point x="505.0" y="0.0" type="line"/>
      <point x="505.0" y="37.0" type="line"/>
      <point x="350.0" y="85.0" type="line"/>
      <point x="350.0" y="710.0" type="line"/>
    </contour>
    <contour>
      <point x="247.0" y="-133.0" type="curve" smooth="yes"/>
      <point x="336.0" y="46.0" type="line"/>
      <point x="283.0" y="46.0" type="line"/>
      <point x="168.0" y="-124.0" type="line" smooth="yes"/>
      <point x="93.0" y="-234.0"/>
      <point x="76.0" y="-297.0"/>
      <point x="76.0" y="-361.0" type="curve" smooth="yes"/>
      <point x="76.0" y="-467.0"/>
      <point x="149.0" y="-530.0"/>
      <point x="246.0" y="-530.0" type="curve" smooth="yes"/>
      <point x="335.0" y="-530.0"/>
      <point x="408.0" y="-484.0"/>
      <point x="484.0" y="-370.0" type="curve"/>
      <point x="455.0" y="-342.0" type="line"/>
      <point x="387.0" y="-413.0"/>
      <point x="344.0" y="-430.0"/>
      <point x="301.0" y="-430.0" type="curve" smooth="yes"/>
      <point x="238.0" y="-430.0"/>
      <point x="193.0" y="-392.0"/>
      <point x="193.0" y="-324.0" type="curve" smooth="yes"/>
      <point x="193.0" y="-274.0"/>
      <point x="206.0" y="-216.0"/>
    </contour>
  </outline>
</glyph>
<glyph name="dotlessi" format="2">
	<unicode hex="0131"/>
	<advance width="534"/>
	<outline>
		<contour>
			<point x="356" y="872" type="line"/>
			<point x="338" y="872" type="line"/>
			<point x="56" y="795" type="line"/>
			<point x="56" y="764" type="line"/>
			<point x="117" y="745"/>
			<point x="182" y="710"/>
			<point x="204" y="686" type="curve"/>
			<point x="204" y="85" type="line"/>
			<point x="52" y="37" type="line"/>
			<point x="52" y="0" type="line"/>
			<point x="505" y="0" type="line"/>
			<point x="505" y="37" type="line"/>
			<point x="350" y="85" type="line"/>
			<point x="350" y="710" type="line"/>
		</contour>
	</outline>
	<anchor name="top" x="277" y="852"/>
	<anchor name="bottom" x="277" y="0"/>
	<anchor name="right" x="278" y="0"/>
</glyph>
<glyph name="kgreenlandic" format="2">
	<unicode hex="0138"/>
	<advance width="1054"/>
	<outline>
		<contour>
			<point x="453" y="411" type="line"/>
			<point x="756" y="79" type="line"/>
			<point x="639" y="37" type="line"/>
			<point x="639" y="0" type="line"/>
			<point x="1066" y="0" type="line"/>
			<point x="1066" y="37" type="line"/>
			<point x="942" y="84" type="line"/>
			<point x="572" y="489" type="line"/>
			<point x="552" y="451" type="line"/>
			<point x="855" y="772" type="line"/>
			<point x="983" y="809" type="line"/>
			<point x="983" y="852" type="line"/>
			<point x="616" y="852" type="line"/>
			<point x="616" y="809" type="line"/>
			<point x="746" y="772" type="line"/>
			<point x="491" y="491" type="line"/>
			<point x="321" y="491" type="line"/>
			<point x="321" y="411" type="line"/>
		</contour>
		<contour>
			<point x="354" y="872" type="line"/>
			<point x="336" y="872" type="line"/>
			<point x="54" y="795" type="line"/>
			<point x="54" y="764" type="line"/>
			<point x="115" y="745"/>
			<point x="180" y="710"/>
			<point x="202" y="686" type="curve"/>
			<point x="202" y="85" type="line"/>
			<point x="50" y="37" type="line"/>
			<point x="50" y="0" type="line"/>
			<point x="503" y="0" type="line"/>
			<point x="503" y="37" type="line"/>
			<point x="348" y="85" type="line"/>
			<point x="348" y="710" type="line"/>
		</contour>
	</outline>
</glyph>
<glyph name="Lslash" format="2">
	<unicode hex="0141"/>
	<advance width="1211"/>
	<outline>
		<contour>
			<point x="311" y="568" type="line"/>
			<point x="391" y="596" type="line"/>
			<point x="745" y="807" type="line"/>
			<point x="745" y="916" type="line"/>
			<point x="391" y="705" type="line"/>
			<point x="311" y="677" type="line"/>
			<point x="74" y="535" type="line"/>
			<point x="74" y="426" type="line"/>
		</contour>
		<contour>
			<point x="1094" y="-59" type="line"/>
			<point x="1175" y="392" type="line"/>
			<point x="1133" y="402" type="line"/>
			<point x="936" y="65" type="line"/>
			<point x="1078" y="94" type="line"/>
			<point x="346" y="94" type="line"/>
			<point x="346" y="0" type="line"/>
			<point x="954" y="0" type="line"/>
			<point x="1073" y="-59" type="line"/>
		</contour>
		<contour>
			<point x="446" y="1249" type="line"/>
			<point x="604" y="1301" type="line"/>
			<point x="604" y="1340" type="line"/>
			<point x="128" y="1340" type="line"/>
			<point x="128" y="1301" type="line"/>
			<point x="286" y="1249" type="line"/>
			<point x="286" y="91" type="line"/>
			<point x="128" y="39" type="line"/>
			<point x="128" y="0" type="line"/>
			<point x="446" y="0" type="line"/>
		</contour>
	</outline>
</glyph>
<glyph name="lslash" format="2">
	<unicode hex="0142"/>
	<advance width="605"/>
	<outline>
		<contour>
			<point x="272" y="535" type="line"/>
			<point x="342" y="565" type="line"/>
			<point x="549" y="748" type="line"/>
			<point x="549" y="872" type="line"/>
			<point x="342" y="689" type="line"/>
			<point x="272" y="659" type="line"/>
			<point x="74" y="484" type="line"/>
			<point x="74" y="360" type="line"/>
		</contour>
		<contour>
			<point x="379" y="85" type="line"/>
			<point x="379" y="1259" type="line"/>
			<point x="389" y="1419" type="line"/>
			<point x="369" y="1419" type="line"/>
			<point x="79" y="1335" type="line"/>
			<point x="79" y="1315" type="line"/>
			<point x="157" y="1282"/>
			<point x="207" y="1249"/>
			<point x="233" y="1218" type="curve"/>
			<point x="233" y="85" type="line"/>
			<point x="81" y="37" type="line"/>
			<point x="81" y="0" type="line"/>
			<point x="534" y="0" type="line"/>
			<point x="534" y="37" type="line"/>
		</contour>
	</outline>
</glyph>
<glyph name="Eng" format="2">
	<unicode hex="014A"/>
	<advance width="1500"/>
	<outline>
		<contour>
			<point x="1234" y="179" type="line"/>
			<point x="402" y="1340" type="line"/>
			<point x="82" y="1340" type="line"/>
			<point x="82" y="1301" type="line"/>
			<point x="245" y="1233" type="line"/>
			<point x="245" y="91" type="line"/>
			<point x="87" y="39" type="line"/>
			<point x="87" y="0" type="line"/>
			<point x="512" y="0" type="line"/>
			<point x="512" y="39" type="line"/>
			<point x="341" y="91" type="line"/>
			<point x="341" y="1230" type="line"/>
			<point x="308" y="1194" type="line"/>
			<point x="1228" y="-88" type="line"/>
		</contour>
		<contour>
			<point x="1271" y="-71" type="curve" smooth="yes"/>
			<point x="1271" y="1249" type="line"/>
			<point x="1429" y="1301" type="line"/>
			<point x="1429" y="1340" type="line"/>
			<point x="1004" y="1340" type="line"/>
			<point x="1004" y="1301" type="line"/>
			<point x="1175" y="1249" type="line"/>
			<point x="1175" y="-79" type="line" smooth="yes"/>
			<point x="1175" y="-347"/>
			<point x="1087" y="-419"/>
			<point x="984" y="-419" type="curve" smooth="yes"/>
			<point x="900" y="-419"/>
			<point x="846" y="-330"/>
			<point x="794" y="-330" type="curve" smooth="yes"/>
			<point x="743" y="-330"/>
			<point x="718" y="-372"/>
			<point x="718" y="-417" type="curve" smooth="yes"/>
			<point x="718" y="-487"/>
			<point x="786" y="-530"/>
			<point x="908" y="-530" type="curve" smooth="yes"/>
			<point x="1129" y="-530"/>
			<point x="1271" y="-388"/>
		</contour>
	</outline>
</glyph>
<glyph name="eng" format="2">
	<unicode hex="014B"/>
	<advance width="1052"/>
	<outline>
		<contour>
			<point x="348" y="689" type="line"/>
			<point x="318" y="872" type="line"/>
			<point x="297" y="872" type="line"/>
			<point x="54" y="770" type="line"/>
			<point x="54" y="745" type="line"/>
			<point x="145" y="715"/>
			<point x="180" y="696"/>
			<point x="202" y="674" type="curve"/>
			<point x="202" y="85" type="line"/>
			<point x="50" y="37" type="line"/>
			<point x="50" y="0" type="line"/>
			<point x="503" y="0" type="line"/>
			<point x="503" y="37" type="line"/>
			<point x="348" y="85" type="line"/>
		</contour>
		<contour>
			<point x="779" y="-154" type="line" smooth="yes"/>
			<point x="779" y="-271"/>
			<point x="758" y="-323"/>
			<point x="606" y="-478" type="curve"/>
			<point x="653" y="-530" type="line"/>
			<point x="904" y="-323"/>
			<point x="925" y="-294"/>
			<point x="925" y="-106" type="curve" smooth="yes"/>
			<point x="925" y="549" type="line" smooth="yes"/>
			<point x="925" y="773"/>
			<point x="848" y="872"/>
			<point x="687" y="872" type="curve" smooth="yes"/>
			<point x="545" y="872"/>
			<point x="440" y="818"/>
			<point x="299" y="666" type="curve"/>
			<point x="338" y="634" type="line"/>
			<point x="372" y="688"/>
			<point x="472" y="734"/>
			<point x="578" y="734" type="curve" smooth="yes"/>
			<point x="708" y="734"/>
			<point x="779" y="665"/>
			<point x="779" y="558" type="curve" smooth="yes"/>
		</contour>
	</outline>
</glyph>
<glyph name="OE" format="2">
	<unicode hex="0152"/>
	<advance width="2056"/>
	<outline>
		<contour>
			<point x="1703" y="965" type="line"/>
			<point x="1629" y="965" type="line"/>
			<point x="1607" y="750" type="line"/>
			<point x="1122" y="750" type="line"/>
			<point x="1122" y="656" type="line"/>
			<point x="1607" y="656" type="line"/>
			<point x="1629" y="441" type="line"/>
			<point x="1703" y="441" type="line"/>
			<point x="1703" y="703" type="line"/>
		</contour>
		<contour>
			<point x="1062" y="1340" type="line"/>
			<point x="1062" y="0" type="line"/>
			<point x="1222" y="0" type="line"/>
			<point x="1222" y="1340" type="line"/>
		</contour>
		<contour>
			<point x="886" y="0" type="curve" smooth="yes"/>
			<point x="1781" y="0" type="line"/>
			<point x="1896" y="-59" type="line"/>
			<point x="1912" y="-59" type="line"/>
			<point x="1984" y="370" type="line"/>
			<point x="1943" y="381" type="line"/>
			<point x="1762" y="68" type="line"/>
			<point x="1807" y="94" type="line"/>
			<point x="935" y="94" type="line" smooth="yes"/>
			<point x="539" y="94"/>
			<point x="269" y="269"/>
			<point x="269" y="648" type="curve" smooth="yes"/>
			<point x="269" y="1067"/>
			<point x="543" y="1246"/>
			<point x="913" y="1246" type="curve" smooth="yes"/>
			<point x="1799" y="1246" type="line"/>
			<point x="1744" y="1267" type="line"/>
			<point x="1909" y="953" type="line"/>
			<point x="1956" y="962" type="line"/>
			<point x="1891" y="1389" type="line"/>
			<point x="1875" y="1389" type="line"/>
			<point x="1763" y="1340" type="line"/>
			<point x="884" y="1340" type="line" smooth="yes"/>
			<point x="450" y="1340"/>
			<point x="95" y="1096"/>
			<point x="95" y="646" type="curve" smooth="yes"/>
			<point x="95" y="222"/>
			<point x="372" y="0"/>
		</contour>
	</outline>
</glyph>
<glyph name="oe" format="2">
	<unicode hex="0153"/>
	<advance width="1589"/>
	<outline>
		<contour>
			<point x="508" y="57" type="curve" smooth="yes"/>
			<point x="347" y="57"/>
			<point x="240" y="195"/>
			<point x="240" y="450" type="curve" smooth="yes"/>
			<point x="240" y="688"/>
			<point x="351" y="795"/>
			<point x="501" y="795" type="curve" smooth="yes"/>
			<point x="662" y="795"/>
			<point x="769" y="657"/>
			<point x="769" y="402" type="curve" smooth="yes"/>
			<point x="769" y="164"/>
			<point x="658" y="57"/>
		</contour>
		<contour>
			<point x="871" y="189" type="curve"/>
			<point x="838" y="189" type="line"/>
			<point x="912" y="52"/>
			<point x="1043" y="-20"/>
			<point x="1186" y="-20" type="curve" smooth="yes"/>
			<point x="1320" y="-20"/>
			<point x="1423" y="38"/>
			<point x="1523" y="162" type="curve"/>
			<point x="1498" y="189" type="line"/>
			<point x="1429" y="131"/>
			<point x="1356" y="100"/>
			<point x="1281" y="100" type="curve" smooth="yes"/>
			<point x="1073" y="100"/>
			<point x="934" y="239"/>
			<point x="934" y="461" type="curve" smooth="yes"/>
			<point x="934" y="674"/>
			<point x="1028" y="793"/>
			<point x="1169" y="793" type="curve" smooth="yes"/>
			<point x="1286" y="793"/>
			<point x="1340" y="694"/>
			<point x="1354" y="551" type="curve"/>
			<point x="1422" y="593" type="line"/>
			<point x="908" y="569" type="line"/>
			<point x="906" y="502" type="line"/>
			<point x="1518" y="502" type="line"/>
			<point x="1497" y="739"/>
			<point x="1378" y="872"/>
			<point x="1184" y="872" type="curve" smooth="yes"/>
			<point x="1040" y="872"/>
			<point x="919" y="801"/>
			<point x="844" y="669" type="curve"/>
			<point x="877" y="669" type="line"/>
			<point x="796" y="804"/>
			<point x="662" y="872"/>
			<point x="507" y="872" type="curve" smooth="yes"/>
			<point x="259" y="872"/>
			<point x="75" y="680"/>
			<point x="75" y="416" type="curve" smooth="yes"/>
			<point x="75" y="159"/>
			<point x="249" y="-20"/>
			<point x="502" y="-20" type="curve" smooth="yes"/>
			<point x="651" y="-20"/>
			<point x="789" y="51"/>
		</contour>
	</outline>
	<anchor name="top" x="852" y="852"/>
	<anchor name="bottom" x="852" y="0"/>
</glyph>
<glyph name="Scedilla" format="2">
	<unicode hex="015E"/>
	<advance width="1067"/>
	<outline>
		<contour>
			<point x="875" y="1277" type="line"/>
			<point x="771" y="1334"/>
			<point x="674" y="1360"/>
			<point x="555" y="1360" type="curve" smooth="yes"/>
			<point x="294" y="1360"/>
			<point x="131" y="1221"/>
			<point x="131" y="1002" type="curve" smooth="yes"/>
			<point x="131" y="791"/>
			<point x="272" y="713"/>
			<point x="448" y="646" type="curve" smooth="yes"/>
			<point x="624" y="579"/>
			<point x="832" y="532"/>
			<point x="832" y="326" type="curve" smooth="yes"/>
			<point x="832" y="149"/>
			<point x="700" y="65"/>
			<point x="481" y="65" type="curve" smooth="yes"/>
			<point x="387" y="65"/>
			<point x="314" y="90"/>
			<point x="210" y="146" type="curve"/>
			<point x="376" y="41" type="line"/>
			<point x="140" y="386" type="line"/>
			<point x="82" y="386" type="line"/>
			<point x="169" y="40" type="line"/>
			<point x="277" y="-4"/>
			<point x="368" y="-20"/>
			<point x="496" y="-20" type="curve" smooth="yes"/>
			<point x="775" y="-20"/>
			<point x="970" y="122"/>
			<point x="970" y="380" type="curve" smooth="yes"/>
			<point x="970" y="626"/>
			<point x="774" y="699"/>
			<point x="596" y="762" type="curve" smooth="yes"/>
			<point x="418" y="825"/>
			<point x="256" y="879"/>
			<point x="256" y="1057" type="curve" smooth="yes"/>
			<point x="256" y="1191"/>
			<point x="355" y="1280"/>
			<point x="527" y="1280" type="curve" smooth="yes"/>
			<point x="611" y="1280"/>
			<point x="679" y="1261"/>
			<point x="749" y="1212" type="curve"/>
			<point x="714" y="1258" type="line"/>
			<point x="887" y="949" type="line"/>
			<point x="931" y="957" type="line"/>
			<point x="869" y="1398" type="line"/>
			<point x="852" y="1398" type="line"/>
			<point x="730" y="1316" type="line"/>
		</contour>
		<contour>
			<point x="438" y="-530" type="curve" smooth="yes"/>
			<point x="565" y="-530"/>
			<point x="690" y="-441"/>
			<point x="690" y="-311" type="curve" smooth="yes"/>
			<point x="690" y="-226"/>
			<point x="631" y="-157"/>
			<point x="443" y="-126" type="curve"/>
			<point x="446" y="-221" type="line"/>
			<point x="643" y="50" type="line"/>
			<point x="566" y="50" type="line"/>
			<point x="363" y="-211" type="line"/>
			<point x="363" y="-229" type="line"/>
			<point x="536" y="-250"/>
			<point x="597" y="-286"/>
			<point x="597" y="-360" type="curve" smooth="yes"/>
			<point x="597" y="-420"/>
			<point x="553" y="-459"/>
			<point x="491" y="-459" type="curve" smooth="yes"/>
			<point x="423" y="-459"/>
			<point x="413" y="-396"/>
			<point x="355" y="-396" type="curve" smooth="yes"/>
			<point x="324" y="-396"/>
			<point x="302" y="-415"/>
			<point x="302" y="-446" type="curve" smooth="yes"/>
			<point x="302" y="-489"/>
			<point x="341" y="-530"/>
		</contour>
	</outline>
</glyph>
<glyph name="scedilla" format="2">
	<unicode hex="015F"/>
	<advance width="707"/>
	<outline>
		<contour>
			<point x="381" y="872" type="curve" smooth="yes"/>
			<point x="221" y="872"/>
			<point x="101" y="785"/>
			<point x="101" y="638" type="curve" smooth="yes"/>
			<point x="101" y="497"/>
			<point x="180" y="436"/>
			<point x="277" y="387" type="curve" smooth="yes"/>
			<point x="374" y="338"/>
			<point x="493" y="307"/>
			<point x="493" y="196" type="curve" smooth="yes"/>
			<point x="493" y="96"/>
			<point x="413" y="45"/>
			<point x="287" y="45" type="curve" smooth="yes"/>
			<point x="242" y="45"/>
			<point x="209" y="49"/>
			<point x="134" y="86" type="curve"/>
			<point x="256" y="8" type="line"/>
			<point x="122" y="257" type="line"/>
			<point x="75" y="257" type="line"/>
			<point x="120" y="16" type="line"/>
			<point x="180" y="-10"/>
			<point x="237" y="-20"/>
			<point x="314" y="-20" type="curve" smooth="yes"/>
			<point x="491" y="-20"/>
			<point x="623" y="70"/>
			<point x="623" y="235" type="curve" smooth="yes"/>
			<point x="623" y="392"/>
			<point x="514" y="452"/>
			<point x="414" y="498" type="curve" smooth="yes"/>
			<point x="314" y="544"/>
			<point x="222" y="579"/>
			<point x="222" y="677" type="curve" smooth="yes"/>
			<point x="222" y="755"/>
			<point x="284" y="802"/>
			<point x="384" y="802" type="curve" smooth="yes"/>
			<point x="438" y="802"/>
			<point x="479" y="783"/>
			<point x="529" y="744" type="curve"/>
			<point x="461" y="828" type="line"/>
			<point x="559" y="585" type="line"/>
			<point x="602" y="585" type="line"/>
			<point x="587" y="821" type="line"/>
			<point x="509" y="859"/>
			<point x="455" y="872"/>
		</contour>
		<contour>
			<point x="266" y="-530" type="curve" smooth="yes"/>
			<point x="393" y="-530"/>
			<point x="518" y="-441"/>
			<point x="518" y="-311" type="curve" smooth="yes"/>
			<point x="518" y="-226"/>
			<point x="459" y="-157"/>
			<point x="271" y="-126" type="curve"/>
			<point x="274" y="-221" type="line"/>
			<point x="471" y="50" type="line"/>
			<point x="394" y="50" type="line"/>
			<point x="191" y="-211" type="line"/>
			<point x="191" y="-229" type="line"/>
			<point x="364" y="-250"/>
			<point x="425" y="-286"/>
			<point x="425" y="-360" type="curve" smooth="yes"/>
			<point x="425" y="-420"/>
			<point x="381" y="-459"/>
			<point x="319" y="-459" type="curve" smooth="yes"/>
			<point x="251" y="-459"/>
			<point x="241" y="-396"/>
			<point x="183" y="-396" type="curve" smooth="yes"/>
			<point x="152" y="-396"/>
			<point x="130" y="-415"/>
			<point x="130" y="-446" type="curve" smooth="yes"/>
			<point x="130" y="-489"/>
			<point x="169" y="-530"/>
		</contour>
	</outline>
</glyph>
<glyph name="uni0162" format="2">
	<unicode hex="0162"/>
	<advance width="1298"/>
	<outline>
		<contour>
			<point x="569" y="1279" type="line"/>
			<point x="569" y="91" type="line"/>
			<point x="411" y="39" type="line"/>
			<point x="411" y="0" type="line"/>
			<point x="887" y="0" type="line"/>
			<point x="887" y="39" type="line"/>
			<point x="729" y="91" type="line"/>
			<point x="729" y="1279" type="line"/>
		</contour>
		<contour>
			<point x="1166" y="1246" type="line"/>
			<point x="1074" y="1265" type="line"/>
			<point x="1209" y="979" type="line"/>
			<point x="1255" y="988" type="line"/>
			<point x="1215" y="1408" type="line"/>
			<point x="1197" y="1408" type="line"/>
			<point x="1056" y="1324" type="line"/>
			<point x="1143" y="1340" type="line"/>
			<point x="155" y="1340" type="line"/>
			<point x="242" y="1324" type="line"/>
			<point x="101" y="1408" type="line"/>
			<point x="83" y="1408" type="line"/>
			<point x="43" y="988" type="line"/>
			<point x="89" y="979" type="line"/>
			<point x="224" y="1265" type="line"/>
			<point x="132" y="1246" type="line"/>
		</contour>
		<contour>
			<point x="551" y="-530" type="curve" smooth="yes"/>
			<point x="678" y="-530"/>
			<point x="803" y="-441"/>
			<point x="803" y="-311" type="curve" smooth="yes"/>
			<point x="803" y="-226"/>
			<point x="744" y="-157"/>
			<point x="556" y="-126" type="curve"/>
			<point x="559" y="-221" type="line"/>
			<point x="756" y="50" type="line"/>
			<point x="679" y="50" type="line"/>
			<point x="476" y="-211" type="line"/>
			<point x="476" y="-229" type="line"/>
			<point x="649" y="-250"/>
			<point x="710" y="-286"/>
			<point x="710" y="-360" type="curve" smooth="yes"/>
			<point x="710" y="-420"/>
			<point x="666" y="-459"/>
			<point x="604" y="-459" type="curve" smooth="yes"/>
			<point x="536" y="-459"/>
			<point x="526" y="-396"/>
			<point x="468" y="-396" type="curve" smooth="yes"/>
			<point x="437" y="-396"/>
			<point x="415" y="-415"/>
			<point x="415" y="-446" type="curve" smooth="yes"/>
			<point x="415" y="-489"/>
			<point x="454" y="-530"/>
		</contour>
	</outline>
</glyph>
<glyph name="uni0163" format="2">
	<unicode hex="0163"/>
	<advance width="643"/>
	<outline>
		<contour>
			<point x="306" y="240" type="curve" smooth="yes"/>
			<point x="306" y="822" type="line"/>
			<point x="306" y="983" type="line"/>
			<point x="275" y="983" type="line"/>
			<point x="195" y="919"/>
			<point x="125" y="865"/>
			<point x="52" y="810" type="curve"/>
			<point x="52" y="792" type="line"/>
			<point x="160" y="717" type="line"/>
			<point x="160" y="201" type="line" smooth="yes"/>
			<point x="160" y="59"/>
			<point x="245" y="-16"/>
			<point x="378" y="-16" type="curve" smooth="yes"/>
			<point x="445" y="-16"/>
			<point x="511" y="5"/>
			<point x="627" y="87" type="curve"/>
			<point x="627" y="134" type="line"/>
			<point x="563" y="115"/>
			<point x="508" y="106"/>
			<point x="462" y="106" type="curve" smooth="yes"/>
			<point x="362" y="106"/>
			<point x="306" y="150"/>
		</contour>
		<contour>
			<point x="249" y="760" type="line"/>
			<point x="582" y="760" type="line"/>
			<point x="598" y="852" type="line"/>
			<point x="249" y="852" type="line"/>
		</contour>
		<contour>
			<point x="269" y="-530" type="curve" smooth="yes"/>
			<point x="396" y="-530"/>
			<point x="521" y="-441"/>
			<point x="521" y="-311" type="curve" smooth="yes"/>
			<point x="521" y="-226"/>
			<point x="462" y="-157"/>
			<point x="274" y="-126" type="curve"/>
			<point x="277" y="-221" type="line"/>
			<point x="474" y="50" type="line"/>
			<point x="397" y="50" type="line"/>
			<point x="194" y="-211" type="line"/>
			<point x="194" y="-229" type="line"/>
			<point x="367" y="-250"/>
			<point x="428" y="-286"/>
			<point x="428" y="-360" type="curve" smooth="yes"/>
			<point x="428" y="-420"/>
			<point x="384" y="-459"/>
			<point x="322" y="-459" type="curve" smooth="yes"/>
			<point x="254" y="-459"/>
			<point x="244" y="-396"/>
			<point x="186" y="-396" type="curve" smooth="yes"/>
			<point x="155" y="-396"/>
			<point x="133" y="-415"/>
			<point x="133" y="-446" type="curve" smooth="yes"/>
			<point x="133" y="-489"/>
			<point x="172" y="-530"/>
		</contour>
	</outline>
</glyph>
<glyph name="Tbar" format="2">
	<unicode hex="0166"/>
	<advance width="1302"/>
	<outline>
		<contour>
			<point x="280" y="649" type="line"/>
			<point x="1022" y="649" type="line"/>
			<point x="1022" y="743" type="line"/>
			<point x="280" y="743" type="line"/>
		</contour>
		<contour>
			<point x="571" y="1279" type="line"/>
			<point x="571" y="91" type="line"/>
			<point x="413" y="39" type="line"/>
			<point x="413" y="0" type="line"/>
			<point x="889" y="0" type="line"/>
			<point x="889" y="39" type="line"/>
			<point x="731" y="91" type="line"/>
			<point x="731" y="1279" type="line"/>
		</contour>
		<contour>
			<point x="1168" y="1246" type="line"/>
			<point x="1076" y="1265" type="line"/>
			<point x="1211" y="979" type="line"/>
			<point x="1257" y="988" type="line"/>
			<point x="1217" y="1408" type="line"/>
			<point x="1199" y="1408" type="line"/>
			<point x="1058" y="1324" type="line"/>
			<point x="1145" y="1340" type="line"/>
			<point x="157" y="1340" type="line"/>
			<point x="244" y="1324" type="line"/>
			<point x="103" y="1408" type="line"/>
			<point x="85" y="1408" type="line"/>
			<point x="45" y="988" type="line"/>
			<point x="91" y="979" type="line"/>
			<point x="226" y="1265" type="line"/>
			<point x="134" y="1246" type="line"/>
		</contour>
	</outline>
</glyph>
<glyph name="tbar" format="2">
	<unicode hex="0167"/>
	<advance width="652"/>
	<outline>
		<contour>
			<point x="36" y="412" type="line"/>
			<point x="549" y="412" type="line"/>
			<point x="549" y="504" type="line"/>
			<point x="36" y="504" type="line"/>
		</contour>
		<contour>
			<point x="313" y="240" type="curve" smooth="yes"/>
			<point x="313" y="822" type="line"/>
			<point x="313" y="983" type="line"/>
			<point x="282" y="983" type="line"/>
			<point x="202" y="919"/>
			<point x="132" y="865"/>
			<point x="59" y="810" type="curve"/>
			<point x="59" y="792" type="line"/>
			<point x="167" y="717" type="line"/>
			<point x="167" y="201" type="line" smooth="yes"/>
			<point x="167" y="59"/>
			<point x="252" y="-16"/>
			<point x="385" y="-16" type="curve" smooth="yes"/>
			<point x="452" y="-16"/>
			<point x="518" y="5"/>
			<point x="634" y="87" type="curve"/>
			<point x="634" y="134" type="line"/>
			<point x="570" y="115"/>
			<point x="515" y="106"/>
			<point x="469" y="106" type="curve" smooth="yes"/>
			<point x="369" y="106"/>
			<point x="313" y="150"/>
		</contour>
		<contour>
			<point x="256" y="760" type="line"/>
			<point x="589" y="760" type="line"/>
			<point x="605" y="852" type="line"/>
			<point x="256" y="852" type="line"/>
		</contour>
	</outline>
</glyph>
<glyph name="Uogonek" format="2">
	<unicode hex="0172"/>
	<advance width="1498"/>
	<outline>
		<contour>
			<point x="1188" y="489" type="line" smooth="yes"/>
			<point x="1188" y="242"/>
			<point x="1044" y="102"/>
			<point x="781" y="102" type="curve" smooth="yes"/>
			<point x="508" y="102"/>
			<point x="372" y="243"/>
			<point x="372" y="534" type="curve" smooth="yes"/>
			<point x="372" y="1249" type="line"/>
			<point x="530" y="1301" type="line"/>
			<point x="530" y="1340" type="line"/>
			<point x="54" y="1340" type="line"/>
			<point x="54" y="1301" type="line"/>
			<point x="212" y="1249" type="line"/>
			<point x="212" y="543" type="line" smooth="yes"/>
			<point x="212" y="173"/>
			<point x="407" y="-20"/>
			<point x="758" y="-20" type="curve" smooth="yes"/>
			<point x="1094" y="-20"/>
			<point x="1284" y="172"/>
			<point x="1284" y="509" type="curve" smooth="yes"/>
			<point x="1284" y="1249" type="line"/>
			<point x="1442" y="1301" type="line"/>
			<point x="1442" y="1340" type="line"/>
			<point x="1030" y="1340" type="line"/>
			<point x="1030" y="1301" type="line"/>
			<point x="1188" y="1249" type="line"/>
		</contour>
		<contour>
			<point x="792" y="-133" type="curve" smooth="yes"/>
			<point x="881" y="46" type="line"/>
			<point x="828" y="46" type="line"/>
			<point x="713" y="-124" type="line" smooth="yes"/>
			<point x="638" y="-234"/>
			<point x="621" y="-297"/>
			<point x="621" y="-361" type="curve" smooth="yes"/>
			<point x="621" y="-467"/>
			<point x="694" y="-530"/>
			<point x="791" y="-530" type="curve" smooth="yes"/>
			<point x="880" y="-530"/>
			<point x="953" y="-484"/>
			<point x="1029" y="-370" type="curve"/>
			<point x="1000" y="-342" type="line"/>
			<point x="932" y="-413"/>
			<point x="889" y="-430"/>
			<point x="846" y="-430" type="curve" smooth="yes"/>
			<point x="783" y="-430"/>
			<point x="738" y="-392"/>
			<point x="738" y="-324" type="curve" smooth="yes"/>
			<point x="738" y="-274"/>
			<point x="751" y="-216"/>
		</contour>
	</outline>
</glyph>
<glyph name="uogonek" format="2">
	<unicode hex="0173"/>
	<advance width="1023"/>
	<outline>
		<contour>
			<point x="315" y="282" type="curve" smooth="yes"/>
			<point x="315" y="756" type="line"/>
			<point x="324" y="867" type="line"/>
			<point x="27" y="853" type="line"/>
			<point x="27" y="814" type="line"/>
			<point x="169" y="754" type="line"/>
			<point x="169" y="286" type="line" smooth="yes"/>
			<point x="169" y="82"/>
			<point x="243" y="-20"/>
			<point x="403" y="-20" type="curve" smooth="yes"/>
			<point x="535" y="-20"/>
			<point x="624" y="30"/>
			<point x="758" y="173" type="curve"/>
			<point x="720" y="211" type="line"/>
			<point x="686" y="158"/>
			<point x="590" y="119"/>
			<point x="500" y="119" type="curve" smooth="yes"/>
			<point x="357" y="119"/>
			<point x="315" y="160"/>
		</contour>
		<contour>
			<point x="722" y="-16" type="line"/>
			<point x="742" y="-16" type="line"/>
			<point x="981" y="49" type="line"/>
			<point x="981" y="79" type="line"/>
			<point x="939" y="85"/>
			<point x="878" y="114"/>
			<point x="854" y="140" type="curve"/>
			<point x="854" y="756" type="line"/>
			<point x="864" y="867" type="line"/>
			<point x="565" y="853" type="line"/>
			<point x="565" y="814" type="line"/>
			<point x="707" y="754" type="line"/>
			<point x="707" y="166" type="line"/>
		</contour>
		<contour>
			<point x="708" y="-133" type="curve" smooth="yes"/>
			<point x="797" y="46" type="line"/>
			<point x="744" y="46" type="line"/>
			<point x="629" y="-124" type="line" smooth="yes"/>
			<point x="554" y="-234"/>
			<point x="537" y="-297"/>
			<point x="537" y="-361" type="curve" smooth="yes"/>
			<point x="537" y="-467"/>
			<point x="610" y="-530"/>
			<point x="707" y="-530" type="curve" smooth="yes"/>
			<point x="796" y="-530"/>
			<point x="869" y="-484"/>
			<point x="945" y="-370" type="curve"/>
			<point x="916" y="-342" type="line"/>
			<point x="848" y="-413"/>
			<point x="805" y="-430"/>
			<point x="762" y="-430" type="curve" smooth="yes"/>
			<point x="699" y="-430"/>
			<point x="654" y="-392"/>
			<point x="654" y="-324" type="curve" smooth="yes"/>
			<point x="654" y="-274"/>
			<point x="667" y="-216"/>
		</contour>
	</outline>
</glyph>
<glyph name="uni018F" format="2">
	<unicode hex="018F"/>
	<advance width="1358"/>
	<outline>
		<contour>
			<point x="235" y="456" type="line"/>
			<point x="1184" y="456" type="line"/>
			<point x="1187" y="550" type="line"/>
			<point x="82" y="550" type="line"/>
			<point x="114" y="185"/>
			<point x="307" y="-20"/>
			<point x="630" y="-20" type="curve" smooth="yes"/>
			<point x="1018" y="-20"/>
			<point x="1262" y="300"/>
			<point x="1262" y="686" type="curve" smooth="yes"/>
			<point x="1262" y="1073"/>
			<point x="1039" y="1360"/>
			<point x="664" y="1360" type="curve" smooth="yes"/>
			<point x="449" y="1360"/>
			<point x="301" y="1289"/>
			<point x="94" y="1118" type="curve"/>
			<point x="139" y="1059" type="line"/>
			<point x="272" y="1159"/>
			<point x="425" y="1221"/>
			<point x="620" y="1221" type="curve" smooth="yes"/>
			<point x="912" y="1221"/>
			<point x="1091" y="1008"/>
			<point x="1091" y="625" type="curve" smooth="yes"/>
			<point x="1091" y="273"/>
			<point x="902" y="72"/>
			<point x="653" y="72" type="curve" smooth="yes"/>
			<point x="433" y="72"/>
			<point x="307" y="210"/>
			<point x="287" y="468" type="curve"/>
		</contour>
	</outline>
</glyph>
<glyph name="Ohorn" format="2">
	<unicode hex="01A0"/>
	<advance width="1526"/>
	<outline>
		<contour>
			<point x="771" y="72" type="curve" smooth="yes"/>
			<point x="478" y="72"/>
			<point x="268" y="301"/>
			<point x="268" y="700" type="curve" smooth="yes"/>
			<point x="268" y="1048"/>
			<point x="454" y="1268"/>
			<point x="754" y="1268" type="curve" smooth="yes"/>
			<point x="1047" y="1268"/>
			<point x="1257" y="1039"/>
			<point x="1257" y="640" type="curve" smooth="yes"/>
			<point x="1257" y="292"/>
			<point x="1071" y="72"/>
		</contour>
		<contour>
			<point x="761" y="1360" type="curve" smooth="yes"/>
			<point x="373" y="1360"/>
			<point x="94" y="1073"/>
			<point x="94" y="668" type="curve" smooth="yes"/>
			<point x="94" y="264"/>
			<point x="374" y="-20"/>
			<point x="764" y="-20" type="curve" smooth="yes"/>
			<point x="1152" y="-20"/>
			<point x="1431" y="267"/>
			<point x="1431" y="672" type="curve" smooth="yes"/>
			<point x="1431" y="942"/>
			<point x="1305" y="1160"/>
			<point x="1101" y="1274" type="curve"/>
			<point x="1101" y="1256" type="line"/>
			<point x="1306" y="1243"/>
			<point x="1393" y="1325"/>
			<point x="1393" y="1460" type="curve" smooth="yes"/>
			<point x="1393" y="1529"/>
			<point x="1355" y="1574"/>
			<point x="1293" y="1574" type="curve" smooth="yes"/>
			<point x="1250" y="1574"/>
			<point x="1218" y="1545"/>
			<point x="1218" y="1507" type="curve" smooth="yes"/>
			<point x="1218" y="1471"/>
			<point x="1242" y="1454"/>
			<point x="1242" y="1403" type="curve" smooth="yes"/>
			<point x="1242" y="1360"/>
			<point x="1206" y="1331"/>
			<point x="1094" y="1331" type="curve" smooth="yes"/>
			<point x="976" y="1331"/>
			<point x="868" y="1360"/>
		</contour>
	</outline>
	<anchor name="UCtop" x="762" y="1340"/>
	<anchor name="bottom" x="762" y="0"/>
</glyph>
<glyph name="ohorn" format="2">
	<unicode hex="01A1"/>
	<advance width="1035"/>
	<outline>
		<contour>
			<point x="508" y="57" type="curve" smooth="yes"/>
			<point x="347" y="57"/>
			<point x="240" y="195"/>
			<point x="240" y="450" type="curve" smooth="yes"/>
			<point x="240" y="688"/>
			<point x="351" y="795"/>
			<point x="501" y="795" type="curve" smooth="yes"/>
			<point x="662" y="795"/>
			<point x="769" y="657"/>
			<point x="769" y="402" type="curve" smooth="yes"/>
			<point x="769" y="164"/>
			<point x="658" y="57"/>
		</contour>
		<contour>
			<point x="1000" y="972" type="curve" smooth="yes"/>
			<point x="1000" y="1041"/>
			<point x="962" y="1086"/>
			<point x="900" y="1086" type="curve" smooth="yes"/>
			<point x="857" y="1086"/>
			<point x="825" y="1057"/>
			<point x="825" y="1019" type="curve" smooth="yes"/>
			<point x="825" y="973"/>
			<point x="849" y="966"/>
			<point x="849" y="915" type="curve" smooth="yes"/>
			<point x="849" y="875"/>
			<point x="820" y="846"/>
			<point x="738" y="846" type="curve" smooth="yes"/>
			<point x="664" y="846"/>
			<point x="612" y="872"/>
			<point x="507" y="872" type="curve" smooth="yes"/>
			<point x="259" y="872"/>
			<point x="75" y="680"/>
			<point x="75" y="416" type="curve" smooth="yes"/>
			<point x="75" y="159"/>
			<point x="249" y="-20"/>
			<point x="502" y="-20" type="curve" smooth="yes"/>
			<point x="750" y="-20"/>
			<point x="934" y="172"/>
			<point x="934" y="436" type="curve" smooth="yes"/>
			<point x="934" y="583"/>
			<point x="877" y="716"/>
			<point x="758" y="798" type="curve"/>
			<point x="758" y="781" type="line"/>
			<point x="933" y="776"/>
			<point x="1000" y="856"/>
		</contour>
	</outline>
	<anchor name="top" x="505" y="852"/>
	<anchor name="bottom" x="505" y="0"/>
</glyph>
<glyph name="Uhorn" format="2">
	<unicode hex="01AF"/>
	<advance width="1504"/>
	<outline>
		<contour>
			<point x="1462" y="1403" type="curve" smooth="yes"/>
			<point x="1462" y="1365"/>
			<point x="1438" y="1340"/>
			<point x="1343" y="1340" type="curve" smooth="yes"/>
			<point x="1030" y="1340" type="line"/>
			<point x="1030" y="1301" type="line"/>
			<point x="1188" y="1249" type="line"/>
			<point x="1188" y="489" type="line" smooth="yes"/>
			<point x="1188" y="242"/>
			<point x="1044" y="102"/>
			<point x="781" y="102" type="curve" smooth="yes"/>
			<point x="508" y="102"/>
			<point x="372" y="243"/>
			<point x="372" y="534" type="curve" smooth="yes"/>
			<point x="372" y="1249" type="line"/>
			<point x="530" y="1301" type="line"/>
			<point x="530" y="1340" type="line"/>
			<point x="54" y="1340" type="line"/>
			<point x="54" y="1301" type="line"/>
			<point x="212" y="1249" type="line"/>
			<point x="212" y="543" type="line" smooth="yes"/>
			<point x="212" y="173"/>
			<point x="407" y="-20"/>
			<point x="758" y="-20" type="curve" smooth="yes"/>
			<point x="1094" y="-20"/>
			<point x="1284" y="172"/>
			<point x="1284" y="509" type="curve" smooth="yes"/>
			<point x="1284" y="1255" type="line"/>
			<point x="1532" y="1262"/>
			<point x="1613" y="1343"/>
			<point x="1613" y="1460" type="curve" smooth="yes"/>
			<point x="1613" y="1529"/>
			<point x="1575" y="1574"/>
			<point x="1513" y="1574" type="curve" smooth="yes"/>
			<point x="1470" y="1574"/>
			<point x="1438" y="1545"/>
			<point x="1438" y="1507" type="curve" smooth="yes"/>
			<point x="1438" y="1461"/>
			<point x="1462" y="1454"/>
		</contour>
	</outline>
	<anchor name="UCtop" x="776" y="1340"/>
	<anchor name="bottom" x="776" y="0"/>
</glyph>
